<?xml version="1.0" standalone="no"?>
<!DOCTYPE svg PUBLIC "-//W3C//DTD SVG 1.1//EN" "http://www.w3.org/Graphics/SVG/1.1/DTD/svg11.dtd" >
<svg xmlns="http://www.w3.org/2000/svg" xmlns:xlink="http://www.w3.org/1999/xlink" version="1.1">
<metadata>
Created by FontForge 20170731 at Wed Mar 16 19:07:38 2016
 By Aleksey,,,
Copyright 2016 Michal Sahar. All rights reserved.
</metadata>
<defs>
<font id="SuezOne-Regular" horiz-adv-x="0" >
  <font-face 
    font-family="Suez One"
    font-weight="400"
    font-stretch="normal"
    units-per-em="1000"
    panose-1="0 0 5 0 0 0 0 0 0 0"
    ascent="800"
    descent="-200"
    x-height="523"
    cap-height="674"
    bbox="-509 -319 1072 987"
    underline-thickness="50"
    underline-position="-150"
    unicode-range="U+0020-FB4B"
  />
<missing-glyph horiz-adv-x="484" 
d="M396 -215h-306v967h306v-967zM162 687v-32h63v-35h-64v-32h161v32h-64v35h64v32h-160zM161 562v-100h161v33h-64v67h-97zM225 495h-32v35h32v-35zM161 436v-32h64v-36h-64v-32h97v68h64v32h-161zM290 378v-64h-129v-33h161v97h-32zM225 260v-54h33v22h32v-46h-97v78h-32
v-109h161v109h-97zM161 93v-110h161v110h-161zM290 15h-97v46h97v-46zM161 -39v-32h68l-68 -45v-32h161v32h-99l68 45h31v32h-161z" />
    <glyph glyph-name="fi" unicode="fi" horiz-adv-x="756" 
d="M476 730l170 45l42 -152l-170 -46zM25 92l70 21v293l-70 1v98l70 4v65q0 90 52.5 140.5t145.5 50.5q61 0 135 -13l-23 -136q-44 12 -76.5 16.5t-65.5 3.5v-118l409 7v-379q0 -21 3 -28t17 -15l49 -28l-3 -75h-300l-5 92l71 21v243q0 22 -4.5 29.5t-23.5 17.5l-213 1v-258
q0 -21 3 -28t17 -15l62 -34l-3 -69h-314z" />
    <glyph glyph-name="fl" unicode="fl" horiz-adv-x="745" 
d="M25 92l70 21v293l-70 1v98l70 4v66q0 60 24.5 104.5t71.5 65.5q45 21 125 21q41 0 86.5 -4.5t119.5 -13.5q93 16 132 17q9 -24 13 -52v-567q0 -21 3.5 -28t17.5 -15l49 -28l-4 -75h-300l-5 92l72 21v481q-27 5 -59 15q-60 15 -96 22q-46 8 -82 6v-119l114 7v-123l-114 2
v-258q0 -21 3 -28t17 -15l62 -34l-3 -69h-314z" />
    <glyph glyph-name=".notdef" horiz-adv-x="484" 
d="M396 -215h-306v967h306v-967zM162 687v-32h63v-35h-64v-32h161v32h-64v35h64v32h-160zM161 562v-100h161v33h-64v67h-97zM225 495h-32v35h32v-35zM161 436v-32h64v-36h-64v-32h97v68h64v32h-161zM290 378v-64h-129v-33h161v97h-32zM225 260v-54h33v22h32v-46h-97v78h-32
v-109h161v109h-97zM161 93v-110h161v110h-161zM290 15h-97v46h97v-46zM161 -39v-32h68l-68 -45v-32h161v32h-99l68 45h31v32h-161z" />
    <glyph glyph-name=".null" 
 />
    <glyph glyph-name="nonmarkingreturn" horiz-adv-x="333" 
 />
    <glyph glyph-name="space" unicode=" " horiz-adv-x="206" 
 />
    <glyph glyph-name="exclam" unicode="!" horiz-adv-x="330" 
d="M70 682l132 16h47l-34 -481h-104zM75 107l150 39l37 -138l-149 -40z" />
    <glyph glyph-name="quotedbl" unicode="&#x22;" horiz-adv-x="454" 
d="M50 674h158v-59l-86 -245h-57zM256 674h158v-59l-87 -245h-56z" />
    <glyph glyph-name="numbersign" unicode="#" horiz-adv-x="622" 
d="M148 172h-103l24 60h105l35 83h-103l28 60h101l42 98h94l-50 -98h72l42 98h92l-50 -98h100l-28 -60h-104l-41 -83h108l-25 -60h-112l-53 -98h-57l41 98h-85l-55 -98h-60zM333 232l34 83h-77l-43 -83h86z" />
    <glyph glyph-name="dollar" unicode="$" horiz-adv-x="545" 
d="M439 41.5q-51 -46.5 -144 -56.5l8 -141h-70l8 138q-86 0 -186 28q6 111 12 153l60 11l65 -71q38 -10 79 -10q23 0 38 3q3 8 3 22t-6 23.5t-26.5 22t-67.5 36.5q-62 32 -95 56.5t-46.5 51t-13.5 63.5q0 75 48 121.5t134 57.5l-6 124h70l-6 -121q44 -1 89 -11t81 -25
q0 -64 -8 -152l-55 -8l-71 77q-26 7 -79 7q-9 0 -33 -2q-3 -4 -3 -21q0 -21 21 -39t85 -50q71 -35 105 -58t47.5 -47t13.5 -60q0 -76 -51 -122.5z" />
    <glyph glyph-name="percent" unicode="%" horiz-adv-x="637" 
d="M55 68l527 496v-106l-527 -495v105zM92 340q-29 31 -29 90q0 52 37 85t93 33q55 0 84.5 -31.5t29.5 -89.5q0 -51 -37 -84.5t-94 -33.5q-55 0 -84 31zM213 379q6 18 6 45q0 57 -39 57q-11 0 -25 -3q-4 -14 -4 -41q0 -62 38 -62q15 0 24 4zM359.5 9.5
q-29.5 31.5 -29.5 90.5q0 51 37.5 83.5t94.5 32.5q55 0 84 -30.5t29 -88.5q0 -52 -37 -85.5t-93 -33.5t-85.5 31.5zM483 49q3 9 3 41q0 61 -37 61q-16 0 -25 -4q-5 -18 -5 -44q0 -57 39 -57q10 0 25 3z" />
    <glyph glyph-name="ampersand" unicode="&#x26;" horiz-adv-x="797" 
d="M683.5 125.5q42.5 12.5 78.5 25.5l-6 -137q-48 -26 -114 -26q-63 0 -127 24q-26 10 -50 21q-92 -49 -197 -49q-72 0 -127.5 23t-86 65.5t-30.5 98.5t30 104.5t86 82.5q-31 73 -31 136q0 90 61.5 143t166.5 53q92 0 144.5 -41.5t52.5 -114.5q0 -68 -47 -116.5t-138 -73.5
q34 -46 82 -93q27 -27 77 -65l8 17q15 30 15 48q0 17 -17 31l-28 27v44q82 29 177 29q1 -7 1 -31q0 -63 -18.5 -113t-61.5 -103q23 -14 43 -22q14 0 56.5 12.5zM269 548q0 -56 32 -122q41 17 59.5 39t18.5 52q0 63 -76 63q-22 0 -30 -2q-4 -11 -4 -30zM221 125.5
q40 -29.5 99 -29.5q20 0 36 3q-54 39 -97 84q-37 39 -66 81q-12 -27 -12 -55q0 -54 40 -83.5z" />
    <glyph glyph-name="quotesingle" unicode="'" horiz-adv-x="243" 
d="M45 674h158v-59l-86 -245h-57z" />
    <glyph glyph-name="parenleft" unicode="(" horiz-adv-x="324" 
d="M179 -95.5q-58 70.5 -101 173.5t-43 224t43 220t101 164.5t110 99.5v-98q-51 -71 -86.5 -169t-35.5 -217q0 -120 36 -223t86 -178v-105q-52 38 -110 108.5z" />
    <glyph glyph-name="parenright" unicode=")" horiz-adv-x="324" 
d="M35 -99q50 75 86 178t36 223q0 119 -35.5 217t-86.5 169v98q52 -34 110 -99.5t101 -164.5t43 -220t-43 -224t-101 -173.5t-110 -108.5v105z" />
    <glyph glyph-name="asterisk" unicode="*" horiz-adv-x="466" 
d="M183 485l-83 -28l-35 59l66 57l-66 57l34 61l84 -29l15 86h70l16 -86l82 29l35 -60l-65 -57l65 -57l-34 -60l-83 28l-16 -85h-70z" />
    <glyph glyph-name="plus" unicode="+" horiz-adv-x="613" 
d="M533 210h-169v-171h-115v171h-169v111h169v172h115v-172h169v-111z" />
    <glyph glyph-name="comma" unicode="," horiz-adv-x="274" 
d="M105 -79.5q8 22.5 8 34.5q0 11 -4.5 19.5t-15.5 18.5l-53 53q43 75 106 119q30 -22 55 -51q34 -37 34 -76q0 -19 -5.5 -35.5t-19.5 -51.5q-25 -54 -65 -123h-77q29 70 37 92.5z" />
    <glyph glyph-name="hyphen" unicode="-" horiz-adv-x="472" 
d="M88 339l244 33h52v-132h-296v99z" />
    <glyph glyph-name="period" unicode="." horiz-adv-x="303" 
d="M55 117l162 43l41 -149l-161 -43z" />
    <glyph glyph-name="slash" unicode="/" horiz-adv-x="307" 
d="M237 754h67l-233 -815h-68z" />
    <glyph glyph-name="zero" unicode="0" horiz-adv-x="655" 
d="M104 53q-68 73 -68 214q0 81 40 145.5t111.5 100.5t161.5 36q133 0 201.5 -73t68.5 -216q0 -81 -40 -144.5t-111.5 -99.5t-162.5 -36q-133 0 -201 73zM419 119q8 22 13 58.5t5 74.5q0 83 -31 126t-91 43q-31 0 -81 -9q-16 -25 -16 -129q0 -86 31.5 -132.5t89.5 -46.5
q42 0 80 15z" />
    <glyph glyph-name="one" unicode="1" horiz-adv-x="392" 
d="M20 102l108 20v225q0 20 -3.5 25.5t-22.5 16.5l-82 45l9 66l186 54l82 -7v-393q0 -23 2.5 -29t16.5 -13l71 -36l-3 -76h-359z" />
    <glyph glyph-name="two" unicode="2" horiz-adv-x="433" 
d="M19 117q16 14 49 39.5t54 41.5q94 72 118 93q5 22 5 42q0 35 -19.5 51t-61.5 16q-53 0 -124 -10l-5 39l12 101q75 19 152 19q91 0 144.5 -40t53.5 -110q0 -72 -37 -127t-122 -122l-42 -31l167 38h41l-11 -157h-371z" />
    <glyph glyph-name="three" unicode="3" horiz-adv-x="473" 
d="M53.5 -145.5q-40.5 10.5 -70.5 28.5l58 140h44q56 -27 134 -27q65 0 88 22q1 54 -24 81.5t-78 32.5l-67 6q-36 2 -54 4q8 74 21 119q68 8 90 12t37 11q8 30 9 57q-1 33 -20.5 46t-68.5 13q-58 0 -124 -15l1 46l20 96q72 22 152 22q90 0 145.5 -37.5t55.5 -100.5
q0 -35 -16 -70t-49 -75q56 -16 82 -51.5t26 -95.5q0 -77 -40.5 -140t-111 -99t-155.5 -36q-44 0 -84.5 10.5z" />
    <glyph glyph-name="four" unicode="4" horiz-adv-x="595" 
d="M313 35h-272l-26 106l269 413l183 -20l8 -348h95v-39l-25 -112h-67l4 -160l-121 -18h-48v178zM313 186v213l-135 -213h135z" />
    <glyph glyph-name="five" unicode="5" horiz-adv-x="502" 
d="M28 -116l53 136h40q53 -28 135 -28q59 0 84 23q1 53 -22.5 81t-72.5 33q24 -2 -116 8l-56 3l-22 259q-1 29 5 66t16 73h222q23 0 30 2.5t19 16.5l19 24l78 -21q-7 -82 -21 -181h-238v-84l29 -2q68 -4 113.5 -11.5t77.5 -27.5q72 -43 72 -139q0 -76 -38.5 -138
t-105.5 -97.5t-150 -35.5q-94 0 -151 40z" />
    <glyph glyph-name="six" unicode="6" horiz-adv-x="564" 
d="M150 9q-54 29 -83 83t-29 125q0 61 15.5 113t58.5 131q18 35 46 75.5t101 138.5l172 12l9 -40l-196 -225l89 20q89 -11 141.5 -65.5t52.5 -134.5q0 -73 -33 -133t-90.5 -94.5t-127.5 -34.5q-72 0 -126 29zM363 120q1 8 1 33q0 84 -26.5 124t-82.5 40q-31 0 -55 -4
q-1 -10 -1 -37q0 -79 27.5 -121t77.5 -42q35 0 59 7z" />
    <glyph glyph-name="seven" unicode="7" horiz-adv-x="499" 
d="M60 -99l280 486l-170 -4l-76 -75l-66 8l22 222h424l13 -97l-241 -584h-186v44z" />
    <glyph glyph-name="eight" unicode="8" horiz-adv-x="591" 
d="M101.5 28q-63.5 48 -65.5 140q0 58 25.5 102.5t73.5 73.5q-39 30 -54.5 63t-15.5 82q0 58 29.5 103t83.5 70t124 25q105 0 163.5 -47.5t58.5 -133.5q0 -47 -16.5 -87t-47.5 -66q50 -29 72 -68t22 -97q0 -62 -33 -109t-93 -73t-140 -26q-123 0 -186.5 48zM367 493
q0 40 -24 59.5t-74 19.5q-8 0 -30 -2q-5 -8 -9 -26t-4 -30q0 -22 9 -37t33.5 -30t76.5 -39q22 47 22 85zM365 100q19 33 19 68q-1 23 -16 39.5t-41.5 30t-80.5 36.5l-18 8q-12 -19 -19.5 -44.5t-7.5 -48.5q0 -94 114 -94q17 0 50 5z" />
    <glyph glyph-name="nine" unicode="9" horiz-adv-x="564" 
d="M125 -118l196 227l-89 -20q-88 11 -141 65t-53 135q0 73 33 132.5t90 93.5t127 34q72 0 126 -29t83.5 -82t29.5 -124q0 -61 -16 -113.5t-58 -130.5q-19 -36 -49 -80.5t-97 -134.5l-173 -11zM364 218q1 10 1 36q0 78 -27 121t-76 43q-35 0 -60 -6q-1 -9 -1 -35
q0 -84 26.5 -123.5t82.5 -39.5q31 0 54 4z" />
    <glyph glyph-name="colon" unicode=":" horiz-adv-x="344" 
d="M75 456l155 40l40 -141l-154 -41zM77 111l155 40l40 -141l-154 -41z" />
    <glyph glyph-name="semicolon" unicode=";" horiz-adv-x="277" 
d="M42 456l155 40l40 -141l-154 -41zM105 -79.5q8 22.5 8 34.5q0 11 -4.5 19.5t-15.5 18.5l-53 53q43 75 106 119q30 -22 55 -51q34 -37 34 -76q0 -19 -5.5 -35.5t-19.5 -51.5q-25 -54 -65 -123h-77q29 70 37 92.5z" />
    <glyph glyph-name="less" unicode="&#x3c;" horiz-adv-x="669" 
d="M100 231v69l469 207v-135l-328 -107l328 -106v-137z" />
    <glyph glyph-name="equal" unicode="=" horiz-adv-x="611" 
d="M80 424h451v-112h-451v112zM80 220h451v-110h-451v110z" />
    <glyph glyph-name="greater" unicode="&#x3e;" horiz-adv-x="669" 
d="M100 159l328 106l-328 107v135l469 -207v-69l-469 -209v137z" />
    <glyph glyph-name="question" unicode="?" horiz-adv-x="377" 
d="M99 286q0 46 43 102l36 46q1 34 -11 51.5t-36 26t-80 21.5l-36 9l2 30q38 74 81 130q121 -20 183 -53.5t62 -97.5q0 -37 -18.5 -66.5t-53.5 -66.5l-18 -20q-18 -20 -26 -33.5t-8 -26.5t7.5 -27.5t27.5 -43.5q-55 -40 -126 -77q-29 56 -29 96zM79 107l149 39l37 -138
l-148 -40z" />
    <glyph glyph-name="at" unicode="@" horiz-adv-x="877" 
d="M650 599q73 -32 117.5 -98.5t44.5 -165.5q0 -76 -26 -132.5t-71.5 -86.5t-100.5 -30q-72 0 -128 40q-42 -35 -97 -35q-56 0 -82.5 35.5t-26.5 99.5q0 95 53.5 153t155.5 58q57 0 113 -20l-42 -239q29 -15 62 -15q50 0 73 43t23 109q0 122 -66 182t-170 60q-91 0 -161 -45
t-108.5 -120.5t-38.5 -164.5q0 -120 72 -185t209 -66l-10 -75q-104 0 -189.5 30.5t-138 100t-52.5 178.5q0 113 55 209.5t152.5 154t217.5 57.5q87 0 160 -32zM421 174q17 0 45 14l28 165q-21 7 -45 7q-18 0 -42 -6q-8 -21 -15.5 -61t-7.5 -65q0 -54 37 -54z" />
    <glyph glyph-name="A" unicode="A" horiz-adv-x="712" 
d="M16 89l31 19l234 567l170 15l200 -540q10 -26 14 -34t15 -22l18 -23l-6 -71h-281l-10 95l71 18l-32 101l-203 -3l-22 -63q-3 -9 -3 -15q0 -7 2.5 -10.5t8.5 -5.5l69 -29l-10 -88h-262zM343 519l-66 -192l129 -6z" />
    <glyph glyph-name="B" unicode="B" horiz-adv-x="648" 
d="M42 4l-5 98l73 20v381q0 26 -4 34.5t-21 15.5l-52 29l6 83q162 21 278 21q142 0 208 -42t66 -133q0 -45 -14 -79.5t-43 -62.5q100 -45 100 -146q0 -90 -50 -145t-147 -72q-36 -10 -179 -10q-108 0 -216 8zM415 488q0 42 -19.5 62t-59.5 22q-26 0 -52 -2v-167q17 1 44 1
q41 0 77 -3q10 26 10 87zM444 130q10 40 10 71q0 50 -26 71t-88 21q-13 0 -33 -2l-23 -1v-163q35 -7 79 -7q57 0 81 10z" />
    <glyph glyph-name="C" unicode="C" horiz-adv-x="643" 
d="M107 78q-82 93 -82 263q0 108 39.5 186.5t114.5 120t178 41.5q117 0 241 -53q-9 -90 -29 -199l-76 -5l-69 101q-44 13 -97 13q-40 0 -76 -7q-16 -31 -26 -82t-10 -103q0 -111 40.5 -164.5t128.5 -55.5q35 0 88.5 10.5t104.5 27.5l31 -110q-52 -34 -125.5 -55.5
t-141.5 -21.5q-152 0 -234 93z" />
    <glyph glyph-name="D" unicode="D" horiz-adv-x="735" 
d="M42 6l-5 96l73 20v381q0 26 -4 34.5t-21 15.5l-52 29l6 83q104 8 175 12.5t114 4.5q138 0 221.5 -32t122 -101t38.5 -183q0 -144 -66 -233q-59 -77 -156.5 -106.5t-246.5 -29.5q-108 0 -199 9zM500 160q9 25 16.5 78t7.5 99q0 113 -46.5 167t-141.5 54q-13 0 -24 -1
t-21 -2v-410q40 -5 76 -5q84 0 133 20z" />
    <glyph glyph-name="E" unicode="E" horiz-adv-x="623" 
d="M27 102l73 20v383q0 26 -4 34.5t-21 15.5l-50 29l3 90h543q7 -105 7 -205l-74 -5l-71 88l-151 4v-163l213 18v-154l-213 23v-161l166 3l77 88l74 -5q-4 -105 -15 -205h-552z" />
    <glyph glyph-name="F" unicode="F" horiz-adv-x="608" 
d="M27 102l73 20v383q0 26 -4 34.5t-21 15.5l-50 29l3 90h543q7 -105 7 -205l-74 -5l-71 88l-151 4v-178l213 19v-154l-213 23v-104q0 -24 3.5 -31t18.5 -14l60 -36l-3 -81h-329z" />
    <glyph glyph-name="G" unicode="G" horiz-adv-x="676" 
d="M110 77q-85 89 -85 264q0 107 41 184.5t119 118.5t185 41q130 0 253 -52q-10 -96 -28 -192l-76 -5l-63 92q-50 18 -124 18q-35 0 -84 -7q-18 -30 -28 -80t-10 -108q0 -115 46 -171.5t143 -57.5q24 0 61 4v73q0 20 -3 26t-17 14l-38 19l4 68l23 4q11 2 78 12.5t112 12.5
q10 -19 15 -43v-262q-58 -29 -129 -45.5t-141 -16.5q-169 0 -254 89z" />
    <glyph glyph-name="H" unicode="H" horiz-adv-x="765" 
d="M27 105l63 17v383q0 26 -3.5 34.5t-19.5 15.5l-42 24l3 95h312l5 -102l-74 -20v-146l228 6v93q0 26 -4 34.5t-21 15.5l-49 28l5 91h307l4 -105l-61 -17v-390q0 -24 3.5 -31t17.5 -14l41 -24l-4 -93h-304l-5 103l70 19v149l-228 10v-119q0 -24 3.5 -31t18.5 -14l53 -31
l-4 -86h-310z" />
    <glyph glyph-name="I" unicode="I" horiz-adv-x="388" 
d="M32 102l73 20v383q0 26 -4 34.5t-21 15.5l-52 30l5 89h321l4 -102l-72 -20v-390q0 -24 3.5 -31t18.5 -14l51 -31l-3 -86h-319z" />
    <glyph glyph-name="J" unicode="J" horiz-adv-x="378" 
d="M87 -69q-29 21 -67 62l81 98v414q0 26 -4 34.5t-21 15.5l-51 30l4 89h321l5 -102l-73 -20v-320q0 -106 -17 -173.5t-61 -135.5l-31 -44q-57 31 -86 52z" />
    <glyph glyph-name="K" unicode="K" horiz-adv-x="703" 
d="M27 105l63 17v383q0 26 -3.5 34.5t-19.5 15.5l-42 24l3 95h312l5 -102l-74 -20v-188l175 189q4 4 4 11q0 5 -3 9l-29 35l11 66h232l12 -68l-229 -245l245 -316v-45h-191l-227 301v-139q0 -22 3.5 -30t18.5 -16l53 -30l-4 -86h-310z" />
    <glyph glyph-name="L" unicode="L" horiz-adv-x="584" 
d="M27 105l63 17v383q0 26 -3.5 34.5t-19.5 15.5l-42 24l3 95h312l5 -102l-74 -20v-432l126 3l85 97l77 -4q-2 -84 -14 -216h-513z" />
    <glyph glyph-name="M" unicode="M" horiz-adv-x="952" 
d="M228 442l-22 -296v-4q0 -19 14 -25l62 -26l-10 -91h-249l-10 89l46 28l57 386q1 7 1 17q0 12 -5.5 18t-20.5 15l-46 26l6 95h287l143 -466l142 466h268l4 -105l-64 -16l54 -392q3 -20 8.5 -31t25.5 -36l21 -27l-6 -67h-298l-9 92l82 21l-34 335l-128 -452l-171 -15z" />
    <glyph glyph-name="N" unicode="N" horiz-adv-x="748" 
d="M205 426l17 -262q1 -23 5 -30t18 -15l52 -35l-4 -84h-260l-5 109l54 13l4 394q0 19 -3 26t-14 16l-37 28l7 88h207l302 -387l-14 223q-1 24 -5 31t-18 15l-52 34l3 84h258l4 -102l-51 -22l-4 -541l-115 -38z" />
    <glyph glyph-name="O" unicode="O" horiz-adv-x="722" 
d="M106.5 70q-81.5 84 -81.5 255q0 111 41 192.5t117 125.5t181 44q334 0 334 -341q0 -112 -41 -193t-118.5 -124t-184.5 -43q-166 0 -247.5 84zM484 153q11 31 17 77.5t6 91.5q0 111 -41.5 168t-121.5 57q-57 0 -110 -21q-11 -19 -17 -62.5t-6 -99.5q0 -116 42 -178
t122 -62q57 0 109 29z" />
    <glyph glyph-name="P" unicode="P" horiz-adv-x="647" 
d="M37 102l73 20v381q0 26 -4 34.5t-21 15.5l-52 29l6 81q76 12 144 17.5t146 5.5q108 0 173.5 -23t96 -72t30.5 -130q0 -105 -75.5 -165t-206.5 -60l-55 2v-76q0 -24 3.5 -31t17.5 -14l61 -36l-4 -81h-328zM435 358q11 49 11 103q0 59 -22.5 84t-72.5 25q-17 0 -59 -4v-213
q27 -6 64 -6q54 0 79 11z" />
    <glyph glyph-name="Q" unicode="Q" horiz-adv-x="740" 
d="M421 -9q-35 -5 -67 -5q-166 0 -247.5 84t-81.5 255q0 111 41 192.5t117 125.5t181 44q334 0 334 -341q0 -158 -78 -251l111 5v-136h-65zM430.5 131q25.5 7 53.5 22q11 31 17 77.5t6 91.5q0 111 -41.5 168t-121.5 57q-56 0 -110 -21q-11 -19 -16.5 -62t-5.5 -100
q0 -116 41.5 -178t121.5 -62q30 0 55.5 7z" />
    <glyph glyph-name="R" unicode="R" horiz-adv-x="674" 
d="M37 102l73 20v381q0 26 -4 34.5t-21 15.5l-52 29l6 82q150 22 289 22q108 0 174 -21.5t96.5 -67t30.5 -120.5q0 -62 -32 -108.5t-91 -71.5l160 -258l-1 -39h-182l-148 267l-44 1v-112q0 -24 3.5 -30.5t17.5 -14.5l43 -25l-4 -86h-309zM433 390q10 36 10 86t-21.5 71
t-71.5 21q-28 0 -57 -3v-179q26 -6 62 -6q53 0 78 10z" />
    <glyph glyph-name="S" unicode="S" horiz-adv-x="571" 
d="M28 22q5 99 16 184l77 15l50 -85q60 -21 106 -21q16 0 68 9q2 20 2 27q0 24 -8 36.5t-35 28t-97 46.5q-86 42 -124 90.5t-38 114.5q0 103 70 161t192 58q59 0 117.5 -11.5t102.5 -31.5q-2 -56 -9 -139l-3 -43l-73 -11l-76 97q-36 11 -90 11q-34 0 -51 -6q-5 -20 -5 -31
q0 -22 11 -38.5t39 -34t83 -43.5q80 -38 121 -67t57.5 -60.5t16.5 -76.5q0 -99 -79 -156t-218 -57q-110 0 -223 34z" />
    <glyph glyph-name="T" unicode="T" horiz-adv-x="699" 
d="M172 98l87 24v433l-84 -7l-74 -89l-73 6q0 83 8 209h626q8 -126 8 -209l-72 -6l-75 89l-82 7v-393q0 -24 3 -31t17 -14l62 -37l-4 -80h-342z" />
    <glyph glyph-name="U" unicode="U" horiz-adv-x="753" 
d="M148.5 64.5q-68.5 77.5 -68.5 243.5v197q0 26 -3.5 34.5t-19.5 15.5l-32 19l3 100h312l5 -99l-83 -23v-205q0 -104 30 -164t103 -60q24 0 46.5 7t38.5 19q10 23 14 61.5t4 103.5v191q0 26 -4 34.5t-21 15.5l-49 28l5 91h297l5 -108l-52 -14v-226q0 -161 -82.5 -250
t-232.5 -89q-147 0 -215.5 77.5z" />
    <glyph glyph-name="V" unicode="V" horiz-adv-x="723" 
d="M58 557l-33 47l4 70h288l10 -95l-71 -18l133 -379l119 345q3 8 3 14q0 13 -12 17l-69 28l7 88h261l6 -85l-44 -56l-218 -536l-172 -15z" />
    <glyph glyph-name="W" unicode="W" horiz-adv-x="1092" 
d="M59 557l-34 47l4 70h287l6 -95l-72 -19l124 -387l99 308l-44 129l4 64h266l6 -95l-66 -19l123 -387l115 354q3 8 3 14q0 13 -13 17l-68 28l6 88h262l5 -85l-41 -56l-210 -537l-175 -17l-105 306l-108 -289l-185 -17z" />
    <glyph glyph-name="X" unicode="X" horiz-adv-x="700" 
d="M356 90l52 13l-102 137l-74 -106q-4 -5 -4 -11q0 -7 11 -16l35 -28l-7 -76h-242l-5 86l24 23l189 225l-161 217l-50 60l3 60h310l11 -90l-53 -13l97 -130l71 103q3 5 3 9q0 8 -10 17l-36 27l7 77h243l6 -86l-25 -23l-186 -222l167 -223l50 -60l-4 -60h-314z" />
    <glyph glyph-name="Y" unicode="Y" horiz-adv-x="673" 
d="M160 98l86 24v132l-183 293l-46 57l4 70h293l10 -95l-65 -18l105 -178l87 147q4 7 4 14q0 11 -12 16l-58 26l7 88h252l7 -94l-40 -24l-184 -270v-124q0 -24 3.5 -31t17.5 -14l62 -37l-4 -80h-341z" />
    <glyph glyph-name="Z" unicode="Z" horiz-adv-x="625" 
d="M28 124l313 417l-141 -10l-79 -86l-79 15l27 214h502l10 -114l-322 -427l193 12l70 89l84 -19q-17 -148 -27 -215h-544z" />
    <glyph glyph-name="bracketleft" unicode="[" horiz-adv-x="320" 
d="M70 789h210v-91h-88v-818h88v-91h-210v1000z" />
    <glyph glyph-name="backslash" unicode="\" horiz-adv-x="307" 
d="M3 754h67l234 -815h-68z" />
    <glyph glyph-name="bracketright" unicode="]" horiz-adv-x="319" 
d="M39 -120h88v818h-88v91h210v-1000h-210v91z" />
    <glyph glyph-name="asciicircum" unicode="^" horiz-adv-x="616" 
d="M254 674h117l190 -399h-136l-113 292l-124 -292h-133z" />
    <glyph glyph-name="underscore" unicode="_" horiz-adv-x="490" 
d="M0 -66h490v-94h-490v94z" />
    <glyph glyph-name="grave" unicode="`" horiz-adv-x="570" 
d="M124 715v41h180l95 -173h-86z" />
    <glyph glyph-name="a" unicode="a" horiz-adv-x="554" 
d="M61 24.5q-41 37.5 -41 96.5q0 79 79.5 124t231.5 51q0 47 -7.5 69.5t-27 31t-59.5 8.5q-41 0 -58 -3l-41 -81l-74 5q-17 80 -24 166q56 19 122.5 30t124.5 11q106 0 152 -41.5t46 -137.5v-209q0 -18 3.5 -25t15.5 -14l40 -23l-4 -62q-116 -27 -183 -30q-2 6 -6 21.5
t-7 29.5q-39 -25 -85.5 -40t-88.5 -15q-68 0 -109 37.5zM334 127l-4 76q-24 2 -32 2q-27 0 -63 -5.5t-57 -12.5q-3 -13 -3 -24q0 -30 16.5 -46.5t45.5 -16.5q40 0 97 27z" />
    <glyph glyph-name="b" unicode="b" horiz-adv-x="565" 
d="M143 -0.5q-55 11.5 -102 30.5v562q0 22 -3 28.5t-16 14.5l-47 23l5 76q93 16 141 23t75 8q10 -21 14 -52v-200q57 20 113 20q105 0 164.5 -66.5t59.5 -190.5q0 -137 -75.5 -212.5t-218.5 -75.5q-55 0 -110 11.5zM358 127q8 27 13 63t5 70q0 154 -103 154q-26 0 -63 -9
v-275q26 -13 78 -13q47 0 70 10z" />
    <glyph glyph-name="c" unicode="c" horiz-adv-x="504" 
d="M79 58.5q-64 71.5 -64 197.5q0 131 68.5 204t187.5 73q90 0 193 -41q-2 -29 -9 -76.5t-15 -87.5l-67 -6l-62 79q-25 5 -56 5q-25 0 -46 -3q-23 -44 -23 -124q0 -82 29 -121.5t88 -39.5q28 0 68 8.5t82 24.5l24 -100q-40 -28 -99.5 -46t-118.5 -18q-116 0 -180 71.5z" />
    <glyph glyph-name="d" unicode="d" horiz-adv-x="589" 
d="M69 59q-54 72 -54 193q0 139 73.5 210t209.5 71q8 0 52 -2v60q0 22 -3 29t-17 15l-45 23l5 76q96 17 142 23.5t73 7.5q9 -23 13 -52v-569q0 -18 3.5 -25t16.5 -14l38 -23l-4 -62q-98 -25 -192 -30q-7 19 -14 46q-68 -49 -147 -49q-96 0 -150 72zM351 137v259
q-30 13 -77 13q-38 0 -73 -10q-8 -19 -12.5 -52t-4.5 -73q0 -82 22.5 -120.5t70.5 -38.5q33 0 74 22z" />
    <glyph glyph-name="e" unicode="e" horiz-adv-x="521" 
d="M78.5 59q-63.5 71 -63.5 196q0 87 31 149.5t88 95.5t133 33q113 0 173.5 -72t57.5 -205l-304 -56q14 -42 39.5 -61.5t67.5 -19.5q29 0 69 8.5t81 23.5l23 -99q-37 -28 -96 -46t-119 -18q-117 0 -180.5 71zM334 340q-2 38 -21.5 55.5t-54.5 17.5q-29 0 -55 -8
q-21 -49 -19 -106z" />
    <glyph glyph-name="f" unicode="f" horiz-adv-x="405" 
d="M25 92l70 21v293l-70 1v98l70 4v65q0 91 53 141t154 50q52 0 126 -13l-23 -136q-44 12 -76.5 16.5t-65.5 3.5v-118l114 7v-123l-114 2v-258q0 -21 3 -28t17 -15l62 -34l-3 -69h-314z" />
    <glyph glyph-name="g" unicode="g" horiz-adv-x="572" 
d="M58.5 -192q-58.5 36 -58.5 106q0 74 68 130q-21 21 -21 46q0 36 47 102q-82 43 -82 148q0 92 62.5 142.5t180.5 50.5q83 0 136 -25l120 37h47v-145h-78q5 -25 5 -49q0 -92 -62 -140t-182 -48q-41 0 -74 6v-14q0 -16 13.5 -22.5t58.5 -12.5l90 -13q106 -15 146.5 -52
t40.5 -95q0 -90 -74 -139t-210 -49q-115 0 -173.5 36zM304 267q4 12 7.5 36t3.5 44q0 45 -19.5 67t-60.5 22q-20 0 -44 -6q-5 -12 -8.5 -35t-3.5 -44q0 -46 19 -68t58 -22q21 0 48 6zM348 -107q6 12 6 32q0 24 -17 36.5t-61 18.5l-32 5q-44 5 -89 14q-6 -27 -6 -43
q0 -36 32 -53.5t97 -17.5q46 0 70 8z" />
    <glyph glyph-name="h" unicode="h" horiz-adv-x="660" 
d="M26 95l62 18v479q0 22 -3 28.5t-16 14.5l-44 23l3 76l31 5q132 24 185 26q9 -24 13 -52v-228q55 25 93.5 36.5t76.5 11.5q156 0 156 -190v-197q0 -21 3 -28t17 -15l48 -28l-4 -75h-276l-5 95l49 14v190q0 44 -2.5 62.5t-16.5 28.5t-47 10q-32 0 -92 -11v-243q0 -21 3 -28
t16 -15l49 -28l-4 -75h-290z" />
    <glyph glyph-name="i" unicode="i" horiz-adv-x="347" 
d="M67 740l170 45l41 -152l-169 -46zM25 92l70 21v243q0 22 -3.5 28.5t-17.5 14.5l-44 24l5 75q83 16 128.5 23.5t83.5 8.5q13 -43 16 -64v-320q0 -21 3 -28t17 -15l49 -28l-4 -75h-300z" />
    <glyph glyph-name="j" unicode="j" horiz-adv-x="286" 
d="M36 740l170 45l42 -152l-171 -46zM55 -179.5q-27 20.5 -70 63.5l80 93v379q0 22 -3 28.5t-17 14.5l-45 24l5 75q14 2 20 4q11 2 78.5 14t112.5 14q10 -33 17 -64v-353q0 -102 -15 -170t-57 -129l-28 -41q-51 27 -78 47.5z" />
    <glyph glyph-name="k" unicode="k" horiz-adv-x="619" 
d="M26 95l62 18v479q0 22 -3 28.5t-16 14.5l-44 23l3 76l31 5q132 24 185 26q9 -24 13 -52v-407l111 108q5 5 5 11q0 5 -3 8l-28 35l11 55h222q9 -33 12 -71l-166 -142l193 -266v-44h-176l-181 260v-114q0 -21 3 -28t16 -15l49 -28l-4 -75h-290z" />
    <glyph glyph-name="l" unicode="l" horiz-adv-x="342" 
d="M25 92l70 21v479q0 22 -3.5 28.5t-17.5 14.5l-44 23l5 76q20 4 31 5q132 24 184 26q10 -23 13 -52v-567q0 -21 3 -28t17 -15l49 -28l-4 -75h-300z" />
    <glyph glyph-name="m" unicode="m" horiz-adv-x="964" 
d="M26 95l62 18v243q0 22 -3 28.5t-16 14.5l-44 24l3 75l27 5q123 25 182 27q8 -21 13 -43q54 25 92.5 35.5t70.5 10.5q39 0 73 -14.5t51 -38.5q57 28 102.5 40.5t86.5 12.5q82 0 121 -47t39 -143v-197q0 -21 3 -28t17 -15l48 -28l-4 -75h-272l-5 95l48 14v189
q0 43 -2.5 61.5t-16.5 29t-47 10.5q-26 0 -87 -9q2 -16 2 -47v-197q0 -21 3 -28t18 -15l49 -28l-4 -75h-274l-5 95l48 14v189q0 44 -2.5 62.5t-16.5 28.5t-46 10q-35 0 -85 -9v-244q0 -21 3 -28t16 -15l49 -28l-4 -75h-288z" />
    <glyph glyph-name="n" unicode="n" horiz-adv-x="660" 
d="M26 96l62 18v242q0 22 -3 28.5t-16 14.5l-44 24l3 75l22 4q131 26 189 28q8 -21 13 -46q61 28 99.5 38.5t72.5 10.5q159 0 159 -190v-196q0 -21 3 -28t17 -15l48 -28l-4 -75h-276l-5 95l49 14v189q0 45 -3 63t-16.5 28t-47.5 10q-36 0 -91 -11v-242q0 -21 3 -28t16 -15
l49 -28l-4 -75h-290z" />
    <glyph glyph-name="o" unicode="o" horiz-adv-x="553" 
d="M77.5 52q-62.5 65 -62.5 199q0 86 31.5 150t90.5 98t139 34q259 0 259 -268q0 -131 -70.5 -204.5t-197.5 -73.5t-189.5 65zM318 107.5q15 3.5 32 11.5q6 23 10 59t4 69q0 81 -25.5 123t-75.5 42q-33 0 -67 -9q-7 -15 -11 -48.5t-4 -76.5q0 -84 26.5 -129t75.5 -45
q20 0 35 3.5z" />
    <glyph glyph-name="p" unicode="p" horiz-adv-x="583" 
d="M-2 -120l62 17v459q0 22 -3 28.5t-17 14.5l-45 24l5 75l10 2t11 2q47 9 99.5 17.5t86.5 10.5q9 -21 12 -48q31 25 66.5 38t70.5 13q100 0 153.5 -70.5t53.5 -200.5q0 -135 -74 -206.5t-214 -71.5q-15 0 -47 2v-55q0 -22 3 -29t17 -14l59 -33l-4 -70h-300zM377 121
q8 25 13.5 60.5t5.5 66.5q0 77 -26.5 119t-73.5 42q-29 0 -68 -17v-272q29 -12 73 -12q47 0 76 13z" />
    <glyph glyph-name="q" unicode="q" horiz-adv-x="575" 
d="M265 -126l87 23v106q-58 -16 -105 -16q-117 0 -174.5 69t-57.5 199q0 135 74 206.5t214 71.5q59 0 117 -12t100 -31v-559q0 -22 3 -29t18 -14l31 -18l-4 -85h-300zM309.5 115.5q16.5 4.5 41.5 15.5v260q-33 15 -82 15q-40 0 -67 -10q-8 -18 -13 -51t-5 -72
q0 -79 24 -120.5t68 -41.5q17 0 33.5 4.5z" />
    <glyph glyph-name="r" unicode="r" horiz-adv-x="426" 
d="M27 95l61 18v243q0 22 -3 28.5t-16 14.5l-44 24l3 75q17 4 29 5q121 25 179 27q9 -26 17 -65q60 47 102 65h57q-1 -38 -5 -82.5t-10 -71.5q-36 2 -53 2q-42 0 -87 -5v-227q0 -21 3 -28t16 -15l60 -32l-4 -71h-300z" />
    <glyph glyph-name="s" unicode="s" horiz-adv-x="461" 
d="M28 11q6 98 13 145l57 11l63 -67q33 -10 74 -10q23 0 36 3q3 8 3 22q0 12 -5.5 20t-24.5 19t-66 34q-59 31 -90 55.5t-44.5 50.5t-13.5 62q0 80 59.5 127t161.5 47q42 0 88.5 -9.5t83.5 -25.5q0 -65 -9 -145l-52 -8l-67 72q-26 8 -76 8q-8 0 -32 -2q-3 -6 -3 -19
q0 -14 8 -24.5t28.5 -23t65.5 -35.5q66 -32 99.5 -55.5t47 -47.5t13.5 -58q0 -82 -62.5 -128t-172.5 -46q-79 0 -183 28z" />
    <glyph glyph-name="t" unicode="t" horiz-adv-x="416" 
d="M92 30.5q-42 43.5 -42 132.5v243h-70v73l180 164l58 -7v-113h168v-118h-168v-206q0 -48 13.5 -64t52.5 -16q33 0 92 9l12 -102q-36 -17 -80.5 -28t-85.5 -11q-88 0 -130 43.5z" />
    <glyph glyph-name="u" unicode="u" horiz-adv-x="612" 
d="M87 33.5q-39 47.5 -39 143.5v179q0 22 -3.5 28.5t-17.5 14.5l-45 24l5 75q14 2 20 4q11 2 78.5 14t112.5 14q11 -25 17 -58v-252q0 -44 2.5 -62t16 -27.5t46.5 -9.5q48 0 93 17v218q0 22 -3 28.5t-16 14.5l-44 24l4 75q81 15 126.5 23t83.5 9q11 -25 17 -58v-328
q0 -18 3 -25t14 -14l40 -23l-3 -62q-43 -11 -99 -19.5t-104 -10.5q-4 12 -9 30q-1 8 -5 19h-3q-41 -24 -86.5 -38.5t-82.5 -14.5q-80 0 -119 47.5z" />
    <glyph glyph-name="v" unicode="v" horiz-adv-x="533" 
d="M14 386q-11 27 -15 35t-15 22l-17 22l5 58h252l10 -85l-58 -14l91 -258l88 237q2 6 2 9q0 9 -9 12l-47 20l9 79h190l10 -81l-198 -444l-144 -11z" />
    <glyph glyph-name="w" unicode="w" horiz-adv-x="812" 
d="M20 386q-11 27 -15 35t-15 22l-17 22l5 58h253l10 -85l-55 -13l68 -243l99 333l103 14l114 -356l64 230q2 6 2 9q0 9 -9 12l-48 20l10 79h190l10 -78l-172 -450l-144 -11l-83 278l-91 -267l-144 -11z" />
    <glyph glyph-name="x" unicode="x" horiz-adv-x="580" 
d="M25 75l165 190l-132 172q-10 13 -18 20.5t-11 9.5l5 56h268l5 -77l-40 -9l69 -89l49 70q4 5 4 11q0 7 -6 10l-34 17l5 67h196l5 -76l-154 -184l134 -174q22 -28 30 -36l-5 -53h-276l-5 73l49 12l-73 95l-56 -75q-4 -5 -4 -11q0 -7 6 -10l34 -17l-5 -67h-202z" />
    <glyph glyph-name="y" unicode="y" horiz-adv-x="537" 
d="M51 -105l111 109l-145 382q-11 27 -15 35t-15 22l-17 22l5 58h256l10 -85l-58 -14l82 -251l92 230q2 6 2 9q0 9 -8 12l-47 20l9 79h190l9 -81l-128 -279q-69 -151 -114 -237t-91 -155q-72 48 -128 124z" />
    <glyph glyph-name="z" unicode="z" horiz-adv-x="512" 
d="M25 103l259 305l-121 -9l-51 -68l-67 11q8 116 16 181h403l14 -118l-240 -290l126 9l59 70l69 -14q-5 -76 -19 -180h-439z" />
    <glyph glyph-name="braceleft" unicode="{" horiz-adv-x="369" 
d="M192 -187.5q-35 21.5 -49.5 62.5t-17.5 109q-4 105 -10 148.5t-27.5 65.5t-71.5 26q7 72 19 134q40 8 57.5 30.5t23 64t9.5 142.5q4 102 40 147t124 45h40l-16 -134q-35 0 -48 -7.5t-17 -31.5t-6 -92q-2 -84 -8 -121.5t-25.5 -62t-66.5 -48.5q47 -25 67 -50.5t25.5 -62
t7.5 -120.5q2 -69 6 -92.5t17 -31t48 -7.5h16l-18 -135h-22q-62 0 -97 21.5z" />
    <glyph glyph-name="bar" unicode="|" horiz-adv-x="324" 
d="M120 768h84v-995h-84v995z" />
    <glyph glyph-name="braceright" unicode="}" horiz-adv-x="368" 
d="M56 -75q35 0 47.5 7.5t16.5 31t6 92.5q3 85 9 122t25.5 61.5t65.5 48.5q-47 25 -66.5 50.5t-25 61.5t-8.5 121q-2 69 -6 92.5t-16.5 31t-47.5 7.5h-16l18 135h22q62 0 97 -21.5t49.5 -62.5t17.5 -109q4 -105 10 -148.5t27.5 -65.5t71.5 -26q-6 -71 -19 -134
q-40 -8 -57.5 -30.5t-23 -64t-9.5 -142.5q-4 -102 -40 -147t-124 -45h-40z" />
    <glyph glyph-name="uni00A0" unicode="&#xa0;" horiz-adv-x="206" 
 />
    <glyph glyph-name="exclamdown" unicode="&#xa1;" horiz-adv-x="330" 
d="M68 526l149 40l38 -139l-150 -39zM115 317h104l41 -465l-132 -16h-47z" />
    <glyph glyph-name="cent" unicode="&#xa2;" horiz-adv-x="573" 
d="M446 8.5q-49 -17.5 -101 -23.5l7 -141h-69l6 139q-118 4 -181 78.5t-63 209.5q0 123 65 198t178 83l-5 135h69l-6 -135q84 -6 170 -43q-4 -47 -27 -169l-67 -6l-66 83q-34 6 -61 6t-48 -4q-12 -21 -18.5 -55t-6.5 -71q0 -178 124 -178q27 0 69 10t88 27l25 -102
q-33 -24 -82 -41.5z" />
    <glyph glyph-name="sterling" unicode="&#xa3;" horiz-adv-x="568" 
d="M35 87l75 21l11 139l-71 1l4 57l72 3l7 64q9 87 65.5 135.5t159.5 48.5q61 0 143 -17l-33 -134q-51 16 -87 21.5t-73 4.5l-11 -114l116 7l-7 -81l-115 1l-12 -128h101l61 76l85 -19l-15 -63q-14 -61 -48.5 -85.5t-95.5 -24.5h-334z" />
    <glyph glyph-name="currency" unicode="&#xa4;" horiz-adv-x="646" 
d="M441 89q-55 -35 -118 -35q-66 0 -119 37l-78 -87l-66 63l90 79q-36 50 -36 118q0 66 36 118l-89 80l63 67l81 -92q52 36 118 36q68 0 120 -36l78 90l65 -66l-89 -79q36 -54 36 -118q0 -65 -36 -119l88 -81l-66 -64zM398.5 188.5q31.5 31.5 31.5 75.5t-31.5 75.5
t-75.5 31.5q-43 0 -74.5 -31.5t-31.5 -75.5t31.5 -75.5t74.5 -31.5q44 0 75.5 31.5z" />
    <glyph glyph-name="yen" unicode="&#xa5;" horiz-adv-x="701" 
d="M499 317l132 1v-61l-176 2l-24 -31v-16l200 2v-61l-200 2v-22q0 -15 3 -20.5t16 -14.5l56 -38l-4 -60h-306l-4 74l77 29v55l-199 2v48l189 2l-34 52l-155 1v48l122 2l-80 123l-42 43l6 56h262l9 -76l-54 -22l84 -130l61 98q4 7 4 12q0 7 -9 16l-42 32l6 70h227l7 -75
l-36 -18z" />
    <glyph glyph-name="brokenbar" unicode="&#xa6;" horiz-adv-x="324" 
d="M120 768h84v-346h-84v346zM120 119h84v-346h-84v346z" />
    <glyph glyph-name="section" unicode="&#xa7;" horiz-adv-x="563" 
d="M319 250l1 17q0 13 -7 22t-25.5 20t-64.5 35q-59 31 -90 55.5t-44.5 50.5t-13.5 62q0 81 59 127.5t162 46.5q42 0 88.5 -10t83.5 -25q0 -66 -9 -145l-53 -8l-66 72q-26 8 -77 8q-9 0 -31 -2q-3 -6 -3 -19t8 -23.5t29 -24t65 -35.5q66 -32 99.5 -55.5t46.5 -47t13 -58.5
q0 -32 -8.5 -62t-24.5 -51q-54 15 -138 50zM73 -127q6 94 12 145l58 11l63 -67q33 -10 73 -10q24 0 37 3q3 7 3 22q0 12 -6 20t-24.5 18.5t-65.5 34.5q-59 31 -90 55.5t-44.5 50.5t-13.5 62q0 66 24 105q76 -23 128 -46q-1 -3 -1 -11q0 -17 9 -28t29 -23t67 -35
q66 -32 99.5 -55.5t46.5 -47.5t13 -58q0 -82 -62 -127.5t-173 -45.5q-81 0 -182 27z" />
    <glyph glyph-name="dieresis" unicode="&#xa8;" horiz-adv-x="570" 
d="M80 713l141 38l34 -125l-141 -38zM317 713l140 38l34 -125l-140 -38z" />
    <glyph glyph-name="copyright" unicode="&#xa9;" horiz-adv-x="736" 
d="M210.5 3q-71.5 42 -113.5 114t-42 157t42 156.5t113.5 113.5t156.5 42q86 0 158 -42t114 -113.5t42 -156.5t-42 -157t-114 -114t-158 -42q-85 0 -156.5 42zM461 48q45 12 80 33q52 74 52 171q0 71 -28.5 130.5t-80.5 95t-121 35.5q-43 0 -88.5 -13t-80.5 -33
q-53 -76 -53 -172q0 -70 28.5 -129.5t81 -94.5t121.5 -35q44 0 89 12zM260.5 159q-36.5 41 -36.5 114q0 75 39 116t109 41q59 0 108 -23l-13 -88l-35 -2l-30 44q-20 7 -43 7q-20 0 -34 -5q-8 -13 -12.5 -35.5t-4.5 -46.5q0 -96 76 -96q17 0 40.5 4t45.5 11l15 -48
q-24 -15 -57.5 -24.5t-63.5 -9.5q-67 0 -103.5 41z" />
    <glyph glyph-name="ordfeminine" unicode="&#xaa;" horiz-adv-x="397" 
d="M70 391q-24 22 -24 58q0 45 47.5 71.5t133.5 27.5q0 28 -4 41t-15.5 17.5t-36.5 4.5q-22 0 -31 -1l-25 -46l-43 2q-11 59 -14 96q32 12 71 18.5t76 6.5q59 0 85 -24.5t26 -79.5v-122q0 -10 2 -13.5t10 -8.5l23 -14l-3 -36q-62 -15 -105 -19l-9 33q-21 -16 -48 -25t-52 -9
q-40 0 -64 22zM228 451l-1 44h-18q-18 0 -39 -3t-30 -7q-3 -6 -3 -14q0 -17 9 -26.5t25 -9.5q23 0 57 16zM43 312h311v-48h-311v48z" />
    <glyph glyph-name="guillemotleft" unicode="&#xab;" horiz-adv-x="499" 
d="M20 277l147 215l76 -13l-91 -202l83 -205l-80 -13zM236 277l147 215l77 -13l-92 -202l84 -205l-81 -13z" />
    <glyph glyph-name="logicalnot" unicode="&#xac;" horiz-adv-x="637" 
d="M446 277h-366v107h477l-2 -244h-109v137z" />
    <glyph glyph-name="uni00AD" unicode="&#xad;" horiz-adv-x="462" 
d="M88 339l244 33h52v-132h-296v99z" />
    <glyph glyph-name="registered" unicode="&#xae;" horiz-adv-x="524" 
d="M154 290.5q-49 28.5 -77.5 77.5t-28.5 108t28.5 108.5t77.5 78t108 28.5t108 -28.5t77.5 -78t28.5 -108.5t-28.5 -108t-77.5 -77.5t-108 -28.5t-108 28.5zM326 321q31 9 55 23q17 26 26.5 56t9.5 61q0 49 -19.5 90t-55 65.5t-83.5 24.5q-30 0 -61 -9t-55 -23
q-36 -51 -36 -116q0 -49 19.5 -90.5t55.5 -66t83 -24.5q30 0 61 9zM175 410l21 7v113q0 7 -1.5 9.5t-6.5 4.5l-15 8l2 25q54 7 86 7q47 0 68 -14.5t21 -47.5q0 -18 -9.5 -32t-27.5 -21l48 -76l-1 -13h-56l-46 80h-8v-33q0 -6 0.5 -9.5t4.5 -5.5l14 -6l-3 -26h-90zM291 497
q3 9 3 25q0 15 -6 21t-22 6q-12 0 -15 -1v-53q6 -1 18 -1q16 0 22 3z" />
    <glyph glyph-name="macron" unicode="&#xaf;" horiz-adv-x="570" 
d="M131 721l306 -12v-90l-306 -9v111z" />
    <glyph glyph-name="degree" unicode="&#xb0;" horiz-adv-x="399" 
d="M78.5 442.5q-38.5 35.5 -38.5 96.5q0 70 48.5 108.5t121.5 38.5q71 0 109.5 -36.5t38.5 -97.5q0 -70 -48.5 -107.5t-121.5 -37.5q-71 0 -109.5 35.5zM248 478q10 28 10 63q0 80 -67 80q-17 0 -42 -6q-7 -23 -7 -59q0 -86 69 -86q21 0 37 8z" />
    <glyph glyph-name="plusminus" unicode="&#xb1;" horiz-adv-x="562" 
d="M229 318h-149v95h149v136h105v-136h148v-95h-148v-135h-105v135zM80 101l402 1v-102h-402v101z" />
    <glyph glyph-name="uni00B2" unicode="&#xb2;" horiz-adv-x="380" 
d="M60 486l69 54q53 40 80 62q3 9 3 30q0 23 -13.5 33t-41.5 10q-33 0 -81 -7l-3 27l10 66q52 14 99 14q61 0 96 -27.5t35 -75.5q0 -47 -29.5 -83.5t-102.5 -94.5l113 19h26l-6 -105h-252z" />
    <glyph glyph-name="uni00B3" unicode="&#xb3;" horiz-adv-x="399" 
d="M60 420l38 81h27q39 -13 77 -13q31 0 49 10q0 27 -13 40t-43 15l-30 2q-7 0 -18 0.5t-27 2.5q5 23 20 67l26 3q40 6 43 7q1 7 1 18q0 18 -8.5 24.5t-28.5 6.5q-40 0 -79 -7l-4 21l7 62q54 18 96 18q53 0 86.5 -22t33.5 -57q0 -33 -37 -74q33 -11 48 -30t15 -51
q0 -41 -24.5 -74.5t-67 -53t-92.5 -19.5q-55 0 -95 23z" />
    <glyph glyph-name="acute" unicode="&#xb4;" horiz-adv-x="570" 
d="M274 756h180v-41l-188 -132h-87z" />
    <glyph glyph-name="uni00B5" unicode="&#xb5;" horiz-adv-x="664" 
d="M89 356q0 22 -3 28.5t-17 14.5l-44 24l4 75q14 2 44 8q43 8 89.5 15.5t76.5 8.5q12 -27 16 -58v-267q0 -34 4 -51t18 -25.5t44 -8.5q44 0 93 18v218q0 23 -2.5 29.5t-16.5 13.5l-45 24l5 75l43 8q44 8 91 15.5t76 8.5q9 -21 16 -58v-328q0 -19 3.5 -26t16.5 -13l39 -23
l-4 -63q-45 -11 -100 -19t-103 -10q-3 8 -7.5 24.5t-6.5 24.5h-3q-38 -23 -81 -37.5t-80 -15.5v-188l-132 -25h-34v583z" />
    <glyph glyph-name="paragraph" unicode="&#xb6;" horiz-adv-x="591" 
d="M275 259h-9q-102 0 -156.5 52t-54.5 158q0 104 54 154.5t157 50.5h235v-819h-72v747h-82v-747h-72v404z" />
    <glyph glyph-name="periodcentered" unicode="&#xb7;" horiz-adv-x="268" 
d="M49 371l135 37l35 -124l-135 -36z" />
    <glyph glyph-name="cedilla" unicode="&#xb8;" horiz-adv-x="570" 
d="M176 -190q36 0 66 6t44 16q2 12 2 19q0 17 -15 24t-64 13v20l33 113h78l-39 -56q24 -5 56 -14q30 -11 45 -26t15 -42q0 -53 -56.5 -81.5t-154.5 -28.5z" />
    <glyph glyph-name="uni00B9" unicode="&#xb9;" horiz-adv-x="365" 
d="M60 477l71 14v150q0 13 -2 16.5t-14 10.5l-55 29l6 45l123 37l55 -5v-263q0 -14 2 -18.5t11 -9.5l48 -23l-2 -52h-241z" />
    <glyph glyph-name="ordmasculine" unicode="&#xba;" horiz-adv-x="398" 
d="M84 407q-36 38 -36 116q0 76 41 120t112 44q149 0 149 -155q0 -77 -41 -120t-114 -43q-75 0 -111 38zM243 446q8 29 8 74q0 97 -59 97q-15 0 -39 -7q-3 -8 -5.5 -28t-2.5 -42q0 -102 60 -102q16 0 38 8zM44 312h311v-48h-311v48z" />
    <glyph glyph-name="guillemotright" unicode="&#xbb;" horiz-adv-x="499" 
d="M47 72l83 205l-91 202l77 13l147 -215l-136 -218zM264 72l83 205l-91 202l76 13l147 -215l-135 -218z" />
    <glyph glyph-name="onequarter" unicode="&#xbc;" horiz-adv-x="869" 
d="M585 702h58l-366 -789h-58zM60 358l71 14v150q0 13 -2 16.5t-14 10.5l-55 30l6 45l123 36l55 -5v-262q0 -15 2 -19.5t11 -9.5l48 -23l-2 -51h-241zM653 63h-161l-16 70l150 229l122 -11l4 -195h57l-14 -93h-43v-63l-77 -16h-22v79zM653 156v120l-70 -120h70z" />
    <glyph glyph-name="onehalf" unicode="&#xbd;" horiz-adv-x="859" 
d="M585 702h58l-366 -789h-58zM60 358l71 14v150q0 13 -2 16.5t-14 10.5l-55 30l6 45l123 36l55 -5v-262q0 -15 2 -19.5t11 -9.5l48 -23l-2 -51h-241zM536 77q2 2 70 54q47 34 82 63q4 12 4 29q0 23 -13 33t-40 10q-32 0 -83 -6l-2 26l8 67q55 13 102 13q60 0 95 -26.5
t35 -72.5q0 -50 -30.5 -89t-105.5 -94l114 21h27l-9 -105h-251z" />
    <glyph glyph-name="threequarters" unicode="&#xbe;" horiz-adv-x="872" 
d="M588 702h58l-366 -789h-58zM60 303l36 80h29q33 -13 76 -13q31 0 50 9q0 27 -14 41t-44 16q-9 0 -30.5 1t-42.5 3q6 29 18 66q48 6 70 11q1 7 1 18q0 18 -8.5 24.5t-28.5 6.5q-39 0 -79 -7l-4 22l6 61q54 18 96 18q54 0 88 -21.5t34 -56.5q0 -32 -38 -76q33 -9 47.5 -28
t14.5 -52q0 -41 -24.5 -75t-66 -53.5t-91.5 -19.5q-53 0 -95 25zM655 63h-160l-16 70l150 229l121 -11l5 -195h57l-15 -93h-42v-63l-78 -16h-22v79zM655 156v120l-69 -120h69z" />
    <glyph glyph-name="questiondown" unicode="&#xbf;" horiz-adv-x="377" 
d="M113 525l148 40l38 -139l-149 -39zM97 -115.5q-62 33.5 -62 97.5q0 37 18.5 66.5t53.5 66.5l18 20q18 20 26 33.5t8 26.5t-7.5 27.5t-27.5 43.5q55 40 126 77q29 -56 29 -96q0 -46 -43 -102l-36 -46q-1 -34 11 -51.5t36 -26t80 -21.5l36 -9l-2 -30q-38 -74 -81 -130
q-121 20 -183 53.5z" />
    <glyph glyph-name="Agrave" unicode="&#xc0;" horiz-adv-x="712" 
d="M16 89l31 19l234 567l170 15l200 -540q10 -26 14 -34t15 -22l18 -23l-6 -71h-281l-10 95l71 18l-32 101l-203 -3l-22 -63q-3 -9 -3 -15q0 -7 2.5 -10.5t8.5 -5.5l69 -29l-10 -88h-262zM343 519l-66 -192l129 -6zM172 880v41h180l95 -173h-86z" />
    <glyph glyph-name="Aacute" unicode="&#xc1;" horiz-adv-x="712" 
d="M16 89l31 19l234 567l170 15l200 -540q10 -26 14 -34t15 -22l18 -23l-6 -71h-281l-10 95l71 18l-32 101l-203 -3l-22 -63q-3 -9 -3 -15q0 -7 2.5 -10.5t8.5 -5.5l69 -29l-10 -88h-262zM343 519l-66 -192l129 -6zM404 921h180v-41l-188 -132h-87z" />
    <glyph glyph-name="Acircumflex" unicode="&#xc2;" horiz-adv-x="712" 
d="M16 89l31 19l234 567l170 15l200 -540q10 -26 14 -34t15 -22l18 -23l-6 -71h-281l-10 95l71 18l-32 101l-203 -3l-22 -63q-3 -9 -3 -15q0 -7 2.5 -10.5t8.5 -5.5l69 -29l-10 -88h-262zM343 519l-66 -192l129 -6zM303 921h149l125 -173h-83l-117 73l-116 -73h-83z" />
    <glyph glyph-name="Atilde" unicode="&#xc3;" horiz-adv-x="712" 
d="M16 89l31 19l234 567l170 15l200 -540q10 -26 14 -34t15 -22l18 -23l-6 -71h-281l-10 95l71 18l-32 101l-203 -3l-22 -63q-3 -9 -3 -15q0 -7 2.5 -10.5t8.5 -5.5l69 -29l-10 -88h-262zM343 519l-66 -192l129 -6zM358 784q-20 7 -40 12.5t-33 5.5q-6 -3 -13.5 -10.5
t-16.5 -20.5h-55q16 71 42.5 104t67.5 33q20 0 41.5 -5.5t51.5 -16.5q5 -2 30 -10t44 -8q5 3 12 11t17 20h55q-16 -71 -42.5 -104t-67.5 -33q-31 0 -93 22z" />
    <glyph glyph-name="Adieresis" unicode="&#xc4;" horiz-adv-x="712" 
d="M16 89l31 19l234 567l170 15l200 -540q10 -26 14 -34t15 -22l18 -23l-6 -71h-281l-10 95l71 18l-32 101l-203 -3l-22 -63q-3 -9 -3 -15q0 -7 2.5 -10.5t8.5 -5.5l69 -29l-10 -88h-262zM343 519l-66 -192l129 -6zM171 895l141 38l34 -125l-141 -38zM408 895l140 38
l34 -125l-140 -38z" />
    <glyph glyph-name="Aring" unicode="&#xc5;" horiz-adv-x="712" 
d="M16 89l31 19l234 567l170 15l200 -540q10 -26 14 -34t15 -22l18 -23l-6 -71h-281l-10 95l71 18l-32 101l-203 -3l-22 -63q-3 -9 -3 -15q0 -7 2.5 -10.5t8.5 -5.5l69 -29l-10 -88h-262zM343 519l-66 -192l129 -6zM283 772q-29 23 -29 73q0 46 34 74t90 28q121 0 121 -97
q0 -48 -32.5 -74.5t-91.5 -26.5q-63 0 -92 23zM409 807q6 26 6 37q0 46 -42 46q-21 0 -29 -2q-6 -14 -6 -35q0 -24 10.5 -37t30.5 -13t30 4z" />
    <glyph glyph-name="AE" unicode="&#xc6;" horiz-adv-x="927" 
d="M-10 89l31 19l365 566h489q7 -105 7 -205l-75 -5l-71 88l-138 4l14 -163l186 18v-154l-176 23l14 -161l115 3l78 88l74 -5q-4 -90 -16 -205h-482l-10 95l62 18l-7 101l-205 -2l-36 -63q-4 -8 -4 -14q0 -12 12 -18l69 -29l-10 -88h-282zM428 538l-118 -214l133 -7z" />
    <glyph glyph-name="Ccedilla" unicode="&#xc7;" horiz-adv-x="643" 
d="M456 -75q15 -15 15 -42q0 -53 -56.5 -81.5t-154.5 -28.5l-10 37q36 0 66 6t44 16q2 12 2 19q0 17 -15 24t-64 13v20l23 78q-136 11 -208.5 103t-72.5 252q0 108 39.5 186.5t114.5 120t178 41.5q117 0 241 -53q-9 -90 -29 -199l-76 -5l-69 101q-44 13 -97 13q-40 0 -76 -7
q-16 -31 -26 -82t-10 -103q0 -111 40.5 -164.5t128.5 -55.5q35 0 88.5 10.5t104.5 27.5l31 -110q-46 -30 -110.5 -51t-127.5 -25l-15 -21q24 -5 56 -14q30 -11 45 -26z" />
    <glyph glyph-name="Egrave" unicode="&#xc8;" horiz-adv-x="623" 
d="M27 102l73 20v383q0 26 -4 34.5t-21 15.5l-50 29l3 90h543q7 -105 7 -205l-74 -5l-71 88l-151 4v-163l213 18v-154l-213 23v-161l166 3l77 88l74 -5q-4 -105 -15 -205h-552zM109 867v41h180l95 -173h-86z" />
    <glyph glyph-name="Eacute" unicode="&#xc9;" horiz-adv-x="623" 
d="M27 102l73 20v383q0 26 -4 34.5t-21 15.5l-50 29l3 90h543q7 -105 7 -205l-74 -5l-71 88l-151 4v-163l213 18v-154l-213 23v-161l166 3l77 88l74 -5q-4 -105 -15 -205h-552zM341 908h180v-41l-188 -132h-87z" />
    <glyph glyph-name="Ecircumflex" unicode="&#xca;" horiz-adv-x="623" 
d="M27 102l73 20v383q0 26 -4 34.5t-21 15.5l-50 29l3 90h543q7 -105 7 -205l-74 -5l-71 88l-151 4v-163l213 18v-154l-213 23v-161l166 3l77 88l74 -5q-4 -105 -15 -205h-552zM240 908h149l125 -173h-83l-117 73l-116 -73h-83z" />
    <glyph glyph-name="Edieresis" unicode="&#xcb;" horiz-adv-x="623" 
d="M27 102l73 20v383q0 26 -4 34.5t-21 15.5l-50 29l3 90h543q7 -105 7 -205l-74 -5l-71 88l-151 4v-163l213 18v-154l-213 23v-161l166 3l77 88l74 -5q-4 -105 -15 -205h-552zM108 882l141 38l34 -125l-141 -38zM345 882l140 38l34 -125l-140 -38z" />
    <glyph glyph-name="Igrave" unicode="&#xcc;" horiz-adv-x="388" 
d="M32 102l73 20v383q0 26 -4 34.5t-21 15.5l-52 30l5 89h321l4 -102l-72 -20v-390q0 -24 3.5 -31t18.5 -14l51 -31l-3 -86h-319zM-10 867v41h180l95 -173h-86z" />
    <glyph glyph-name="Iacute" unicode="&#xcd;" horiz-adv-x="388" 
d="M32 102l73 20v383q0 26 -4 34.5t-21 15.5l-52 30l5 89h321l4 -102l-72 -20v-390q0 -24 3.5 -31t18.5 -14l51 -31l-3 -86h-319zM222 908h180v-41l-188 -132h-87z" />
    <glyph glyph-name="Icircumflex" unicode="&#xce;" horiz-adv-x="388" 
d="M32 102l73 20v383q0 26 -4 34.5t-21 15.5l-52 30l5 89h321l4 -102l-72 -20v-390q0 -24 3.5 -31t18.5 -14l51 -31l-3 -86h-319zM121 908h149l125 -173h-83l-117 73l-116 -73h-83z" />
    <glyph glyph-name="Idieresis" unicode="&#xcf;" horiz-adv-x="388" 
d="M32 102l73 20v383q0 26 -4 34.5t-21 15.5l-52 30l5 89h321l4 -102l-72 -20v-390q0 -24 3.5 -31t18.5 -14l51 -31l-3 -86h-319zM-11 882l141 38l34 -125l-141 -38zM226 882l140 38l34 -125l-140 -38z" />
    <glyph glyph-name="Eth" unicode="&#xd0;" horiz-adv-x="736" 
d="M549.5 650q83.5 -32 122 -101t38.5 -183q0 -144 -66 -233q-59 -77 -156.5 -106.5t-246.5 -29.5q-108 0 -199 9l-5 96l73 20v175l-73 3v68l73 7v128q0 26 -4 34.5t-21 15.5l-52 29l6 83q104 8 175 12.5t114 4.5q138 0 221.5 -32zM516.5 238q7.5 53 7.5 99q0 113 -46.5 167
t-141.5 54q-13 0 -24 -1t-21 -2v-163l87 8v-114l-87 4v-145q40 -5 76 -5q84 0 133 20q9 25 16.5 78z" />
    <glyph glyph-name="Ntilde" unicode="&#xd1;" horiz-adv-x="748" 
d="M205 426l17 -262q1 -23 5 -30t18 -15l52 -35l-4 -84h-260l-5 109l54 13l4 394q0 19 -3 26t-14 16l-37 28l7 88h207l302 -387l-14 223q-1 24 -5 31t-18 15l-52 34l3 84h258l4 -102l-51 -22l-4 -541l-115 -38zM357 771q-20 7 -40 12.5t-33 5.5q-6 -3 -13.5 -10.5
t-16.5 -20.5h-55q16 71 42.5 104t67.5 33q20 0 41.5 -5.5t51.5 -16.5q5 -2 30 -10t44 -8q5 3 12 11t17 20h55q-16 -71 -42.5 -104t-67.5 -33q-31 0 -93 22z" />
    <glyph glyph-name="Ograve" unicode="&#xd2;" horiz-adv-x="722" 
d="M106.5 70q-81.5 84 -81.5 255q0 111 41 192.5t117 125.5t181 44q334 0 334 -341q0 -112 -41 -193t-118.5 -124t-184.5 -43q-166 0 -247.5 84zM484 153q11 31 17 77.5t6 91.5q0 111 -41.5 168t-121.5 57q-57 0 -110 -21q-11 -19 -17 -62.5t-6 -99.5q0 -116 42 -178
t122 -62q57 0 109 29zM160 867v41h180l95 -173h-86z" />
    <glyph glyph-name="Oacute" unicode="&#xd3;" horiz-adv-x="722" 
d="M106.5 70q-81.5 84 -81.5 255q0 111 41 192.5t117 125.5t181 44q334 0 334 -341q0 -112 -41 -193t-118.5 -124t-184.5 -43q-166 0 -247.5 84zM484 153q11 31 17 77.5t6 91.5q0 111 -41.5 168t-121.5 57q-57 0 -110 -21q-11 -19 -17 -62.5t-6 -99.5q0 -116 42 -178
t122 -62q57 0 109 29zM392 908h180v-41l-188 -132h-87z" />
    <glyph glyph-name="Ocircumflex" unicode="&#xd4;" horiz-adv-x="722" 
d="M106.5 70q-81.5 84 -81.5 255q0 111 41 192.5t117 125.5t181 44q334 0 334 -341q0 -112 -41 -193t-118.5 -124t-184.5 -43q-166 0 -247.5 84zM484 153q11 31 17 77.5t6 91.5q0 111 -41.5 168t-121.5 57q-57 0 -110 -21q-11 -19 -17 -62.5t-6 -99.5q0 -116 42 -178
t122 -62q57 0 109 29zM291 908h149l125 -173h-83l-117 73l-116 -73h-83z" />
    <glyph glyph-name="Otilde" unicode="&#xd5;" horiz-adv-x="722" 
d="M106.5 70q-81.5 84 -81.5 255q0 111 41 192.5t117 125.5t181 44q334 0 334 -341q0 -112 -41 -193t-118.5 -124t-184.5 -43q-166 0 -247.5 84zM484 153q11 31 17 77.5t6 91.5q0 111 -41.5 168t-121.5 57q-57 0 -110 -21q-11 -19 -17 -62.5t-6 -99.5q0 -116 42 -178
t122 -62q57 0 109 29zM346 771q-20 7 -40 12.5t-33 5.5q-6 -3 -13.5 -10.5t-16.5 -20.5h-55q16 71 42.5 104t67.5 33q20 0 41.5 -5.5t51.5 -16.5q5 -2 30 -10t44 -8q5 3 12 11t17 20h55q-16 -71 -42.5 -104t-67.5 -33q-31 0 -93 22z" />
    <glyph glyph-name="Odieresis" unicode="&#xd6;" horiz-adv-x="722" 
d="M106.5 70q-81.5 84 -81.5 255q0 111 41 192.5t117 125.5t181 44q334 0 334 -341q0 -112 -41 -193t-118.5 -124t-184.5 -43q-166 0 -247.5 84zM484 153q11 31 17 77.5t6 91.5q0 111 -41.5 168t-121.5 57q-57 0 -110 -21q-11 -19 -17 -62.5t-6 -99.5q0 -116 42 -178
t122 -62q57 0 109 29zM159 882l141 38l34 -125l-141 -38zM396 882l140 38l34 -125l-140 -38z" />
    <glyph glyph-name="multiply" unicode="&#xd7;" horiz-adv-x="540" 
d="M349 266l121 -121l-80 -79l-120 120l-121 -120l-79 79l120 121l-120 120l79 80l121 -121l120 121l80 -80z" />
    <glyph glyph-name="Oslash" unicode="&#xd8;" horiz-adv-x="722" 
d="M698 346q0 -112 -41 -193t-118.5 -124t-184.5 -43q-100 0 -169 30l-34 -47h-113l71 98q-84 86 -84 258q0 111 41 192.5t117 125.5t181 44q102 0 170 -31l37 51h113l-73 -101q87 -85 87 -260zM229 234l207 286q-37 27 -92 27q-57 0 -110 -21q-11 -19 -17 -62.5t-6 -99.5
q0 -76 18 -130zM501 230.5q6 46.5 6 91.5q0 70 -16 118l-207 -287q37 -29 91 -29q57 0 109 29q11 31 17 77.5z" />
    <glyph glyph-name="Ugrave" unicode="&#xd9;" horiz-adv-x="753" 
d="M148.5 64.5q-68.5 77.5 -68.5 243.5v197q0 26 -3.5 34.5t-19.5 15.5l-32 19l3 100h312l5 -99l-83 -23v-205q0 -104 30 -164t103 -60q24 0 46.5 7t38.5 19q10 23 14 61.5t4 103.5v191q0 26 -4 34.5t-21 15.5l-49 28l5 91h297l5 -108l-52 -14v-226q0 -161 -82.5 -250
t-232.5 -89q-147 0 -215.5 77.5zM182 867v41h180l95 -173h-86z" />
    <glyph glyph-name="Uacute" unicode="&#xda;" horiz-adv-x="753" 
d="M148.5 64.5q-68.5 77.5 -68.5 243.5v197q0 26 -3.5 34.5t-19.5 15.5l-32 19l3 100h312l5 -99l-83 -23v-205q0 -104 30 -164t103 -60q24 0 46.5 7t38.5 19q10 23 14 61.5t4 103.5v191q0 26 -4 34.5t-21 15.5l-49 28l5 91h297l5 -108l-52 -14v-226q0 -161 -82.5 -250
t-232.5 -89q-147 0 -215.5 77.5zM414 908h180v-41l-188 -132h-87z" />
    <glyph glyph-name="Ucircumflex" unicode="&#xdb;" horiz-adv-x="753" 
d="M148.5 64.5q-68.5 77.5 -68.5 243.5v197q0 26 -3.5 34.5t-19.5 15.5l-32 19l3 100h312l5 -99l-83 -23v-205q0 -104 30 -164t103 -60q24 0 46.5 7t38.5 19q10 23 14 61.5t4 103.5v191q0 26 -4 34.5t-21 15.5l-49 28l5 91h297l5 -108l-52 -14v-226q0 -161 -82.5 -250
t-232.5 -89q-147 0 -215.5 77.5zM313 908h149l125 -173h-83l-117 73l-116 -73h-83z" />
    <glyph glyph-name="Udieresis" unicode="&#xdc;" horiz-adv-x="753" 
d="M148.5 64.5q-68.5 77.5 -68.5 243.5v197q0 26 -3.5 34.5t-19.5 15.5l-32 19l3 100h312l5 -99l-83 -23v-205q0 -104 30 -164t103 -60q24 0 46.5 7t38.5 19q10 23 14 61.5t4 103.5v191q0 26 -4 34.5t-21 15.5l-49 28l5 91h297l5 -108l-52 -14v-226q0 -161 -82.5 -250
t-232.5 -89q-147 0 -215.5 77.5zM181 882l141 38l34 -125l-141 -38zM418 882l140 38l34 -125l-140 -38z" />
    <glyph glyph-name="Yacute" unicode="&#xdd;" horiz-adv-x="673" 
d="M160 98l86 24v132l-183 293l-46 57l4 70h293l10 -95l-65 -18l105 -178l87 147q4 7 4 14q0 11 -12 16l-58 26l7 88h252l7 -94l-40 -24l-184 -270v-124q0 -24 3.5 -31t17.5 -14l62 -37l-4 -80h-341zM386 908h180v-41l-188 -132h-87z" />
    <glyph glyph-name="Thorn" unicode="&#xde;" horiz-adv-x="624" 
d="M32 92l73 21v397q0 27 -4 36.5t-21 17.5l-52 31l5 79h321l4 -92l-72 -21v-39l38 1q290 7 290 -176q0 -95 -73 -146.5t-198 -47.5l-56 2v-3q0 -23 3.5 -30t18.5 -15l60 -35l-4 -72h-328zM420 258q11 38 11 81q0 54 -20.5 72.5t-70.5 18.5q-35 0 -53 -2v-175q25 -5 60 -5
q52 0 73 10z" />
    <glyph glyph-name="germandbls" unicode="&#xdf;" horiz-adv-x="648" 
d="M303 15q1 31 11 112l3 24h18l68 -29q47 -20 77 -20q15 0 24 5q1 3 1 9q0 17 -12 31t-56 53q-64 56 -88.5 90.5t-24.5 80.5q0 38 14 62.5t47 59.5q5 7 11.5 13.5t12.5 13.5q2 11 2 26q0 86 -94 86q-30 0 -54 -7v-625h-235l-3 91l70 21v291l-70 1v98l70 4v49q0 99 64 154.5
t175 55.5q77 0 131 -27t81 -73.5t27 -105.5q0 -11 -0.5 -17t-0.5 -9l-55 -49q-29 -27 -38.5 -39.5t-9.5 -28.5q0 -24 16 -44.5t49 -48.5q32 -28 51.5 -50t34 -54t14.5 -73q0 -77 -51 -119.5t-128 -42.5q-67 0 -152 31z" />
    <glyph glyph-name="agrave" unicode="&#xe0;" horiz-adv-x="554" 
d="M61 24.5q-41 37.5 -41 96.5q0 79 79.5 124t231.5 51q0 47 -7.5 69.5t-27 31t-59.5 8.5q-41 0 -58 -3l-41 -81l-74 5q-17 80 -24 166q56 19 122.5 30t124.5 11q106 0 152 -41.5t46 -137.5v-209q0 -18 3.5 -25t15.5 -14l40 -23l-4 -62q-116 -27 -183 -30q-2 6 -6 21.5
t-7 29.5q-39 -25 -85.5 -40t-88.5 -15q-68 0 -109 37.5zM334 127l-4 76q-24 2 -32 2q-27 0 -63 -5.5t-57 -12.5q-3 -13 -3 -24q0 -30 16.5 -46.5t45.5 -16.5q40 0 97 27zM70 714v41h180l95 -173h-86z" />
    <glyph glyph-name="aacute" unicode="&#xe1;" horiz-adv-x="554" 
d="M61 24.5q-41 37.5 -41 96.5q0 79 79.5 124t231.5 51q0 47 -7.5 69.5t-27 31t-59.5 8.5q-41 0 -58 -3l-41 -81l-74 5q-17 80 -24 166q56 19 122.5 30t124.5 11q106 0 152 -41.5t46 -137.5v-209q0 -18 3.5 -25t15.5 -14l40 -23l-4 -62q-116 -27 -183 -30q-2 6 -6 21.5
t-7 29.5q-39 -25 -85.5 -40t-88.5 -15q-68 0 -109 37.5zM334 127l-4 76q-24 2 -32 2q-27 0 -63 -5.5t-57 -12.5q-3 -13 -3 -24q0 -30 16.5 -46.5t45.5 -16.5q40 0 97 27zM302 755h180v-41l-188 -132h-87z" />
    <glyph glyph-name="acircumflex" unicode="&#xe2;" horiz-adv-x="554" 
d="M61 24.5q-41 37.5 -41 96.5q0 79 79.5 124t231.5 51q0 47 -7.5 69.5t-27 31t-59.5 8.5q-41 0 -58 -3l-41 -81l-74 5q-17 80 -24 166q56 19 122.5 30t124.5 11q106 0 152 -41.5t46 -137.5v-209q0 -18 3.5 -25t15.5 -14l40 -23l-4 -62q-116 -27 -183 -30q-2 6 -6 21.5
t-7 29.5q-39 -25 -85.5 -40t-88.5 -15q-68 0 -109 37.5zM334 127l-4 76q-24 2 -32 2q-27 0 -63 -5.5t-57 -12.5q-3 -13 -3 -24q0 -30 16.5 -46.5t45.5 -16.5q40 0 97 27zM201 755h149l125 -173h-83l-117 73l-116 -73h-83z" />
    <glyph glyph-name="atilde" unicode="&#xe3;" horiz-adv-x="554" 
d="M61 24.5q-41 37.5 -41 96.5q0 79 79.5 124t231.5 51q0 47 -7.5 69.5t-27 31t-59.5 8.5q-41 0 -58 -3l-41 -81l-74 5q-17 80 -24 166q56 19 122.5 30t124.5 11q106 0 152 -41.5t46 -137.5v-209q0 -18 3.5 -25t15.5 -14l40 -23l-4 -62q-116 -27 -183 -30q-2 6 -6 21.5
t-7 29.5q-39 -25 -85.5 -40t-88.5 -15q-68 0 -109 37.5zM334 127l-4 76q-24 2 -32 2q-27 0 -63 -5.5t-57 -12.5q-3 -13 -3 -24q0 -30 16.5 -46.5t45.5 -16.5q40 0 97 27zM256 618q-20 7 -40 12.5t-33 5.5q-6 -3 -13.5 -10.5t-16.5 -20.5h-55q16 71 42.5 104t67.5 33
q20 0 41.5 -5.5t51.5 -16.5q5 -2 30 -10t44 -8q5 3 12 11t17 20h55q-16 -71 -42.5 -104t-67.5 -33q-31 0 -93 22z" />
    <glyph glyph-name="adieresis" unicode="&#xe4;" horiz-adv-x="554" 
d="M61 24.5q-41 37.5 -41 96.5q0 79 79.5 124t231.5 51q0 47 -7.5 69.5t-27 31t-59.5 8.5q-41 0 -58 -3l-41 -81l-74 5q-17 80 -24 166q56 19 122.5 30t124.5 11q106 0 152 -41.5t46 -137.5v-209q0 -18 3.5 -25t15.5 -14l40 -23l-4 -62q-116 -27 -183 -30q-2 6 -6 21.5
t-7 29.5q-39 -25 -85.5 -40t-88.5 -15q-68 0 -109 37.5zM334 127l-4 76q-24 2 -32 2q-27 0 -63 -5.5t-57 -12.5q-3 -13 -3 -24q0 -30 16.5 -46.5t45.5 -16.5q40 0 97 27zM69 729l141 38l34 -125l-141 -38zM306 729l140 38l34 -125l-140 -38z" />
    <glyph glyph-name="aring" unicode="&#xe5;" horiz-adv-x="554" 
d="M61 24.5q-41 37.5 -41 96.5q0 79 79.5 124t231.5 51q0 47 -7.5 69.5t-27 31t-59.5 8.5q-41 0 -58 -3l-41 -81l-74 5q-17 80 -24 166q56 19 122.5 30t124.5 11q106 0 152 -41.5t46 -137.5v-209q0 -18 3.5 -25t15.5 -14l40 -23l-4 -62q-116 -27 -183 -30q-2 6 -6 21.5
t-7 29.5q-39 -25 -85.5 -40t-88.5 -15q-68 0 -109 37.5zM334 127l-4 76q-24 2 -32 2q-27 0 -63 -5.5t-57 -12.5q-3 -13 -3 -24q0 -30 16.5 -46.5t45.5 -16.5q40 0 97 27zM181 606q-29 23 -29 73q0 46 34 74t90 28q121 0 121 -97q0 -48 -32.5 -74.5t-91.5 -26.5q-63 0 -92 23
zM307 641q6 26 6 37q0 46 -42 46q-21 0 -29 -2q-6 -14 -6 -35q0 -24 10.5 -37t30.5 -13t30 4z" />
    <glyph glyph-name="ae" unicode="&#xe6;" horiz-adv-x="836" 
d="M60 22.5q-42 36.5 -42 97.5q0 81 80 125.5t231 50.5q0 47 -7 69.5t-27 31t-62 8.5t-56 -3l-41 -81l-74 5q-18 95 -24 166q54 18 120 29.5t121 11.5q104 0 155 -43q61 43 148 43q114 0 174 -72t56 -205l-304 -53q12 -44 38 -64t69 -20q29 0 69 8.5t81 23.5l24 -99
q-36 -28 -96 -46t-120 -18q-119 0 -182 74q-44 -34 -103 -55t-114 -21q-72 0 -114 36.5zM648 340q-5 74 -78 74q-29 0 -53 -9q-19 -46 -17 -106zM288 109.5q30 9.5 60 26.5q-11 41 -15 67q-28 2 -37 2q-30 0 -65.5 -5.5t-54.5 -12.5q-3 -13 -3 -25q0 -30 16.5 -46t46.5 -16
q22 0 52 9.5z" />
    <glyph glyph-name="ccedilla" unicode="&#xe7;" horiz-adv-x="504" 
d="M375 -75q15 -15 15 -42q0 -53 -56.5 -81.5t-154.5 -28.5l-10 37q36 0 66 6t44 16q2 12 2 19q0 17 -15 24t-64 13v20l24 81q-101 10 -156 80.5t-55 186.5q0 131 68.5 204t187.5 73q90 0 193 -41q-2 -29 -9 -76.5t-15 -87.5l-67 -6l-62 79q-25 5 -56 5q-25 0 -46 -3
q-23 -44 -23 -124q0 -82 29 -121.5t88 -39.5q28 0 68 8.5t82 24.5l24 -100q-34 -24 -84.5 -41.5t-102.5 -21.5l-16 -23q24 -5 56 -14q30 -11 45 -26z" />
    <glyph glyph-name="egrave" unicode="&#xe8;" horiz-adv-x="521" 
d="M78.5 59q-63.5 71 -63.5 196q0 87 31 149.5t88 95.5t133 33q113 0 173.5 -72t57.5 -205l-304 -56q14 -42 39.5 -61.5t67.5 -19.5q29 0 69 8.5t81 23.5l23 -99q-37 -28 -96 -46t-119 -18q-117 0 -180.5 71zM334 340q-2 38 -21.5 55.5t-54.5 17.5q-29 0 -55 -8
q-21 -49 -19 -106zM61 714v41h180l95 -173h-86z" />
    <glyph glyph-name="eacute" unicode="&#xe9;" horiz-adv-x="521" 
d="M78.5 59q-63.5 71 -63.5 196q0 87 31 149.5t88 95.5t133 33q113 0 173.5 -72t57.5 -205l-304 -56q14 -42 39.5 -61.5t67.5 -19.5q29 0 69 8.5t81 23.5l23 -99q-37 -28 -96 -46t-119 -18q-117 0 -180.5 71zM334 340q-2 38 -21.5 55.5t-54.5 17.5q-29 0 -55 -8
q-21 -49 -19 -106zM293 755h180v-41l-188 -132h-87z" />
    <glyph glyph-name="ecircumflex" unicode="&#xea;" horiz-adv-x="521" 
d="M78.5 59q-63.5 71 -63.5 196q0 87 31 149.5t88 95.5t133 33q113 0 173.5 -72t57.5 -205l-304 -56q14 -42 39.5 -61.5t67.5 -19.5q29 0 69 8.5t81 23.5l23 -99q-37 -28 -96 -46t-119 -18q-117 0 -180.5 71zM334 340q-2 38 -21.5 55.5t-54.5 17.5q-29 0 -55 -8
q-21 -49 -19 -106zM192 755h149l125 -173h-83l-117 73l-116 -73h-83z" />
    <glyph glyph-name="edieresis" unicode="&#xeb;" horiz-adv-x="521" 
d="M78.5 59q-63.5 71 -63.5 196q0 87 31 149.5t88 95.5t133 33q113 0 173.5 -72t57.5 -205l-304 -56q14 -42 39.5 -61.5t67.5 -19.5q29 0 69 8.5t81 23.5l23 -99q-37 -28 -96 -46t-119 -18q-117 0 -180.5 71zM334 340q-2 38 -21.5 55.5t-54.5 17.5q-29 0 -55 -8
q-21 -49 -19 -106zM60 729l141 38l34 -125l-141 -38zM297 729l140 38l34 -125l-140 -38z" />
    <glyph glyph-name="igrave" unicode="&#xec;" horiz-adv-x="347" 
d="M25 92l70 21v243q0 22 -3.5 28.5t-17.5 14.5l-44 24l5 75q83 16 128.5 23.5t83.5 8.5q13 -43 16 -64v-320q0 -21 3 -28t17 -15l49 -28l-4 -75h-300zM-36 715v41h180l95 -173h-86z" />
    <glyph glyph-name="iacute" unicode="&#xed;" horiz-adv-x="347" 
d="M25 92l70 21v243q0 22 -3.5 28.5t-17.5 14.5l-44 24l5 75q83 16 128.5 23.5t83.5 8.5q13 -43 16 -64v-320q0 -21 3 -28t17 -15l49 -28l-4 -75h-300zM196 756h180v-41l-188 -132h-87z" />
    <glyph glyph-name="icircumflex" unicode="&#xee;" horiz-adv-x="347" 
d="M25 92l70 21v243q0 22 -3.5 28.5t-17.5 14.5l-44 24l5 75q83 16 128.5 23.5t83.5 8.5q13 -43 16 -64v-320q0 -21 3 -28t17 -15l49 -28l-4 -75h-300zM95 756h149l125 -173h-83l-117 73l-116 -73h-83z" />
    <glyph glyph-name="idieresis" unicode="&#xef;" horiz-adv-x="347" 
d="M25 92l70 21v243q0 22 -3.5 28.5t-17.5 14.5l-44 24l5 75q83 16 128.5 23.5t83.5 8.5q13 -43 16 -64v-320q0 -21 3 -28t17 -15l49 -28l-4 -75h-300zM-37 730l141 38l34 -125l-141 -38zM200 730l140 38l34 -125l-140 -38z" />
    <glyph glyph-name="eth" unicode="&#xf0;" horiz-adv-x="562" 
d="M535 267q0 -134 -70 -207t-201 -73q-124 0 -186.5 66t-62.5 193q0 136 69.5 211.5t191.5 75.5h10l-44 52l-115 -54l-5 70l76 36l-76 90l8 42l179 -13l35 -50l115 54l4 -70l-81 -38q67 -99 102.5 -173.5t46.5 -153.5q4 -24 4 -58zM360.5 178q3.5 36 3.5 70q0 83 -26 123.5
t-81 40.5q-27 0 -61 -9q-7 -15 -11 -48t-4 -71q0 -180 107 -180q31 0 62 15q7 23 10.5 59z" />
    <glyph glyph-name="ntilde" unicode="&#xf1;" horiz-adv-x="660" 
d="M26 96l62 18v242q0 22 -3 28.5t-16 14.5l-44 24l3 75l22 4q131 26 189 28q8 -21 13 -46q61 28 99.5 38.5t72.5 10.5q159 0 159 -190v-196q0 -21 3 -28t17 -15l48 -28l-4 -75h-276l-5 95l49 14v189q0 45 -3 63t-16.5 28t-47.5 10q-36 0 -91 -11v-242q0 -21 3 -28t16 -15
l49 -28l-4 -75h-290zM307 618q-20 7 -40 12.5t-33 5.5q-6 -3 -13.5 -10.5t-16.5 -20.5h-55q16 71 42.5 104t67.5 33q20 0 41.5 -5.5t51.5 -16.5q5 -2 30 -10t44 -8q5 3 12 11t17 20h55q-16 -71 -42.5 -104t-67.5 -33q-31 0 -93 22z" />
    <glyph glyph-name="ograve" unicode="&#xf2;" horiz-adv-x="553" 
d="M77.5 52q-62.5 65 -62.5 199q0 86 31.5 150t90.5 98t139 34q259 0 259 -268q0 -131 -70.5 -204.5t-197.5 -73.5t-189.5 65zM318 107.5q15 3.5 32 11.5q6 23 10 59t4 69q0 81 -25.5 123t-75.5 42q-33 0 -67 -9q-7 -15 -11 -48.5t-4 -76.5q0 -84 26.5 -129t75.5 -45
q20 0 35 3.5zM73 715v41h180l95 -173h-86z" />
    <glyph glyph-name="oacute" unicode="&#xf3;" horiz-adv-x="553" 
d="M77.5 52q-62.5 65 -62.5 199q0 86 31.5 150t90.5 98t139 34q259 0 259 -268q0 -131 -70.5 -204.5t-197.5 -73.5t-189.5 65zM318 107.5q15 3.5 32 11.5q6 23 10 59t4 69q0 81 -25.5 123t-75.5 42q-33 0 -67 -9q-7 -15 -11 -48.5t-4 -76.5q0 -84 26.5 -129t75.5 -45
q20 0 35 3.5zM305 756h180v-41l-188 -132h-87z" />
    <glyph glyph-name="ocircumflex" unicode="&#xf4;" horiz-adv-x="553" 
d="M77.5 52q-62.5 65 -62.5 199q0 86 31.5 150t90.5 98t139 34q259 0 259 -268q0 -131 -70.5 -204.5t-197.5 -73.5t-189.5 65zM318 107.5q15 3.5 32 11.5q6 23 10 59t4 69q0 81 -25.5 123t-75.5 42q-33 0 -67 -9q-7 -15 -11 -48.5t-4 -76.5q0 -84 26.5 -129t75.5 -45
q20 0 35 3.5zM204 756h149l125 -173h-83l-117 73l-116 -73h-83z" />
    <glyph glyph-name="otilde" unicode="&#xf5;" horiz-adv-x="553" 
d="M77.5 52q-62.5 65 -62.5 199q0 86 31.5 150t90.5 98t139 34q259 0 259 -268q0 -131 -70.5 -204.5t-197.5 -73.5t-189.5 65zM318 107.5q15 3.5 32 11.5q6 23 10 59t4 69q0 81 -25.5 123t-75.5 42q-33 0 -67 -9q-7 -15 -11 -48.5t-4 -76.5q0 -84 26.5 -129t75.5 -45
q20 0 35 3.5zM259 619q-20 7 -40 12.5t-33 5.5q-6 -3 -13.5 -10.5t-16.5 -20.5h-55q16 71 42.5 104t67.5 33q20 0 41.5 -5.5t51.5 -16.5q5 -2 30 -10t44 -8q5 3 12 11t17 20h55q-16 -71 -42.5 -104t-67.5 -33q-31 0 -93 22z" />
    <glyph glyph-name="odieresis" unicode="&#xf6;" horiz-adv-x="553" 
d="M77.5 52q-62.5 65 -62.5 199q0 86 31.5 150t90.5 98t139 34q259 0 259 -268q0 -131 -70.5 -204.5t-197.5 -73.5t-189.5 65zM318 107.5q15 3.5 32 11.5q6 23 10 59t4 69q0 81 -25.5 123t-75.5 42q-33 0 -67 -9q-7 -15 -11 -48.5t-4 -76.5q0 -84 26.5 -129t75.5 -45
q20 0 35 3.5zM72 730l141 38l34 -125l-141 -38zM309 730l140 38l34 -125l-140 -38z" />
    <glyph glyph-name="divide" unicode="&#xf7;" horiz-adv-x="729" 
d="M279 525l135 36l36 -121l-134 -36zM80 321h569v-111h-569v111zM279 90l135 36l36 -120l-134 -36z" />
    <glyph glyph-name="oslash" unicode="&#xf8;" horiz-adv-x="553" 
d="M535 265q0 -131 -70.5 -204.5t-197.5 -73.5q-65 0 -112 16l-48 -78h-85l70 113q-77 64 -77 213q0 86 31.5 150t90.5 98t139 34q64 0 113 -17l51 83h83l-72 -116q84 -66 84 -218zM190 195l125 202q-22 15 -52 15q-33 0 -67 -9q-7 -15 -11 -48.5t-4 -76.5q0 -47 9 -83z
M360 178q4 36 4 69q0 44 -8 81l-127 -205q22 -19 54 -19q20 0 35 3.5t32 11.5q6 23 10 59z" />
    <glyph glyph-name="ugrave" unicode="&#xf9;" horiz-adv-x="612" 
d="M87 33.5q-39 47.5 -39 143.5v179q0 22 -3.5 28.5t-17.5 14.5l-45 24l5 75q14 2 20 4q11 2 78.5 14t112.5 14q11 -25 17 -58v-252q0 -44 2.5 -62t16 -27.5t46.5 -9.5q48 0 93 17v218q0 22 -3 28.5t-16 14.5l-44 24l4 75q81 15 126.5 23t83.5 9q11 -25 17 -58v-328
q0 -18 3 -25t14 -14l40 -23l-3 -62q-43 -11 -99 -19.5t-104 -10.5q-4 12 -9 30q-1 8 -5 19h-3q-41 -24 -86.5 -38.5t-82.5 -14.5q-80 0 -119 47.5zM78 714v41h180l95 -173h-86z" />
    <glyph glyph-name="uacute" unicode="&#xfa;" horiz-adv-x="612" 
d="M87 33.5q-39 47.5 -39 143.5v179q0 22 -3.5 28.5t-17.5 14.5l-45 24l5 75q14 2 20 4q11 2 78.5 14t112.5 14q11 -25 17 -58v-252q0 -44 2.5 -62t16 -27.5t46.5 -9.5q48 0 93 17v218q0 22 -3 28.5t-16 14.5l-44 24l4 75q81 15 126.5 23t83.5 9q11 -25 17 -58v-328
q0 -18 3 -25t14 -14l40 -23l-3 -62q-43 -11 -99 -19.5t-104 -10.5q-4 12 -9 30q-1 8 -5 19h-3q-41 -24 -86.5 -38.5t-82.5 -14.5q-80 0 -119 47.5zM310 755h180v-41l-188 -132h-87z" />
    <glyph glyph-name="ucircumflex" unicode="&#xfb;" horiz-adv-x="612" 
d="M87 33.5q-39 47.5 -39 143.5v179q0 22 -3.5 28.5t-17.5 14.5l-45 24l5 75q14 2 20 4q11 2 78.5 14t112.5 14q11 -25 17 -58v-252q0 -44 2.5 -62t16 -27.5t46.5 -9.5q48 0 93 17v218q0 22 -3 28.5t-16 14.5l-44 24l4 75q81 15 126.5 23t83.5 9q11 -25 17 -58v-328
q0 -18 3 -25t14 -14l40 -23l-3 -62q-43 -11 -99 -19.5t-104 -10.5q-4 12 -9 30q-1 8 -5 19h-3q-41 -24 -86.5 -38.5t-82.5 -14.5q-80 0 -119 47.5zM209 755h149l125 -173h-83l-117 73l-116 -73h-83z" />
    <glyph glyph-name="udieresis" unicode="&#xfc;" horiz-adv-x="612" 
d="M87 33.5q-39 47.5 -39 143.5v179q0 22 -3.5 28.5t-17.5 14.5l-45 24l5 75q14 2 20 4q11 2 78.5 14t112.5 14q11 -25 17 -58v-252q0 -44 2.5 -62t16 -27.5t46.5 -9.5q48 0 93 17v218q0 22 -3 28.5t-16 14.5l-44 24l4 75q81 15 126.5 23t83.5 9q11 -25 17 -58v-328
q0 -18 3 -25t14 -14l40 -23l-3 -62q-43 -11 -99 -19.5t-104 -10.5q-4 12 -9 30q-1 8 -5 19h-3q-41 -24 -86.5 -38.5t-82.5 -14.5q-80 0 -119 47.5zM77 729l141 38l34 -125l-141 -38zM314 729l140 38l34 -125l-140 -38z" />
    <glyph glyph-name="yacute" unicode="&#xfd;" horiz-adv-x="537" 
d="M51 -105l111 109l-145 382q-11 27 -15 35t-15 22l-17 22l5 58h256l10 -85l-58 -14l82 -251l92 230q2 6 2 9q0 9 -8 12l-47 20l9 79h190l9 -81l-128 -279q-69 -151 -114 -237t-91 -155q-72 48 -128 124zM298 756h180v-41l-188 -132h-87z" />
    <glyph glyph-name="thorn" unicode="&#xfe;" horiz-adv-x="583" 
d="M-2 -120l62 17v694q0 22 -3 29t-17 15l-45 23l5 76q96 17 142 23.5t73 7.5q9 -23 13 -52v-224q61 44 131 44q96 0 150 -71.5t54 -194.5q0 -139 -73.5 -211t-213.5 -72q-16 0 -48 2v-55q0 -22 3 -29t17 -14l59 -33l-4 -70h-300zM377 121q8 25 13.5 61t5.5 69
q0 74 -26.5 116t-73.5 42q-29 0 -68 -17v-272q29 -12 73 -12q47 0 76 13z" />
    <glyph glyph-name="ydieresis" unicode="&#xff;" horiz-adv-x="537" 
d="M51 -105l111 109l-145 382q-11 27 -15 35t-15 22l-17 22l5 58h256l10 -85l-58 -14l82 -251l92 230q2 6 2 9q0 9 -8 12l-47 20l9 79h190l9 -81l-128 -279q-69 -151 -114 -237t-91 -155q-72 48 -128 124zM65 730l141 38l34 -125l-141 -38zM302 730l140 38l34 -125l-140 -38
z" />
    <glyph glyph-name="Amacron" unicode="&#x100;" horiz-adv-x="712" 
d="M16 89l31 19l234 567l170 15l200 -540q10 -26 14 -34t15 -22l18 -23l-6 -71h-281l-10 95l71 18l-32 101l-203 -3l-22 -63q-3 -9 -3 -15q0 -7 2.5 -10.5t8.5 -5.5l69 -29l-10 -88h-262zM343 519l-66 -192l129 -6zM223 886l306 -12v-90l-306 -9v111z" />
    <glyph glyph-name="amacron" unicode="&#x101;" horiz-adv-x="554" 
d="M61 24.5q-41 37.5 -41 96.5q0 79 79.5 124t231.5 51q0 47 -7.5 69.5t-27 31t-59.5 8.5q-41 0 -58 -3l-41 -81l-74 5q-17 80 -24 166q56 19 122.5 30t124.5 11q106 0 152 -41.5t46 -137.5v-209q0 -18 3.5 -25t15.5 -14l40 -23l-4 -62q-116 -27 -183 -30q-2 6 -6 21.5
t-7 29.5q-39 -25 -85.5 -40t-88.5 -15q-68 0 -109 37.5zM334 127l-4 76q-24 2 -32 2q-27 0 -63 -5.5t-57 -12.5q-3 -13 -3 -24q0 -30 16.5 -46.5t45.5 -16.5q40 0 97 27zM121 720l306 -12v-90l-306 -9v111z" />
    <glyph glyph-name="Abreve" unicode="&#x102;" horiz-adv-x="712" 
d="M16 89l31 19l234 567l170 15l200 -540q10 -26 14 -34t15 -22l18 -23l-6 -71h-281l-10 95l71 18l-32 101l-203 -3l-22 -63q-3 -9 -3 -15q0 -7 2.5 -10.5t8.5 -5.5l69 -29l-10 -88h-262zM343 519l-66 -192l129 -6zM247.5 787q-36.5 39 -36.5 111q0 15 1 23h56
q13 -34 40.5 -51.5t73.5 -17.5q47 0 71.5 18t32.5 51h57q-6 -81 -57.5 -127t-131.5 -46q-70 0 -106.5 39z" />
    <glyph glyph-name="abreve" unicode="&#x103;" horiz-adv-x="554" 
d="M61 24.5q-41 37.5 -41 96.5q0 79 79.5 124t231.5 51q0 47 -7.5 69.5t-27 31t-59.5 8.5q-41 0 -58 -3l-41 -81l-74 5q-17 80 -24 166q56 19 122.5 30t124.5 11q106 0 152 -41.5t46 -137.5v-209q0 -18 3.5 -25t15.5 -14l40 -23l-4 -62q-116 -27 -183 -30q-2 6 -6 21.5
t-7 29.5q-39 -25 -85.5 -40t-88.5 -15q-68 0 -109 37.5zM334 127l-4 76q-24 2 -32 2q-27 0 -63 -5.5t-57 -12.5q-3 -13 -3 -24q0 -30 16.5 -46.5t45.5 -16.5q40 0 97 27zM145.5 621q-36.5 39 -36.5 111q0 15 1 23h56q13 -34 40.5 -51.5t73.5 -17.5q47 0 71.5 18t32.5 51h57
q-6 -81 -57.5 -127t-131.5 -46q-70 0 -106.5 39z" />
    <glyph glyph-name="Aogonek" unicode="&#x104;" horiz-adv-x="712" 
d="M416 -200.5q-43 26.5 -43 81.5q0 46 32 86.5t91 69.5l-56 177l-203 -3l-22 -63q-3 -9 -3 -15q0 -7 2.5 -10.5t8.5 -5.5l69 -29l-10 -88h-262l-4 89l31 19l234 567l170 15l200 -540q10 -26 14 -34t15 -22l18 -23l-5 -70h-1v-1h-8q-123 -15 -189 -45q-4 -10 -4 -28
q0 -72 85 -72q22 0 50 7l13 -60q-55 -29 -120 -29q-60 0 -103 26.5zM344 518l-67 -191l129 -6z" />
    <glyph glyph-name="aogonek" unicode="&#x105;" horiz-adv-x="552" 
d="M304.5 -199.5q-43.5 27.5 -43.5 81.5q0 77 91 125l-10 35q-39 -25 -85.5 -40t-88.5 -15q-68 0 -109 37.5t-41 96.5q0 79 79.5 124t231.5 51q0 47 -7.5 69.5t-27 31t-59.5 8.5q-44 0 -58 -3l-41 -81l-74 5q-18 95 -24 166q54 19 121 30t126 11q106 0 152 -41.5t46 -137.5
v-209q0 -18 3.5 -25t15.5 -14l40 -23l-5 -53q-58 -23 -94 -39.5t-61 -34.5q-4 -8 -4 -28q0 -73 85 -73q24 0 50 7l13 -60q-55 -29 -118 -29q-60 0 -103.5 27.5zM332 127l-4 76q-24 2 -32 2q-28 0 -64.5 -5.5t-55.5 -12.5q-3 -13 -3 -24q0 -30 16.5 -46.5t45.5 -16.5
q40 0 97 27z" />
    <glyph glyph-name="Cacute" unicode="&#x106;" horiz-adv-x="643" 
d="M107 78q-82 93 -82 263q0 108 39.5 186.5t114.5 120t178 41.5q117 0 241 -53q-9 -90 -29 -199l-76 -5l-69 101q-44 13 -97 13q-40 0 -76 -7q-16 -31 -26 -82t-10 -103q0 -111 40.5 -164.5t128.5 -55.5q35 0 88.5 10.5t104.5 27.5l31 -110q-52 -34 -125.5 -55.5
t-141.5 -21.5q-152 0 -234 93zM379 921h180v-41l-188 -132h-87z" />
    <glyph glyph-name="cacute" unicode="&#x107;" horiz-adv-x="504" 
d="M79 58.5q-64 71.5 -64 197.5q0 131 68.5 204t187.5 73q90 0 193 -41q-2 -29 -9 -76.5t-15 -87.5l-67 -6l-62 79q-25 5 -56 5q-25 0 -46 -3q-23 -44 -23 -124q0 -82 29 -121.5t88 -39.5q28 0 68 8.5t82 24.5l24 -100q-40 -28 -99.5 -46t-118.5 -18q-116 0 -180 71.5z
M302 755h180v-41l-188 -132h-87z" />
    <glyph glyph-name="Cdotaccent" unicode="&#x10a;" horiz-adv-x="643" 
d="M107 78q-82 93 -82 263q0 108 39.5 186.5t114.5 120t178 41.5q117 0 241 -53q-9 -90 -29 -199l-76 -5l-69 101q-44 13 -97 13q-40 0 -76 -7q-16 -31 -26 -82t-10 -103q0 -111 40.5 -164.5t128.5 -55.5q35 0 88.5 10.5t104.5 27.5l31 -110q-52 -34 -125.5 -55.5
t-141.5 -21.5q-152 0 -234 93zM257 889l141 38l34 -125l-141 -38z" />
    <glyph glyph-name="cdotaccent" unicode="&#x10b;" horiz-adv-x="504" 
d="M79 58.5q-64 71.5 -64 197.5q0 131 68.5 204t187.5 73q90 0 193 -41q-2 -29 -9 -76.5t-15 -87.5l-67 -6l-62 79q-25 5 -56 5q-25 0 -46 -3q-23 -44 -23 -124q0 -82 29 -121.5t88 -39.5q28 0 68 8.5t82 24.5l24 -100q-40 -28 -99.5 -46t-118.5 -18q-116 0 -180 71.5z
M180 723l141 38l34 -125l-141 -38z" />
    <glyph glyph-name="Ccaron" unicode="&#x10c;" horiz-adv-x="643" 
d="M107 78q-82 93 -82 263q0 108 39.5 186.5t114.5 120t178 41.5q117 0 241 -53q-9 -90 -29 -199l-76 -5l-69 101q-44 13 -97 13q-40 0 -76 -7q-16 -31 -26 -82t-10 -103q0 -111 40.5 -164.5t128.5 -55.5q35 0 88.5 10.5t104.5 27.5l31 -110q-52 -34 -125.5 -55.5
t-141.5 -21.5q-152 0 -234 93zM153 921h83l117 -73l116 73h83l-125 -173h-149z" />
    <glyph glyph-name="ccaron" unicode="&#x10d;" horiz-adv-x="504" 
d="M79 58.5q-64 71.5 -64 197.5q0 131 68.5 204t187.5 73q90 0 193 -41q-2 -29 -9 -76.5t-15 -87.5l-67 -6l-62 79q-25 5 -56 5q-25 0 -46 -3q-23 -44 -23 -124q0 -82 29 -121.5t88 -39.5q28 0 68 8.5t82 24.5l24 -100q-40 -28 -99.5 -46t-118.5 -18q-116 0 -180 71.5z
M76 755h83l117 -73l116 73h83l-125 -173h-149z" />
    <glyph glyph-name="Dcaron" unicode="&#x10e;" horiz-adv-x="735" 
d="M42 6l-5 96l73 20v381q0 26 -4 34.5t-21 15.5l-52 29l6 83q104 8 175 12.5t114 4.5q138 0 221.5 -32t122 -101t38.5 -183q0 -144 -66 -233q-59 -77 -156.5 -106.5t-246.5 -29.5q-108 0 -199 9zM500 160q9 25 16.5 78t7.5 99q0 113 -46.5 167t-141.5 54q-13 0 -24 -1
t-21 -2v-410q40 -5 76 -5q84 0 133 20zM158 908h83l117 -73l116 73h83l-125 -173h-149z" />
    <glyph glyph-name="dcaron" unicode="&#x10f;" horiz-adv-x="589" 
d="M68.5 58.5q-53.5 71.5 -53.5 203.5q0 130 75 200.5t213 70.5q3 0 47 -2v60q0 22 -3 29t-17 15l-45 23l5 76q96 17 142 23.5t73 7.5q9 -23 13 -52v-569q0 -18 3.5 -25t16.5 -14l38 -23l-4 -62q-98 -25 -192 -30q-7 19 -14 46q-32 -23 -69.5 -36t-74.5 -13
q-100 0 -153.5 71.5zM654 755h183v-41l-193 -145h-88zM311.5 120q17.5 5 39.5 17v259q-30 13 -81 13q-34 0 -69 -10q-8 -19 -12.5 -52t-4.5 -70q0 -84 22.5 -123t69.5 -39q18 0 35.5 5z" />
    <glyph glyph-name="Dcroat" unicode="&#x110;" horiz-adv-x="736" 
d="M549.5 650q83.5 -32 122 -101t38.5 -183q0 -144 -66 -233q-59 -77 -156.5 -106.5t-246.5 -29.5q-108 0 -199 9l-5 96l73 20v175l-73 3v68l73 7v128q0 26 -4 34.5t-21 15.5l-52 29l6 83q104 8 175 12.5t114 4.5q138 0 221.5 -32zM516.5 238q7.5 53 7.5 99q0 113 -46.5 167
t-141.5 54q-13 0 -24 -1t-21 -2v-163l87 8v-114l-87 4v-145q40 -5 76 -5q84 0 133 20q9 25 16.5 78z" />
    <glyph glyph-name="dcroat" unicode="&#x111;" horiz-adv-x="596" 
d="M576 82l-4 -62q-98 -25 -192 -30q-7 19 -14 46q-68 -49 -147 -49q-96 0 -150 72t-54 193q0 139 73.5 210t209.5 71q12 0 52 -2v32h-113v47l110 12q-2 9 -17 16l-45 23l5 73q96 17 142 23.5t73 7.5q9 -23 13 -52v-73l54 6v-83h-54v-419q0 -18 3.5 -25t16.5 -14zM351 396
q-30 13 -77 13q-38 0 -73 -10q-8 -19 -12.5 -52t-4.5 -73q0 -82 22.5 -120.5t70.5 -38.5q33 0 74 22v259z" />
    <glyph glyph-name="Emacron" unicode="&#x112;" horiz-adv-x="623" 
d="M27 102l73 20v383q0 26 -4 34.5t-21 15.5l-50 29l3 90h543q7 -105 7 -205l-74 -5l-71 88l-151 4v-163l213 18v-154l-213 23v-161l166 3l77 88l74 -5q-4 -105 -15 -205h-552zM160 873l306 -12v-90l-306 -9v111z" />
    <glyph glyph-name="emacron" unicode="&#x113;" horiz-adv-x="521" 
d="M78.5 59q-63.5 71 -63.5 196q0 87 31 149.5t88 95.5t133 33q113 0 173.5 -72t57.5 -205l-304 -56q14 -42 39.5 -61.5t67.5 -19.5q29 0 69 8.5t81 23.5l23 -99q-37 -28 -96 -46t-119 -18q-117 0 -180.5 71zM334 340q-2 38 -21.5 55.5t-54.5 17.5q-29 0 -55 -8
q-21 -49 -19 -106zM112 720l306 -12v-90l-306 -9v111z" />
    <glyph glyph-name="Edotaccent" unicode="&#x116;" horiz-adv-x="623" 
d="M27 102l73 20v383q0 26 -4 34.5t-21 15.5l-50 29l3 90h543q7 -105 7 -205l-74 -5l-71 88l-151 4v-163l213 18v-154l-213 23v-161l166 3l77 88l74 -5q-4 -105 -15 -205h-552zM219 876l141 38l34 -125l-141 -38z" />
    <glyph glyph-name="edotaccent" unicode="&#x117;" horiz-adv-x="521" 
d="M78.5 59q-63.5 71 -63.5 196q0 87 31 149.5t88 95.5t133 33q113 0 173.5 -72t57.5 -205l-304 -56q14 -42 39.5 -61.5t67.5 -19.5q29 0 69 8.5t81 23.5l23 -99q-37 -28 -96 -46t-119 -18q-117 0 -180.5 71zM334 340q-2 38 -21.5 55.5t-54.5 17.5q-29 0 -55 -8
q-21 -49 -19 -106zM171 723l141 38l34 -125l-141 -38z" />
    <glyph glyph-name="Eogonek" unicode="&#x118;" horiz-adv-x="621" 
d="M332 -200.5q-43 26.5 -43 81.5q0 66 64 119h-323l-5 102l73 20v383q0 27 -3.5 34.5t-21.5 15.5l-50 29l3 90h543q7 -105 7 -205l-74 -5l-71 88l-151 4v-163l213 18v-154l-213 23v-161l166 3l77 88l74 -5q-2 -88 -15 -205q-47 -5 -94 -16t-77 -29q-4 -8 -4 -27
q0 -38 21 -55.5t64 -17.5q22 0 50 7l12 -60q-55 -29 -119 -29q-60 0 -103 26.5z" />
    <glyph glyph-name="eogonek" unicode="&#x119;" horiz-adv-x="521" 
d="M233.5 -199.5q-43.5 26.5 -43.5 80.5q0 55 50 107q-109 5 -167 77.5t-58 190.5q0 86 31 148.5t88 95.5t133 33q114 0 174 -72.5t57 -205.5l-304 -55q14 -42 39.5 -61.5t67.5 -19.5q29 0 69 8.5t81 23.5l23 -99q-19 -14 -89 -50q-30 -15 -45 -24t-28 -20q-4 -14 -4 -30
q0 -72 85 -72q22 0 50 7l12 -60q-55 -29 -119 -29q-59 0 -102.5 26.5zM334 340q-4 74 -76 74q-26 0 -55 -9q-21 -49 -19 -106z" />
    <glyph glyph-name="Ecaron" unicode="&#x11a;" horiz-adv-x="623" 
d="M27 102l73 20v383q0 26 -4 34.5t-21 15.5l-50 29l3 90h543q7 -105 7 -205l-74 -5l-71 88l-151 4v-163l213 18v-154l-213 23v-161l166 3l77 88l74 -5q-4 -105 -15 -205h-552zM115 908h83l117 -73l116 73h83l-125 -173h-149z" />
    <glyph glyph-name="ecaron" unicode="&#x11b;" horiz-adv-x="521" 
d="M78.5 59q-63.5 71 -63.5 196q0 87 31 149.5t88 95.5t133 33q113 0 173.5 -72t57.5 -205l-304 -56q14 -42 39.5 -61.5t67.5 -19.5q29 0 69 8.5t81 23.5l23 -99q-37 -28 -96 -46t-119 -18q-117 0 -180.5 71zM334 340q-2 38 -21.5 55.5t-54.5 17.5q-29 0 -55 -8
q-21 -49 -19 -106zM67 755h83l117 -73l116 73h83l-125 -173h-149z" />
    <glyph glyph-name="Gbreve" unicode="&#x11e;" horiz-adv-x="676" 
d="M110 77q-85 89 -85 264q0 107 41 184.5t119 118.5t185 41q130 0 253 -52q-10 -96 -28 -192l-76 -5l-63 92q-50 18 -124 18q-35 0 -84 -7q-18 -30 -28 -80t-10 -108q0 -115 46 -171.5t143 -57.5q24 0 61 4v73q0 20 -3 26t-17 14l-38 19l4 68l23 4q11 2 78 12.5t112 12.5
q10 -19 15 -43v-262q-58 -29 -129 -45.5t-141 -16.5q-169 0 -254 89zM237.5 774q-36.5 39 -36.5 111q0 15 1 23h56q13 -34 40.5 -51.5t73.5 -17.5q47 0 71.5 18t32.5 51h57q-6 -81 -57.5 -127t-131.5 -46q-70 0 -106.5 39z" />
    <glyph glyph-name="gbreve" unicode="&#x11f;" horiz-adv-x="572" 
d="M58.5 -192q-58.5 36 -58.5 106q0 74 68 130q-21 21 -21 46q0 36 47 102q-82 43 -82 148q0 92 62.5 142.5t180.5 50.5q83 0 136 -25l120 37h47v-145h-78q5 -25 5 -49q0 -92 -62 -140t-182 -48q-41 0 -74 6v-14q0 -16 13.5 -22.5t58.5 -12.5l90 -13q106 -15 146.5 -52
t40.5 -95q0 -90 -74 -139t-210 -49q-115 0 -173.5 36zM304 267q4 12 7.5 36t3.5 44q0 45 -19.5 67t-60.5 22q-20 0 -44 -6q-5 -12 -8.5 -35t-3.5 -44q0 -46 19 -68t58 -22q21 0 48 6zM348 -107q6 12 6 32q0 24 -17 36.5t-61 18.5l-32 5q-44 5 -89 14q-6 -27 -6 -43
q0 -36 32 -53.5t97 -17.5q46 0 70 8zM121.5 621q-36.5 39 -36.5 111q0 15 1 23h56q13 -34 40.5 -51.5t73.5 -17.5q47 0 71.5 18t32.5 51h57q-6 -81 -57.5 -127t-131.5 -46q-70 0 -106.5 39z" />
    <glyph glyph-name="Gdotaccent" unicode="&#x120;" horiz-adv-x="676" 
d="M110 77q-85 89 -85 264q0 107 41 184.5t119 118.5t185 41q130 0 253 -52q-10 -96 -28 -192l-76 -5l-63 92q-50 18 -124 18q-35 0 -84 -7q-18 -30 -28 -80t-10 -108q0 -115 46 -171.5t143 -57.5q24 0 61 4v73q0 20 -3 26t-17 14l-38 19l4 68l23 4q11 2 78 12.5t112 12.5
q10 -19 15 -43v-262q-58 -29 -129 -45.5t-141 -16.5q-169 0 -254 89zM272 876l141 38l34 -125l-141 -38z" />
    <glyph glyph-name="gdotaccent" unicode="&#x121;" horiz-adv-x="572" 
d="M58.5 -192q-58.5 36 -58.5 106q0 74 68 130q-21 21 -21 46q0 36 47 102q-82 43 -82 148q0 92 62.5 142.5t180.5 50.5q83 0 136 -25l120 37h47v-145h-78q5 -25 5 -49q0 -92 -62 -140t-182 -48q-41 0 -74 6v-14q0 -16 13.5 -22.5t58.5 -12.5l90 -13q106 -15 146.5 -52
t40.5 -95q0 -90 -74 -139t-210 -49q-115 0 -173.5 36zM304 267q4 12 7.5 36t3.5 44q0 45 -19.5 67t-60.5 22q-20 0 -44 -6q-5 -12 -8.5 -35t-3.5 -44q0 -46 19 -68t58 -22q21 0 48 6zM348 -107q6 12 6 32q0 24 -17 36.5t-61 18.5l-32 5q-44 5 -89 14q-6 -27 -6 -43
q0 -36 32 -53.5t97 -17.5q46 0 70 8zM156 723l141 38l34 -125l-141 -38z" />
    <glyph glyph-name="Gcommaaccent" unicode="&#x122;" horiz-adv-x="676" 
d="M110 77q-85 89 -85 264q0 107 41 184.5t119 118.5t185 41q130 0 253 -52q-10 -96 -28 -192l-76 -5l-63 92q-50 18 -124 18q-35 0 -84 -7q-18 -30 -28 -80t-10 -108q0 -115 46 -171.5t143 -57.5q24 0 61 4v73q0 20 -3 26t-17 14l-38 19l4 68l23 4q11 2 78 12.5t112 12.5
q10 -19 15 -43v-262q-58 -29 -129 -45.5t-141 -16.5q-169 0 -254 89zM290 -59h179v-41l-188 -132h-86z" />
    <glyph glyph-name="gcommaaccent" unicode="&#x123;" horiz-adv-x="572" 
d="M58.5 -192q-58.5 36 -58.5 106q0 74 68 130q-21 21 -21 46q0 36 47 102q-82 43 -82 148q0 92 62.5 142.5t180.5 50.5q83 0 136 -25l120 37h47v-145h-78q5 -25 5 -49q0 -92 -62 -140t-182 -48q-41 0 -74 6v-14q0 -16 13.5 -22.5t58.5 -12.5l90 -13q106 -15 146.5 -52
t40.5 -95q0 -90 -74 -139t-210 -49q-115 0 -173.5 36zM304 267q4 12 7.5 36t3.5 44q0 45 -19.5 67t-60.5 22q-20 0 -44 -6q-5 -12 -8.5 -35t-3.5 -44q0 -46 19 -68t58 -22q21 0 48 6zM348 -107q6 12 6 32q0 24 -17 36.5t-61 18.5l-32 5q-44 5 -89 14q-6 -27 -6 -43
q0 -36 32 -53.5t97 -17.5q46 0 70 8zM157 623l188 132h86l-95 -173h-179v41z" />
    <glyph glyph-name="Hbar" unicode="&#x126;" horiz-adv-x="765" 
d="M27 100l63 17v393q0 25 -3.5 33t-19.5 16l-42 25l3 90h312l5 -97l-74 -20v-47h228q0 26 -4 33.5t-21 15.5l-49 29l5 86h307l4 -100l-61 -17v-400q0 -24 3.5 -30.5t17.5 -14.5l41 -24l-4 -88h-304l-5 98l70 19v159l-228 10v-129q0 -24 3.5 -30.5t18.5 -14.5l53 -31l-4 -81
h-310zM499 398v49h-228v-55z" />
    <glyph glyph-name="hbar" unicode="&#x127;" horiz-adv-x="666" 
d="M657 75l-4 -75h-276l-5 95l49 14v190q0 44 -2.5 62.5t-16.5 28.5t-47 10q-32 0 -92 -11v-243q0 -21 3 -28t16 -15l49 -28l-4 -75h-290l-5 95l62 18v441h-67v47l67 7q-1 11 -5 16t-14 11l-44 23l3 76l31 5q132 24 185 26q9 -24 13 -52v-86l99 11v-84h-99v-69
q55 25 93.5 36.5t76.5 11.5q156 0 156 -190v-197q0 -21 3 -28t17 -15z" />
    <glyph glyph-name="Imacron" unicode="&#x12a;" horiz-adv-x="388" 
d="M32 102l73 20v383q0 26 -4 34.5t-21 15.5l-52 30l5 89h321l4 -102l-72 -20v-390q0 -24 3.5 -31t18.5 -14l51 -31l-3 -86h-319zM41 873l306 -12v-90l-306 -9v111z" />
    <glyph glyph-name="imacron" unicode="&#x12b;" horiz-adv-x="347" 
d="M25 92l70 21v243q0 22 -3.5 28.5t-17.5 14.5l-44 24l5 75q83 16 128.5 23.5t83.5 8.5q13 -43 16 -64v-320q0 -21 3 -28t17 -15l49 -28l-4 -75h-300zM15 721l306 -12v-90l-306 -9v111z" />
    <glyph glyph-name="Iogonek" unicode="&#x12e;" horiz-adv-x="388" 
d="M135 -200.5q-43 26.5 -43 81.5q0 66 64 119h-119l-5 102l73 20v383q0 26 -4 34.5t-21 15.5l-52 30l5 89h321l4 -102l-72 -20v-390q0 -24 3.5 -31t18.5 -14l51 -31l-2 -81q-38 -6 -77 -18t-66 -26q-4 -12 -4 -32q0 -39 21 -56.5t64 -17.5q22 0 50 7l12 -60
q-55 -29 -119 -29q-60 0 -103 26.5z" />
    <glyph glyph-name="iogonek" unicode="&#x12f;" horiz-adv-x="347" 
d="M67 740l170 45l41 -152l-169 -46zM100.5 -199.5q-43.5 27.5 -43.5 82.5q0 72 79 117h-108l-3 92l70 21v243q0 22 -3.5 28.5t-17.5 14.5l-44 24l5 75q83 16 128.5 23.5t83.5 8.5q13 -43 16 -64v-320q0 -21 3 -28t17 -15l49 -28l-4 -71q-92 -17 -150 -48q-4 -8 -4 -28
q0 -73 86 -73q22 0 50 7l12 -60q-55 -29 -118 -29q-60 0 -103.5 27.5z" />
    <glyph glyph-name="Idotaccent" unicode="&#x130;" horiz-adv-x="388" 
d="M32 102l73 20v383q0 26 -4 34.5t-21 15.5l-52 30l5 89h321l4 -102l-72 -20v-390q0 -24 3.5 -31t18.5 -14l51 -31l-3 -86h-319zM100 876l141 38l34 -125l-141 -38z" />
    <glyph glyph-name="dotlessi" unicode="&#x131;" horiz-adv-x="347" 
d="M25 92l70 21v243q0 22 -3.5 28.5t-17.5 14.5l-44 24l5 75q83 16 128.5 23.5t83.5 8.5q13 -43 16 -64v-320q0 -21 3 -28t17 -15l49 -28l-4 -75h-300z" />
    <glyph glyph-name="Kcommaaccent" unicode="&#x136;" horiz-adv-x="703" 
d="M27 105l63 17v383q0 26 -3.5 34.5t-19.5 15.5l-42 24l3 95h312l5 -102l-74 -20v-188l175 189q4 4 4 11q0 5 -3 9l-29 35l11 66h232l12 -68l-229 -245l245 -316v-45h-191l-227 301v-139q0 -22 3.5 -30t18.5 -16l53 -30l-4 -86h-310zM305 -54h179v-41l-188 -132h-86z" />
    <glyph glyph-name="kcommaaccent" unicode="&#x137;" horiz-adv-x="619" 
d="M26 95l62 18v479q0 22 -3 28.5t-16 14.5l-44 23l3 76l31 5q132 24 185 26q9 -24 13 -52v-407l111 108q5 5 5 11q0 5 -3 8l-28 35l11 55h222q9 -33 12 -71l-166 -142l193 -266v-44h-176l-181 260v-114q0 -21 3 -28t16 -15l49 -28l-4 -75h-290zM282 -59h179v-41l-188 -132
h-86z" />
    <glyph glyph-name="Lacute" unicode="&#x139;" horiz-adv-x="584" 
d="M27 105l63 17v383q0 26 -3.5 34.5t-19.5 15.5l-42 24l3 95h312l5 -102l-74 -20v-432l126 3l85 97l77 -4q-2 -84 -14 -216h-513zM207 908h180v-41l-188 -132h-87z" />
    <glyph glyph-name="lacute" unicode="&#x13a;" horiz-adv-x="342" 
d="M25 92l70 21v479q0 22 -3.5 28.5t-17.5 14.5l-44 23l5 76q20 4 31 5q132 24 184 26q10 -23 13 -52v-567q0 -21 3 -28t17 -15l49 -28l-4 -75h-300zM204 987h180v-41l-188 -132h-87z" />
    <glyph glyph-name="Lcommaaccent" unicode="&#x13b;" horiz-adv-x="584" 
d="M27 105l63 17v383q0 26 -3.5 34.5t-19.5 15.5l-42 24l3 95h312l5 -102l-74 -20v-432l126 3l85 97l77 -4q-2 -84 -14 -216h-513zM219 -54h179v-41l-188 -132h-86z" />
    <glyph glyph-name="lcommaaccent" unicode="&#x13c;" horiz-adv-x="342" 
d="M25 92l70 21v479q0 22 -3.5 28.5t-17.5 14.5l-44 23l5 76q20 4 31 5q132 24 184 26q10 -23 13 -52v-567q0 -21 3 -28t17 -15l49 -28l-4 -75h-300zM101 -59h179v-41l-188 -132h-86z" />
    <glyph glyph-name="Lcaron" unicode="&#x13d;" horiz-adv-x="584" 
d="M27 105l63 17v383q0 26 -3.5 34.5t-19.5 15.5l-42 24l3 95h312l5 -102l-74 -20v-432l126 3l85 97l77 -4q-2 -84 -14 -216h-513zM467 674h175v-41l-165 -135h-78z" />
    <glyph glyph-name="lcaron" unicode="&#x13e;" horiz-adv-x="342" 
d="M25 92l70 21v479q0 22 -3.5 28.5t-17.5 14.5l-44 23l5 76q20 4 31 5q132 24 184 26q10 -23 13 -52v-567q0 -21 3 -28t17 -15l49 -28l-4 -75h-300zM395 755h172v-41l-182 -135h-79z" />
    <glyph glyph-name="Lslash" unicode="&#x141;" horiz-adv-x="584" 
d="M27 105l63 17v86l-63 -42l-3 89l66 45v205q0 26 -3.5 34.5t-19.5 15.5l-42 24l3 95h312l5 -102l-74 -20v-132l148 98l5 -88l-153 -102v-208l126 3l85 97l77 -4q-2 -84 -14 -216h-513z" />
    <glyph glyph-name="lslash" unicode="&#x142;" horiz-adv-x="364" 
d="M270.5 118q3.5 -7 17.5 -15l49 -28l-4 -75h-300l-5 92l72 21v138l-66 -57l-5 89l71 62v247q0 22 -3.5 28.5t-17.5 14.5l-44 23l5 76q20 4 31 5q132 24 184 26q9 -20 12 -52v-223l75 65l5 -89l-80 -70v-250q0 -21 3.5 -28z" />
    <glyph glyph-name="Nacute" unicode="&#x143;" horiz-adv-x="748" 
d="M205 426l17 -262q1 -23 5 -30t18 -15l52 -35l-4 -84h-260l-5 109l54 13l4 394q0 19 -3 26t-14 16l-37 28l7 88h207l302 -387l-14 223q-1 24 -5 31t-18 15l-52 34l3 84h258l4 -102l-51 -22l-4 -541l-115 -38zM403 908h180v-41l-188 -132h-87z" />
    <glyph glyph-name="nacute" unicode="&#x144;" horiz-adv-x="660" 
d="M26 96l62 18v242q0 22 -3 28.5t-16 14.5l-44 24l3 75l22 4q131 26 189 28q8 -21 13 -46q61 28 99.5 38.5t72.5 10.5q159 0 159 -190v-196q0 -21 3 -28t17 -15l48 -28l-4 -75h-276l-5 95l49 14v189q0 45 -3 63t-16.5 28t-47.5 10q-36 0 -91 -11v-242q0 -21 3 -28t16 -15
l49 -28l-4 -75h-290zM353 755h180v-41l-188 -132h-87z" />
    <glyph glyph-name="Ncommaaccent" unicode="&#x145;" horiz-adv-x="748" 
d="M205 426l17 -262q1 -23 5 -30t18 -15l52 -35l-4 -84h-260l-5 109l54 13l4 394q0 19 -3 26t-14 16l-37 28l7 88h207l302 -387l-14 223q-1 24 -5 31t-18 15l-52 34l3 84h258l4 -102l-51 -22l-4 -541l-115 -38zM302 -54h179v-41l-188 -132h-86z" />
    <glyph glyph-name="ncommaaccent" unicode="&#x146;" horiz-adv-x="660" 
d="M26 96l62 18v242q0 22 -3 28.5t-16 14.5l-44 24l3 75l22 4q131 26 189 28q8 -21 13 -46q61 28 99.5 38.5t72.5 10.5q159 0 159 -190v-196q0 -21 3 -28t17 -15l48 -28l-4 -75h-276l-5 95l49 14v189q0 45 -3 63t-16.5 28t-47.5 10q-36 0 -91 -11v-242q0 -21 3 -28t16 -15
l49 -28l-4 -75h-290zM265 -54h179v-41l-188 -132h-86z" />
    <glyph glyph-name="Ncaron" unicode="&#x147;" horiz-adv-x="748" 
d="M205 426l17 -262q1 -23 5 -30t18 -15l52 -35l-4 -84h-260l-5 109l54 13l4 394q0 19 -3 26t-14 16l-37 28l7 88h207l302 -387l-14 223q-1 24 -5 31t-18 15l-52 34l3 84h258l4 -102l-51 -22l-4 -541l-115 -38zM177 908h83l117 -73l116 73h83l-125 -173h-149z" />
    <glyph glyph-name="ncaron" unicode="&#x148;" horiz-adv-x="660" 
d="M26 96l62 18v242q0 22 -3 28.5t-16 14.5l-44 24l3 75l22 4q131 26 189 28q8 -21 13 -46q61 28 99.5 38.5t72.5 10.5q159 0 159 -190v-196q0 -21 3 -28t17 -15l48 -28l-4 -75h-276l-5 95l49 14v189q0 45 -3 63t-16.5 28t-47.5 10q-36 0 -91 -11v-242q0 -21 3 -28t16 -15
l49 -28l-4 -75h-290zM127 755h83l117 -73l116 73h83l-125 -173h-149z" />
    <glyph glyph-name="Eng" unicode="&#x14a;" horiz-adv-x="748" 
d="M509 -168.5q-18 14.5 -50 52.5l95 87l-349 455l17 -262q1 -23 5 -30t18 -15l52 -35l-4 -84h-260l-5 109l54 13l4 394q0 19 -3 26t-14 16l-37 28l7 88h207l302 -387l-14 223q-1 24 -5 31t-18 15l-52 34l3 84h258l4 -102l-51 -22l-3 -413q0 -106 -14.5 -173.5t-50.5 -135.5
l-25 -44q-53 33 -71 47.5z" />
    <glyph glyph-name="eng" unicode="&#x14b;" horiz-adv-x="621" 
d="M406 -180.5q-27 20.5 -69 64.5l78 93v322q0 44 -2.5 62.5t-16.5 28.5t-47 10q-37 0 -92 -11v-242q0 -21 3 -28t16 -15l49 -28l-4 -75h-290l-5 95l62 18v242q0 22 -3 28.5t-16 14.5l-44 24l3 75l22 4q131 26 189 28q8 -21 13 -46q107 49 165 49q86 0 126 -46.5t40 -143.5
v-230q0 -109 -15 -173t-57 -126l-27 -41q-51 26 -78 46.5z" />
    <glyph glyph-name="Omacron" unicode="&#x14c;" horiz-adv-x="722" 
d="M106.5 70q-81.5 84 -81.5 255q0 111 41 192.5t117 125.5t181 44q334 0 334 -341q0 -112 -41 -193t-118.5 -124t-184.5 -43q-166 0 -247.5 84zM484 153q11 31 17 77.5t6 91.5q0 111 -41.5 168t-121.5 57q-57 0 -110 -21q-11 -19 -17 -62.5t-6 -99.5q0 -116 42 -178
t122 -62q57 0 109 29zM211 873l306 -12v-90l-306 -9v111z" />
    <glyph glyph-name="omacron" unicode="&#x14d;" horiz-adv-x="553" 
d="M77.5 52q-62.5 65 -62.5 199q0 86 31.5 150t90.5 98t139 34q259 0 259 -268q0 -131 -70.5 -204.5t-197.5 -73.5t-189.5 65zM318 107.5q15 3.5 32 11.5q6 23 10 59t4 69q0 81 -25.5 123t-75.5 42q-33 0 -67 -9q-7 -15 -11 -48.5t-4 -76.5q0 -84 26.5 -129t75.5 -45
q20 0 35 3.5zM124 721l306 -12v-90l-306 -9v111z" />
    <glyph glyph-name="Ohungarumlaut" unicode="&#x150;" horiz-adv-x="722" 
d="M106.5 70q-81.5 84 -81.5 255q0 111 41 192.5t117 125.5t181 44q334 0 334 -341q0 -112 -41 -193t-118.5 -124t-184.5 -43q-166 0 -247.5 84zM484 153q11 31 17 77.5t6 91.5q0 111 -41.5 168t-121.5 57q-57 0 -110 -21q-11 -19 -17 -62.5t-6 -99.5q0 -116 42 -178
t122 -62q57 0 109 29zM271 908h161v-41l-170 -132h-86zM488 908h161v-41l-169 -132h-87z" />
    <glyph glyph-name="ohungarumlaut" unicode="&#x151;" horiz-adv-x="553" 
d="M77.5 52q-62.5 65 -62.5 199q0 86 31.5 150t90.5 98t139 34q259 0 259 -268q0 -131 -70.5 -204.5t-197.5 -73.5t-189.5 65zM318 107.5q15 3.5 32 11.5q6 23 10 59t4 69q0 81 -25.5 123t-75.5 42q-33 0 -67 -9q-7 -15 -11 -48.5t-4 -76.5q0 -84 26.5 -129t75.5 -45
q20 0 35 3.5zM184 756h161v-41l-170 -132h-86zM401 756h161v-41l-169 -132h-87z" />
    <glyph glyph-name="OE" unicode="&#x152;" horiz-adv-x="1011" 
d="M106.5 70q-81.5 84 -81.5 255q0 111 41 192.5t117 125.5t181 44q69 0 115 -13h480q6 -95 6 -205l-74 -5l-70 88l-141 4v-163l202 18v-154l-202 23v-161l156 3l77 88l73 -5q-3 -88 -15 -205h-508q-53 -14 -109 -14q-166 0 -247.5 84zM484 153q10 31 16.5 77.5t6.5 91.5
q0 111 -41.5 168t-121.5 57q-59 0 -110 -21q-11 -19 -17 -62.5t-6 -99.5q0 -116 42 -178t122 -62q57 0 109 29z" />
    <glyph glyph-name="oe" unicode="&#x153;" horiz-adv-x="864" 
d="M77.5 52q-62.5 65 -62.5 199q0 86 31.5 150t90.5 98t139 34q110 0 175 -51q67 51 159 51q113 0 173.5 -72t57.5 -205l-303 -56q12 -42 38 -61.5t68 -19.5q29 0 69 8.5t81 23.5l24 -99q-37 -28 -96.5 -46t-119.5 -18q-99 0 -160 52q-70 -53 -175 -53q-127 0 -189.5 65z
M677 340q-2 33 -18.5 52.5t-44.5 20.5l-17 1q-28 0 -51 -9q-20 -49 -18 -106zM318 107.5q15 3.5 32 11.5q6 23 10 59t4 69q0 81 -25.5 123t-75.5 42q-33 0 -67 -9q-7 -15 -11 -48.5t-4 -76.5q0 -84 26.5 -129t75.5 -45q20 0 35 3.5z" />
    <glyph glyph-name="Racute" unicode="&#x154;" horiz-adv-x="674" 
d="M37 102l73 20v381q0 26 -4 34.5t-21 15.5l-52 29l6 82q150 22 289 22q108 0 174 -21.5t96.5 -67t30.5 -120.5q0 -62 -32 -108.5t-91 -71.5l160 -258l-1 -39h-182l-148 267l-44 1v-112q0 -24 3.5 -30.5t17.5 -14.5l43 -25l-4 -86h-309zM433 390q10 36 10 86t-21.5 71
t-71.5 21q-28 0 -57 -3v-179q26 -6 62 -6q53 0 78 10zM370 908h180v-41l-188 -132h-87z" />
    <glyph glyph-name="racute" unicode="&#x155;" horiz-adv-x="426" 
d="M27 95l61 18v243q0 22 -3 28.5t-16 14.5l-44 24l3 75q17 4 29 5q121 25 179 27q9 -26 17 -65q60 47 102 65h57q-1 -38 -5 -82.5t-10 -71.5q-36 2 -53 2q-42 0 -87 -5v-227q0 -21 3 -28t16 -15l60 -32l-4 -71h-300zM215 755h180v-41l-188 -132h-87z" />
    <glyph glyph-name="Rcommaaccent" unicode="&#x156;" horiz-adv-x="674" 
d="M37 102l73 20v381q0 26 -4 34.5t-21 15.5l-52 29l6 82q150 22 289 22q108 0 174 -21.5t96.5 -67t30.5 -120.5q0 -62 -32 -108.5t-91 -71.5l160 -258l-1 -39h-182l-148 267l-44 1v-112q0 -24 3.5 -30.5t17.5 -14.5l43 -25l-4 -86h-309zM433 390q10 36 10 86t-21.5 71
t-71.5 21q-28 0 -57 -3v-179q26 -6 62 -6q53 0 78 10zM317 -54h179v-41l-188 -132h-86z" />
    <glyph glyph-name="rcommaaccent" unicode="&#x157;" horiz-adv-x="426" 
d="M27 95l61 18v243q0 22 -3 28.5t-16 14.5l-44 24l3 75q17 4 29 5q121 25 179 27q9 -26 17 -65q60 47 102 65h57q-1 -38 -5 -82.5t-10 -71.5q-36 2 -53 2q-42 0 -87 -5v-227q0 -21 3 -28t16 -15l60 -32l-4 -71h-300zM105 -59h179v-41l-188 -132h-86z" />
    <glyph glyph-name="Rcaron" unicode="&#x158;" horiz-adv-x="674" 
d="M37 102l73 20v381q0 26 -4 34.5t-21 15.5l-52 29l6 82q150 22 289 22q108 0 174 -21.5t96.5 -67t30.5 -120.5q0 -62 -32 -108.5t-91 -71.5l160 -258l-1 -39h-182l-148 267l-44 1v-112q0 -24 3.5 -30.5t17.5 -14.5l43 -25l-4 -86h-309zM433 390q10 36 10 86t-21.5 71
t-71.5 21q-28 0 -57 -3v-179q26 -6 62 -6q53 0 78 10zM144 908h83l117 -73l116 73h83l-125 -173h-149z" />
    <glyph glyph-name="rcaron" unicode="&#x159;" horiz-adv-x="426" 
d="M27 95l61 18v243q0 22 -3 28.5t-16 14.5l-44 24l3 75q17 4 29 5q121 25 179 27q9 -26 17 -65q60 47 102 65h57q-1 -38 -5 -82.5t-10 -71.5q-36 2 -53 2q-42 0 -87 -5v-227q0 -21 3 -28t16 -15l60 -32l-4 -71h-300zM-11 755h83l117 -73l116 73h83l-125 -173h-149z" />
    <glyph glyph-name="Sacute" unicode="&#x15a;" horiz-adv-x="571" 
d="M28 22q5 99 16 184l77 15l50 -85q60 -21 106 -21q16 0 68 9q2 20 2 27q0 24 -8 36.5t-35 28t-97 46.5q-86 42 -124 90.5t-38 114.5q0 103 70 161t192 58q59 0 117.5 -11.5t102.5 -31.5q-2 -56 -9 -139l-3 -43l-73 -11l-76 97q-36 11 -90 11q-34 0 -51 -6q-5 -20 -5 -31
q0 -22 11 -38.5t39 -34t83 -43.5q80 -38 121 -67t57.5 -60.5t16.5 -76.5q0 -99 -79 -156t-218 -57q-110 0 -223 34zM333 908h180v-41l-188 -132h-87z" />
    <glyph glyph-name="sacute" unicode="&#x15b;" horiz-adv-x="461" 
d="M28 11q6 98 13 145l57 11l63 -67q33 -10 74 -10q23 0 36 3q3 8 3 22q0 12 -5.5 20t-24.5 19t-66 34q-59 31 -90 55.5t-44.5 50.5t-13.5 62q0 80 59.5 127t161.5 47q42 0 88.5 -9.5t83.5 -25.5q0 -65 -9 -145l-52 -8l-67 72q-26 8 -76 8q-8 0 -32 -2q-3 -6 -3 -19
q0 -14 8 -24.5t28.5 -23t65.5 -35.5q66 -32 99.5 -55.5t47 -47.5t13.5 -58q0 -82 -62.5 -128t-172.5 -46q-79 0 -183 28zM271 756h180v-41l-188 -132h-87z" />
    <glyph glyph-name="Scedilla" unicode="&#x15e;" horiz-adv-x="571" 
d="M482.5 55.5q-65.5 -55.5 -182.5 -65.5l-17 -25q24 -5 56 -14q30 -11 45 -26t15 -42q0 -53 -56.5 -81.5t-154.5 -28.5l-10 37q36 0 66 6t44 16q2 12 2 19q0 17 -15 24t-64 13v20l23 80q-100 3 -206 34q5 99 16 184l77 15l50 -85q60 -21 106 -21q16 0 68 9q2 20 2 27
q0 24 -8 36.5t-35 28t-97 46.5q-86 42 -124 90.5t-38 114.5q0 103 70 161t192 58q59 0 117.5 -11.5t102.5 -31.5q-2 -56 -9 -139l-3 -43l-73 -11l-76 97q-36 11 -90 11q-34 0 -51 -6q-5 -20 -5 -31q0 -22 11 -38.5t39 -34t83 -43.5q80 -38 121 -67t57.5 -60.5t16.5 -76.5
q0 -90 -65.5 -145.5z" />
    <glyph glyph-name="scedilla" unicode="&#x15f;" horiz-adv-x="461" 
d="M389 33.5q-57 -45.5 -159 -50.5l-19 -27q24 -5 56 -14q30 -11 45 -26t15 -42q0 -53 -56.5 -81.5t-154.5 -28.5l-10 37q36 0 66 6t44 16q2 12 2 19q0 17 -15 24t-64 13v20l25 86q-63 6 -136 26q6 98 13 145l57 11l63 -67q33 -10 74 -10q23 0 36 3q3 8 3 22q0 12 -5.5 20
t-24.5 19t-66 34q-59 31 -90 55.5t-44.5 50.5t-13.5 62q0 80 59.5 127t161.5 47q42 0 88.5 -9.5t83.5 -25.5q0 -65 -9 -145l-52 -8l-67 72q-26 8 -76 8q-8 0 -32 -2q-3 -6 -3 -19q0 -14 8 -24.5t28.5 -23t65.5 -35.5q66 -32 99.5 -55.5t47 -47.5t13.5 -58q0 -78 -57 -123.5z
" />
    <glyph glyph-name="Scaron" unicode="&#x160;" horiz-adv-x="571" 
d="M28 22q5 99 16 184l77 15l50 -85q60 -21 106 -21q16 0 68 9q2 20 2 27q0 24 -8 36.5t-35 28t-97 46.5q-86 42 -124 90.5t-38 114.5q0 103 70 161t192 58q59 0 117.5 -11.5t102.5 -31.5q-2 -56 -9 -139l-3 -43l-73 -11l-76 97q-36 11 -90 11q-34 0 -51 -6q-5 -20 -5 -31
q0 -22 11 -38.5t39 -34t83 -43.5q80 -38 121 -67t57.5 -60.5t16.5 -76.5q0 -99 -79 -156t-218 -57q-110 0 -223 34zM107 908h83l117 -73l116 73h83l-125 -173h-149z" />
    <glyph glyph-name="scaron" unicode="&#x161;" horiz-adv-x="461" 
d="M28 11q6 98 13 145l57 11l63 -67q33 -10 74 -10q23 0 36 3q3 8 3 22q0 12 -5.5 20t-24.5 19t-66 34q-59 31 -90 55.5t-44.5 50.5t-13.5 62q0 80 59.5 127t161.5 47q42 0 88.5 -9.5t83.5 -25.5q0 -65 -9 -145l-52 -8l-67 72q-26 8 -76 8q-8 0 -32 -2q-3 -6 -3 -19
q0 -14 8 -24.5t28.5 -23t65.5 -35.5q66 -32 99.5 -55.5t47 -47.5t13.5 -58q0 -82 -62.5 -128t-172.5 -46q-79 0 -183 28zM45 756h83l117 -73l116 73h83l-125 -173h-149z" />
    <glyph glyph-name="uni0162" unicode="&#x162;" horiz-adv-x="699" 
d="M670 465l-72 -6l-75 89l-82 7v-393q0 -24 3 -31t17 -14l62 -37l-4 -80h-148l-24 -35q24 -5 56 -14q30 -11 45 -26t15 -42q0 -53 -56.5 -81.5t-154.5 -28.5l-10 37q36 0 66 6t44 16q2 12 2 19q0 17 -15 24t-64 13v20l27 92h-125l-5 98l87 24v433l-84 -7l-74 -89l-73 6
q0 83 8 209h626q8 -126 8 -209z" />
    <glyph glyph-name="uni0163" unicode="&#x163;" horiz-adv-x="416" 
d="M321 -80q15 -15 15 -42q0 -53 -56.5 -81.5t-154.5 -28.5l-10 37q36 0 66 6t44 16q2 12 2 19q0 17 -15 24t-64 13v20l26 88q-63 10 -93.5 53t-30.5 119v243h-70v73l180 164l58 -7v-113h168v-118h-168v-206q0 -48 13.5 -64t52.5 -16q33 0 92 9l12 -102q-33 -15 -72 -25.5
t-77 -12.5l-19 -28q24 -5 56 -14q30 -11 45 -26z" />
    <glyph glyph-name="Tcaron" unicode="&#x164;" horiz-adv-x="699" 
d="M172 98l87 24v433l-84 -7l-74 -89l-73 6q0 83 8 209h626q8 -126 8 -209l-72 -6l-75 89l-82 7v-393q0 -24 3 -31t17 -14l62 -37l-4 -80h-342zM150 908h83l117 -73l116 73h83l-125 -173h-149z" />
    <glyph glyph-name="tcaron" unicode="&#x165;" horiz-adv-x="416" 
d="M433 765h173v-41l-183 -135h-78zM92 30.5q-42 43.5 -42 132.5v243h-70v73l180 164l58 -7v-113h168v-118h-168v-206q0 -48 13.5 -64t52.5 -16q33 0 92 9l12 -102q-36 -17 -80.5 -28t-85.5 -11q-88 0 -130 43.5z" />
    <glyph glyph-name="Tbar" unicode="&#x166;" horiz-adv-x="699" 
d="M441 555v-170l84 4v-109l-84 3v-121q0 -24 3 -31t17 -14l62 -37l-4 -80h-342l-5 98l87 24v168l-100 4v79l100 4v178l-84 -7l-74 -89l-73 6q0 83 8 209h626q8 -126 8 -209l-72 -6l-75 89z" />
    <glyph glyph-name="tbar" unicode="&#x167;" horiz-adv-x="416" 
d="M388 26q-36 -17 -80.5 -28t-85.5 -11q-88 0 -130 43.5t-42 132.5v71l-70 2v63l70 5v102h-70v73l180 164l58 -7v-113h168v-118h-168v-90l168 11v-101l-168 5v-31q0 -48 13.5 -64t52.5 -16q33 0 92 9z" />
    <glyph glyph-name="Umacron" unicode="&#x16a;" horiz-adv-x="753" 
d="M148.5 64.5q-68.5 77.5 -68.5 243.5v197q0 26 -3.5 34.5t-19.5 15.5l-32 19l3 100h312l5 -99l-83 -23v-205q0 -104 30 -164t103 -60q24 0 46.5 7t38.5 19q10 23 14 61.5t4 103.5v191q0 26 -4 34.5t-21 15.5l-49 28l5 91h297l5 -108l-52 -14v-226q0 -161 -82.5 -250
t-232.5 -89q-147 0 -215.5 77.5zM233 873l306 -12v-90l-306 -9v111z" />
    <glyph glyph-name="umacron" unicode="&#x16b;" horiz-adv-x="612" 
d="M87 33.5q-39 47.5 -39 143.5v179q0 22 -3.5 28.5t-17.5 14.5l-45 24l5 75q14 2 20 4q11 2 78.5 14t112.5 14q11 -25 17 -58v-252q0 -44 2.5 -62t16 -27.5t46.5 -9.5q48 0 93 17v218q0 22 -3 28.5t-16 14.5l-44 24l4 75q81 15 126.5 23t83.5 9q11 -25 17 -58v-328
q0 -18 3 -25t14 -14l40 -23l-3 -62q-43 -11 -99 -19.5t-104 -10.5q-4 12 -9 30q-1 8 -5 19h-3q-41 -24 -86.5 -38.5t-82.5 -14.5q-80 0 -119 47.5zM129 720l306 -12v-90l-306 -9v111z" />
    <glyph glyph-name="Uring" unicode="&#x16e;" horiz-adv-x="753" 
d="M148.5 64.5q-68.5 77.5 -68.5 243.5v197q0 26 -3.5 34.5t-19.5 15.5l-32 19l3 100h312l5 -99l-83 -23v-205q0 -104 30 -164t103 -60q24 0 46.5 7t38.5 19q10 23 14 61.5t4 103.5v191q0 26 -4 34.5t-21 15.5l-49 28l5 91h297l5 -108l-52 -14v-226q0 -161 -82.5 -250
t-232.5 -89q-147 0 -215.5 77.5zM293 759q-29 23 -29 73q0 46 34 74t90 28q121 0 121 -97q0 -48 -32.5 -74.5t-91.5 -26.5q-63 0 -92 23zM419 794q6 26 6 37q0 46 -42 46q-21 0 -29 -2q-6 -14 -6 -35q0 -24 10.5 -37t30.5 -13t30 4z" />
    <glyph glyph-name="uring" unicode="&#x16f;" horiz-adv-x="612" 
d="M87 33.5q-39 47.5 -39 143.5v179q0 22 -3.5 28.5t-17.5 14.5l-45 24l5 75q14 2 20 4q11 2 78.5 14t112.5 14q11 -25 17 -58v-252q0 -44 2.5 -62t16 -27.5t46.5 -9.5q48 0 93 17v218q0 22 -3 28.5t-16 14.5l-44 24l4 75q81 15 126.5 23t83.5 9q11 -25 17 -58v-328
q0 -18 3 -25t14 -14l40 -23l-3 -62q-43 -11 -99 -19.5t-104 -10.5q-4 12 -9 30q-1 8 -5 19h-3q-41 -24 -86.5 -38.5t-82.5 -14.5q-80 0 -119 47.5zM189 606q-29 23 -29 73q0 46 34 74t90 28q121 0 121 -97q0 -48 -32.5 -74.5t-91.5 -26.5q-63 0 -92 23zM315 641q6 26 6 37
q0 46 -42 46q-21 0 -29 -2q-6 -14 -6 -35q0 -24 10.5 -37t30.5 -13t30 4z" />
    <glyph glyph-name="Uhungarumlaut" unicode="&#x170;" horiz-adv-x="753" 
d="M148.5 64.5q-68.5 77.5 -68.5 243.5v197q0 26 -3.5 34.5t-19.5 15.5l-32 19l3 100h312l5 -99l-83 -23v-205q0 -104 30 -164t103 -60q24 0 46.5 7t38.5 19q10 23 14 61.5t4 103.5v191q0 26 -4 34.5t-21 15.5l-49 28l5 91h297l5 -108l-52 -14v-226q0 -161 -82.5 -250
t-232.5 -89q-147 0 -215.5 77.5zM293 908h161v-41l-170 -132h-86zM510 908h161v-41l-169 -132h-87z" />
    <glyph glyph-name="uhungarumlaut" unicode="&#x171;" horiz-adv-x="612" 
d="M87 33.5q-39 47.5 -39 143.5v179q0 22 -3.5 28.5t-17.5 14.5l-45 24l5 75q14 2 20 4q11 2 78.5 14t112.5 14q11 -25 17 -58v-252q0 -44 2.5 -62t16 -27.5t46.5 -9.5q48 0 93 17v218q0 22 -3 28.5t-16 14.5l-44 24l4 75q81 15 126.5 23t83.5 9q11 -25 17 -58v-328
q0 -18 3 -25t14 -14l40 -23l-3 -62q-43 -11 -99 -19.5t-104 -10.5q-4 12 -9 30q-1 8 -5 19h-3q-41 -24 -86.5 -38.5t-82.5 -14.5q-80 0 -119 47.5zM189 755h161v-41l-170 -132h-86zM406 755h161v-41l-169 -132h-87z" />
    <glyph glyph-name="Uogonek" unicode="&#x172;" horiz-adv-x="753" 
d="M333 -200.5q-43 26.5 -43 81.5q0 58 50 106q-134 6 -197 84.5t-63 236.5v197q0 26 -3.5 34.5t-19.5 15.5l-32 19l3 100h312l5 -99l-83 -23v-205q0 -104 30 -164t103 -60q24 0 46.5 7t38.5 19q10 23 14 61.5t4 103.5v191q0 26 -4 34.5t-21 15.5l-49 28l5 91h297l5 -108
l-52 -14v-226q0 -210 -140 -297l-47 -27q-64 -35 -80 -47q-4 -10 -4 -28q0 -72 85 -72q22 0 50 7l12 -60q-55 -29 -119 -29q-60 0 -103 26.5z" />
    <glyph glyph-name="uogonek" unicode="&#x173;" horiz-adv-x="612" 
d="M364.5 -200.5q-43.5 26.5 -43.5 80.5q0 35 18.5 68.5t49.5 53.5l-9 37h-5q-41 -24 -86.5 -38.5t-82.5 -14.5q-80 0 -119 47.5t-39 143.5v179q0 22 -3.5 28.5t-17.5 14.5l-45 24l5 75q14 2 20 4q11 2 78.5 14t112.5 14q11 -21 17 -58v-252q0 -44 2.5 -62t16 -27.5
t46.5 -9.5q42 0 93 17v218q0 22 -3 28.5t-16 14.5l-44 24l4 75q81 15 126.5 23t83.5 9q11 -21 17 -58v-328q0 -18 3 -25t14 -14l40 -23l-1 -57q-108 -34 -153 -65q-5 -20 -5 -34q0 -71 86 -71q22 0 48 7l13 -60q-55 -29 -120 -29q-58 0 -101.5 26.5z" />
    <glyph glyph-name="Wcircumflex" unicode="&#x174;" horiz-adv-x="1092" 
d="M59 557l-34 47l4 70h287l6 -95l-72 -19l124 -387l99 308l-44 129l4 64h266l6 -95l-66 -19l123 -387l115 354q3 8 3 14q0 13 -13 17l-68 28l6 88h262l5 -85l-41 -56l-210 -537l-175 -17l-105 306l-108 -289l-185 -17zM492 908h149l125 -173h-83l-117 73l-116 -73h-83z" />
    <glyph glyph-name="wcircumflex" unicode="&#x175;" horiz-adv-x="812" 
d="M20 386q-11 27 -15 35t-15 22l-17 22l5 58h253l10 -85l-55 -13l68 -243l99 333l103 14l114 -356l64 230q2 6 2 9q0 9 -9 12l-48 20l10 79h190l10 -78l-172 -450l-144 -11l-83 278l-91 -267l-144 -11zM340 756h149l125 -173h-83l-117 73l-116 -73h-83z" />
    <glyph glyph-name="Ycircumflex" unicode="&#x176;" horiz-adv-x="673" 
d="M160 98l86 24v132l-183 293l-46 57l4 70h293l10 -95l-65 -18l105 -178l87 147q4 7 4 14q0 11 -12 16l-58 26l7 88h252l7 -94l-40 -24l-184 -270v-124q0 -24 3.5 -31t17.5 -14l62 -37l-4 -80h-341zM285 908h149l125 -173h-83l-117 73l-116 -73h-83z" />
    <glyph glyph-name="ycircumflex" unicode="&#x177;" horiz-adv-x="537" 
d="M51 -105l111 109l-145 382q-11 27 -15 35t-15 22l-17 22l5 58h256l10 -85l-58 -14l82 -251l92 230q2 6 2 9q0 9 -8 12l-47 20l9 79h190l9 -81l-128 -279q-69 -151 -114 -237t-91 -155q-72 48 -128 124zM197 756h149l125 -173h-83l-117 73l-116 -73h-83z" />
    <glyph glyph-name="Ydieresis" unicode="&#x178;" horiz-adv-x="673" 
d="M160 98l86 24v132l-183 293l-46 57l4 70h293l10 -95l-65 -18l105 -178l87 147q4 7 4 14q0 11 -12 16l-58 26l7 88h252l7 -94l-40 -24l-184 -270v-124q0 -24 3.5 -31t17.5 -14l62 -37l-4 -80h-341zM153 882l141 38l34 -125l-141 -38zM390 882l140 38l34 -125l-140 -38z
" />
    <glyph glyph-name="Zacute" unicode="&#x179;" horiz-adv-x="625" 
d="M28 124l313 417l-141 -10l-79 -86l-79 15l27 214h502l10 -114l-322 -427l193 12l70 89l84 -19q-17 -148 -27 -215h-544zM352 908h180v-41l-188 -132h-87z" />
    <glyph glyph-name="zacute" unicode="&#x17a;" horiz-adv-x="512" 
d="M25 103l259 305l-121 -9l-51 -68l-67 11q8 116 16 181h403l14 -118l-240 -290l126 9l59 70l69 -14q-5 -76 -19 -180h-439zM294 756h180v-41l-188 -132h-87z" />
    <glyph glyph-name="Zdotaccent" unicode="&#x17b;" horiz-adv-x="625" 
d="M28 124l313 417l-141 -10l-79 -86l-79 15l27 214h502l10 -114l-322 -427l193 12l70 89l84 -19q-17 -148 -27 -215h-544zM230 876l141 38l34 -125l-141 -38z" />
    <glyph glyph-name="zdotaccent" unicode="&#x17c;" horiz-adv-x="512" 
d="M25 103l259 305l-121 -9l-51 -68l-67 11q8 116 16 181h403l14 -118l-240 -290l126 9l59 70l69 -14q-5 -76 -19 -180h-439zM172 724l141 38l34 -125l-141 -38z" />
    <glyph glyph-name="Zcaron" unicode="&#x17d;" horiz-adv-x="625" 
d="M28 124l313 417l-141 -10l-79 -86l-79 15l27 214h502l10 -114l-322 -427l193 12l70 89l84 -19q-17 -148 -27 -215h-544zM126 908h83l117 -73l116 73h83l-125 -173h-149z" />
    <glyph glyph-name="zcaron" unicode="&#x17e;" horiz-adv-x="512" 
d="M25 103l259 305l-121 -9l-51 -68l-67 11q8 116 16 181h403l14 -118l-240 -290l126 9l59 70l69 -14q-5 -76 -19 -180h-439zM68 756h83l117 -73l116 73h83l-125 -173h-149z" />
    <glyph glyph-name="florin" unicode="&#x192;" horiz-adv-x="556" 
d="M-43 -153l43 136q43 -12 74.5 -16t63.5 -3l52 370l-71 1l14 98l72 4l9 65q12 91 71.5 141.5t152.5 50.5q62 0 133 -13l-42 -136q-44 12 -75.5 16t-62.5 3l-18 -118l116 6l-18 -123l-113 2l-44 -307q-12 -90 -71.5 -140.5t-152.5 -50.5q-63 0 -133 14z" />
    <glyph glyph-name="Scommaaccent" unicode="&#x218;" horiz-adv-x="571" 
d="M28 22q5 99 16 184l77 15l50 -85q60 -21 106 -21q16 0 68 9q2 20 2 27q0 24 -8 36.5t-35 28t-97 46.5q-86 42 -124 90.5t-38 114.5q0 103 70 161t192 58q59 0 117.5 -11.5t102.5 -31.5q-2 -56 -9 -139l-3 -43l-73 -11l-76 97q-36 11 -90 11q-34 0 -51 -6q-5 -20 -5 -31
q0 -22 11 -38.5t39 -34t83 -43.5q80 -38 121 -67t57.5 -60.5t16.5 -76.5q0 -99 -79 -156t-218 -57q-110 0 -223 34zM206 -54h179v-41l-188 -132h-86z" />
    <glyph glyph-name="scommaaccent" unicode="&#x219;" horiz-adv-x="461" 
d="M28 11q6 98 13 145l57 11l63 -67q33 -10 74 -10q23 0 36 3q3 8 3 22q0 12 -5.5 20t-24.5 19t-66 34q-59 31 -90 55.5t-44.5 50.5t-13.5 62q0 80 59.5 127t161.5 47q42 0 88.5 -9.5t83.5 -25.5q0 -65 -9 -145l-52 -8l-67 72q-26 8 -76 8q-8 0 -32 -2q-3 -6 -3 -19
q0 -14 8 -24.5t28.5 -23t65.5 -35.5q66 -32 99.5 -55.5t47 -47.5t13.5 -58q0 -82 -62.5 -128t-172.5 -46q-79 0 -183 28zM134 -63h179v-41l-188 -132h-86z" />
    <glyph glyph-name="uni021A" unicode="&#x21a;" horiz-adv-x="699" 
d="M172 98l87 24v433l-84 -7l-74 -89l-73 6q0 83 8 209h626q8 -126 8 -209l-72 -6l-75 89l-82 7v-393q0 -24 3 -31t17 -14l62 -37l-4 -80h-342zM270 -54h179v-41l-188 -132h-86z" />
    <glyph glyph-name="uni021B" unicode="&#x21b;" horiz-adv-x="416" 
d="M92 30.5q-42 43.5 -42 132.5v243h-70v73l180 164l58 -7v-113h168v-118h-168v-206q0 -48 13.5 -64t52.5 -16q33 0 92 9l12 -102q-36 -17 -80.5 -28t-85.5 -11q-88 0 -130 43.5zM143 -59h179v-41l-188 -132h-86z" />
    <glyph glyph-name="circumflex" unicode="&#x2c6;" horiz-adv-x="570" 
d="M210 756h149l125 -173h-83l-117 73l-116 -73h-83z" />
    <glyph glyph-name="caron" unicode="&#x2c7;" horiz-adv-x="570" 
d="M83 756h83l117 -73l116 73h83l-125 -173h-149z" />
    <glyph glyph-name="breve" unicode="&#x2d8;" horiz-adv-x="570" 
d="M156.5 622q-36.5 39 -36.5 111q0 15 1 23h56q13 -34 40.5 -51.5t73.5 -17.5q47 0 71.5 18t32.5 51h57q-6 -81 -57.5 -127t-131.5 -46q-70 0 -106.5 39z" />
    <glyph glyph-name="dotaccent" unicode="&#x2d9;" horiz-adv-x="570" 
d="M200 713l141 38l34 -125l-141 -38z" />
    <glyph glyph-name="ring" unicode="&#x2da;" horiz-adv-x="570" 
d="M185 606q-29 23 -29 73q0 46 34 74t90 28q121 0 121 -97q0 -48 -32.5 -74.5t-91.5 -26.5q-63 0 -92 23zM311 641q6 26 6 37q0 46 -42 46q-21 0 -29 -2q-6 -14 -6 -35q0 -24 10.5 -37t30.5 -13t30 4z" />
    <glyph glyph-name="ogonek" unicode="&#x2db;" horiz-adv-x="570" 
d="M181 -200.5q-43 26.5 -43 82.5q0 63 60 115t165 78l44 -51q-105 -31 -148 -69q-4 -8 -4 -27q0 -38 21 -55.5t64 -17.5q22 0 50 7l12 -60q-58 -29 -119 -29q-59 0 -102 26.5z" />
    <glyph glyph-name="tilde" unicode="&#x2dc;" horiz-adv-x="570" 
d="M258 619q-20 7 -40 12.5t-33 5.5q-6 -3 -13.5 -10.5t-16.5 -20.5h-55q16 71 42.5 104t67.5 33q20 0 41.5 -5.5t51.5 -16.5q5 -2 30 -10t44 -8q5 3 12 11t17 20h55q-16 -71 -42.5 -104t-67.5 -33q-31 0 -93 22z" />
    <glyph glyph-name="hungarumlaut" unicode="&#x2dd;" horiz-adv-x="570" 
d="M69 756h161v-41l-170 -132h-86zM286 756h161v-41l-169 -132h-87z" />
    <glyph glyph-name="gravecomb" unicode="&#x300;" 
d="M-496 715v41h180l95 -173h-86z" />
    <glyph glyph-name="acutecomb" unicode="&#x301;" 
d="M-258 756h180v-41l-188 -132h-87z" />
    <glyph glyph-name="uni0302" unicode="&#x302;" 
d="M-337 756h149l125 -173h-83l-117 73l-116 -73h-83z" />
    <glyph glyph-name="tildecomb" unicode="&#x303;" 
d="M-279 619q-20 7 -40 12.5t-33 5.5q-6 -3 -13.5 -10.5t-16.5 -20.5h-55q16 71 42.5 104t67.5 33q20 0 41.5 -5.5t51.5 -16.5q5 -2 30 -10t44 -8q5 3 12 11t17 20h55q-16 -71 -42.5 -104t-67.5 -33q-31 0 -93 22z" />
    <glyph glyph-name="uni0304" unicode="&#x304;" 
d="M-410 721l306 -12v-90l-306 -9v111z" />
    <glyph glyph-name="uni0306" unicode="&#x306;" 
d="M-366.5 622q-36.5 39 -36.5 111q0 15 1 23h56q13 -34 40.5 -51.5t73.5 -17.5q47 0 71.5 18t32.5 51h57q-6 -81 -57.5 -127t-131.5 -46q-70 0 -106.5 39z" />
    <glyph glyph-name="uni0307" unicode="&#x307;" 
d="M-277 713l141 38l34 -125l-141 -38z" />
    <glyph glyph-name="uni0308" unicode="&#x308;" 
d="M-443 713l141 38l34 -125l-141 -38zM-206 713l140 38l34 -125l-140 -38z" />
    <glyph glyph-name="uni030A" unicode="&#x30a;" 
d="M-308 606q-29 23 -29 73q0 46 34 74t90 28q121 0 121 -97q0 -48 -32.5 -74.5t-91.5 -26.5q-63 0 -92 23zM-182 641q6 26 6 37q0 46 -42 46q-21 0 -29 -2q-6 -14 -6 -35q0 -24 10.5 -37t30.5 -13t30 4z" />
    <glyph glyph-name="uni030B" unicode="&#x30b;" 
d="M-414 756h161v-41l-170 -132h-86zM-197 756h161v-41l-169 -132h-87z" />
    <glyph glyph-name="uni030C" unicode="&#x30c;" 
d="M-458 756h83l117 -73l116 73h83l-125 -173h-149z" />
    <glyph glyph-name="uni0312" unicode="&#x312;" 
d="M-394 624l188 132h86l-95 -173h-179v41z" />
    <glyph glyph-name="uni0326" unicode="&#x326;" 
d="M-372 -54h179v-41l-188 -132h-86z" />
    <glyph glyph-name="uni0327" unicode="&#x327;" 
d="M-334 -190q36 0 66 6t44 16q2 12 2 19q0 17 -15 24t-64 13v20l33 113h78l-39 -56q24 -5 56 -14q30 -11 45 -26t15 -42q0 -53 -56.5 -81.5t-154.5 -28.5z" />
    <glyph glyph-name="uni0328" unicode="&#x328;" 
d="M-291 -200.5q-43 26.5 -43 82.5q0 63 60 115t165 78l44 -51q-105 -31 -148 -69q-4 -8 -4 -27q0 -38 21 -55.5t64 -17.5q22 0 50 7l12 -60q-58 -29 -119 -29q-59 0 -102 26.5z" />
    <glyph glyph-name="uni0335" unicode="&#x335;" 
d="M-384 248v44l296 24v-81z" />
    <glyph glyph-name="uni0336" unicode="&#x336;" 
d="M-509 310h418v-62h-418v62z" />
    <glyph glyph-name="uni0337" unicode="&#x337;" 
d="M-401 176l313 272l5 -89l-313 -273z" />
    <glyph glyph-name="uni0338" unicode="&#x338;" 
d="M-64 674h83l-416 -674h-85z" />
    <glyph glyph-name="pi" unicode="&#x3c0;" horiz-adv-x="902" 
d="M577 11.5q-34 27.5 -34 87.5q0 17 3 35l41 299h-158l-52 -433h-188l71 433h-77q-6 -33 -6 -68q0 -13 2 -41q-80 -19 -142 -24q-2 18 -2 51q0 107 58 160.5t176 54.5h589l-19 -133h-78l-36 -252q-3 -18 -3 -34q0 -29 15 -39t54 -10l-14 -97q-59 -17 -107 -17
q-59 0 -93 27.5z" />
    <glyph glyph-name="uni05B0" unicode="&#x5b0;" 
d="M244 -98l72 42l40 -67l-71 -42zM244 -218l72 42l40 -67l-71 -42z" />
    <glyph glyph-name="uni05B1" unicode="&#x5b1;" 
d="M110 -98l72 42l40 -67l-71 -42zM244 -98l72 42l40 -67l-71 -42zM378 -98l72 42l40 -67l-71 -42zM178 -218l72 42l40 -67l-71 -42zM378 -218l72 42l40 -67l-71 -42z" />
    <glyph glyph-name="uni05B2" unicode="&#x5b2;" 
d="M373 -98l72 42l40 -67l-71 -42zM116 -74h212v-58l-212 -8v66zM373 -218l72 42l40 -67l-71 -42z" />
    <glyph glyph-name="uni05B3" unicode="&#x5b3;" 
d="M371 -98l72 42l40 -67l-71 -42zM197 -137l-80 -3v66h212v-58l-82 -3l6 -111h-62zM371 -218l72 42l40 -67l-71 -42z" />
    <glyph glyph-name="uni05B4" unicode="&#x5b4;" 
d="M232 -104l88 51l47 -80l-87 -51z" />
    <glyph glyph-name="uni05B5" unicode="&#x5b5;" 
d="M177 -98l72 42l40 -67l-71 -42zM311 -98l72 42l40 -67l-71 -42z" />
    <glyph glyph-name="uni05B6" unicode="&#x5b6;" 
d="M177 -98l72 42l40 -67l-71 -42zM311 -98l72 42l40 -67l-71 -42zM245 -218l72 42l40 -67l-71 -42z" />
    <glyph glyph-name="uni05B7" unicode="&#x5b7;" 
d="M189 -66h222v-61l-222 -8v69z" />
    <glyph glyph-name="uni05B8" unicode="&#x5b8;" 
d="M274 -132l-85 -3v69h222v-61l-84 -3l6 -112h-66z" />
    <glyph glyph-name="uni05B9" unicode="&#x5b9;" 
d="M238 664l80 46l44 -73l-78 -46z" />
    <glyph glyph-name="uni05BA" unicode="&#x5ba;" 
d="M238 664l80 46l44 -73l-78 -46z" />
    <glyph glyph-name="uni05BB" unicode="&#x5bb;" 
d="M244 -98l72 42l40 -67l-71 -42zM330 -175l72 42l40 -67l-71 -42zM416 -252l72 42l40 -67l-71 -42z" />
    <glyph glyph-name="uni05BC" unicode="&#x5bc;" 
d="M238 289l80 46l44 -74l-78 -46z" />
    <glyph glyph-name="uni05BE" unicode="&#x5be;" horiz-adv-x="447" 
d="M73 554h69l240 -30v-39l-10 -100h-312z" />
    <glyph glyph-name="uni05C1" unicode="&#x5c1;" 
d="M238 664l80 46l44 -73l-78 -46z" />
    <glyph glyph-name="uni05C2" unicode="&#x5c2;" 
d="M238 664l80 46l44 -73l-78 -46z" />
    <glyph glyph-name="uni05C7" unicode="&#x5c7;" 
d="M274 -132l-85 -3v69h222v-61l-84 -3l6 -112h-66z" />
    <glyph glyph-name="uni05D0" unicode="&#x5d0;" horiz-adv-x="614" 
d="M194 289l7 -279l-106 -17h-46v57q8 156 25 278q4 25 4 41q0 13 -4 22t-15 24l-21 29q34 89 58 127l41 6l78 -82l200 -208q20 82 20 95q0 8 -4 13t-16 13l-65 43q1 11 27 59t40 67h29q9 -4 49 -27q43 -24 62 -52.5t19 -65.5q0 -55 -77 -233l67 -68q-25 -75 -56 -142h-38z
" />
    <glyph glyph-name="uni05D1" unicode="&#x5d1;" horiz-adv-x="516" 
d="M37 167h271v70q0 27 -1 51q-2 36 -6.5 55t-19 30.5t-45.5 11.5h-121q-16 0 -71 17q7 92 27 174l68 12l18 -20q9 -11 16.5 -13.5t27.5 -2.5h68q66 0 101.5 -19t50.5 -63t15 -126q0 -63 -8 -177h70l-9 -167h-461z" />
    <glyph glyph-name="uni05D2" unicode="&#x5d2;" horiz-adv-x="365" 
d="M17 164l177 38l-10 75q-6 41 -10.5 57t-13 24t-30.5 19l-85 40q22 82 50 155l26 8q79 -30 110 -46t47.5 -33.5t24.5 -46t12 -80.5q9 -99 17 -356l-82 -29h-28q-8 57 -11 80q-66 -40 -166 -87h-35q2 92 7 182z" />
    <glyph glyph-name="uni05D3" unicode="&#x5d3;" horiz-adv-x="527" 
d="M269 56q0 146 5 329h-185q-16 0 -71 17q6 83 27 174l68 12l18 -20q9 -11 16.5 -13.5t27.5 -2.5h335l-26 -167h-81l10 -377l-105 -20h-39v68z" />
    <glyph glyph-name="uni05D4" unicode="&#x5d4;" horiz-adv-x="614" 
d="M428 49q0 165 -5 252q-2 34 -9.5 52t-23.5 25t-47 7h-227q-16 0 -71 17q7 92 27 174l68 12l18 -20q9 -11 16.5 -13.5t27.5 -2.5h180q73 0 110.5 -20.5t52.5 -70t15 -144.5q0 -67 -3 -156t-8 -153l-78 -20h-42q0 37 -1 61zM66 273l102 19l41 1l-1 -285l-105 -20h-42z" />
    <glyph glyph-name="uni05D5" unicode="&#x5d5;" horiz-adv-x="324" 
d="M135 287q0 40 -2 53.5t-9 20.5t-30 19l-78 37q17 95 39 152l29 12q83 -32 118 -52q42 -22 58 -56.5t16 -98.5q0 -76 -13 -366l-89 -21h-39v300z" />
    <glyph glyph-name="uni05D6" unicode="&#x5d6;" horiz-adv-x="378" 
d="M124 100q-19 170 -19 251v29q-62 10 -89 22q2 93 28 174l68 12l18 -20q9 -11 16.5 -13.5t27.5 -2.5h11q46 0 141 5l34 2q0 -15 -8 -72.5t-17 -101.5q-27 -4 -81 -8l-27 -2q2 -26 10.5 -65t10.5 -50t12.5 -62.5t16.5 -98.5q1 -10 1 -30l-1 -57q-10 -5 -40.5 -12t-66.5 -12
h-32q-3 19 -14 112z" />
    <glyph glyph-name="uni05D7" unicode="&#x5d7;" horiz-adv-x="612" 
d="M429 88q-2 160 -5 214q-2 34 -9.5 51.5t-24 24.5t-47.5 7h-131l1 -377l-103 -18h-38q2 124 9 324l1 33q0 23 -3.5 30.5t-16.5 19.5l-22 20q4 30 13 62.5t28 85.5l32 9l41 -16q10 -4 22.5 -5t63.5 -1h140q73 0 110.5 -20.5t52.5 -69.5t15 -144q0 -68 -3 -157t-8 -153
l-78 -21h-39q-1 24 -1 101z" />
    <glyph glyph-name="uni05D8" unicode="&#x5d8;" horiz-adv-x="577" 
d="M65 364q-2 22 -5.5 31t-17.5 26l-22 27q21 70 56 127l28 4q21 -9 51 -31q31 -23 42 -51t10 -88l-7 -244q26 2 60 8t54 12q42 12 63.5 28t30.5 42.5t9 73.5q0 38 -6.5 50.5t-28.5 16.5l-111 21q13 91 34 161h30q42 -5 104 -20q53 -12 77 -44.5t24 -92.5q0 -62 -23 -177.5
t-44 -162.5q-51 -31 -140.5 -57t-184.5 -37h-49z" />
    <glyph glyph-name="uni05D9" unicode="&#x5d9;" horiz-adv-x="296" 
d="M64 180l35 138q7 22 7 37q0 9 -6.5 16.5t-26.5 20.5l-63 42q24 69 65 142l22 7q12 -6 18 -10q34 -17 57 -31q50 -30 70 -57.5t20 -66.5t-16 -84q-20 -66 -50 -140l-104 -25z" />
    <glyph glyph-name="uni05DA" unicode="&#x5da;" horiz-adv-x="484" 
d="M299 289q0 44 -4.5 63.5t-16.5 26t-41 6.5h-134q-16 0 -71 17q7 92 27 174l68 12l18 -20q9 -11 16.5 -13.5t27.5 -2.5h57q77 0 115.5 -15.5t53.5 -55t16 -120.5l1 -72q0 -207 -11 -416l-78 -20h-43z" />
    <glyph glyph-name="uni05DB" unicode="&#x5db;" horiz-adv-x="504" 
d="M42 167h289q0 37 -6 133q-3 35 -11 53t-26.5 25t-54.5 7h-115q-16 0 -71 17q7 92 27 174l68 12l18 -20q9 -11 16.5 -13.5t27.5 -2.5h90q69 0 104 -27.5t46.5 -80t11.5 -142.5q0 -114 -9 -200q-5 -55 -12 -102h-408z" />
    <glyph glyph-name="uni05DC" unicode="&#x5dc;" horiz-adv-x="469" 
d="M63 85q0 51 5 88q97 52 160 93.5t83 65.5q1 24 -1.5 35t-10 15t-24.5 4q-149 0 -174 3q-40 4 -57.5 28.5t-21.5 81.5q-2 36 -2 71q0 95 5 155q29 11 68 19.5t57 8.5q4 -24 11 -110l3 -41q2 -22 5.5 -31t12 -12t29.5 -4l39 -1q28 0 76 -2q56 -3 84.5 -38t28.5 -100
q0 -206 -340 -423h-31q-5 53 -5 94z" />
    <glyph glyph-name="uni05DD" unicode="&#x5dd;" horiz-adv-x="641" 
d="M84 316v30q0 26 -3 33.5t-16 19.5l-21 20q4 29 12 60t28 88l32 9l41 -16q10 -4 27 -4.5t60 -0.5h174q68 0 104.5 -19.5t51.5 -65.5t15 -131q0 -76 -2.5 -182t-6.5 -157h-500zM466 167v34q0 63 -3 102q-3 36 -9 53.5t-20 24t-44 7.5h-179l10 -221h245z" />
    <glyph glyph-name="uni05DE" unicode="&#x5de;" horiz-adv-x="601" 
d="M40 38q8 62 41 239q8 38 12 64q3 18 3 27q0 8 -4 12.5t-19 13.5l-35 21q8 85 30 157l23 7l45 -17q39 -15 53 -18.5t29 -3.5q14 0 72 8q10 1 42 5t49 4q56 0 95 -21.5t55 -62.5q13 -32 17 -77t4 -116q0 -85 -3 -153l-11 -127h-271l7 167h158q0 51 -7 135q-3 39 -10.5 58
t-24 27t-49.5 8q-47 0 -116 -6q-6 -58 -10.5 -110.5t-8.5 -90.5l-16 -177q-57 -15 -102 -18h-47z" />
    <glyph glyph-name="uni05DF" unicode="&#x5df;" horiz-adv-x="335" 
d="M139 286q0 41 -1.5 54t-8.5 19.5t-31 18.5l-78 38q16 95 39 154l29 9q88 -31 123 -51q30 -16 45.5 -36t22 -52.5t6.5 -88.5q0 -57 -4 -206t-10 -277l-96 -16h-34z" />
    <glyph glyph-name="uni05E0" unicode="&#x5e0;" horiz-adv-x="358" 
d="M24 167h161q-4 69 -7 108q-3 40 -6.5 56.5t-11.5 25.5t-29 20l-88 46q13 46 56 152l26 5q75 -32 108 -52q31 -18 46 -36t21.5 -46.5t8.5 -81.5q1 -25 1 -92q0 -173 -6 -272h-289z" />
    <glyph glyph-name="uni05E1" unicode="&#x5e1;" horiz-adv-x="593" 
d="M70 315q-2 36 -4.5 51t-7 23.5t-16.5 19.5l-22 22q2 18 13.5 57t27.5 82l31 6l41 -16q10 -4 22 -5t62 -1l118 1q51 0 72 -1q81 -2 116 -38.5t35 -120.5q0 -67 -19 -154.5t-48 -150.5q-108 -76 -330 -102l-60 -1q-20 153 -31 328zM329 187q59 16 82.5 47.5t23.5 89.5
q0 36 -9.5 48t-40.5 15q-15 2 -96 2t-96 -1l9 -221q85 8 127 20z" />
    <glyph glyph-name="uni05E2" unicode="&#x5e2;" horiz-adv-x="543" 
d="M491 506.5q20 -29.5 20 -82.5q0 -49 -23 -155t-46 -161q-50 -45 -159 -95.5t-229 -83.5h-39v159q93 27 151 49l-64 216q-7 24 -15 33.5t-40 28.5l-30 19q24 75 55 137l28 7q29 -12 45 -21q45 -22 64.5 -52t31.5 -93q13 -66 41 -232q56 24 75 61t21 110q0 25 -4.5 33.5
t-22.5 17.5l-58 29q30 88 54 144h22q30 -10 50 -19q52 -20 72 -49.5z" />
    <glyph glyph-name="uni05E3" unicode="&#x5e3;" horiz-adv-x="532" 
d="M355 -35q-2 247 -4 341q-1 43 -18.5 60.5t-66.5 26.5l-95 18q-4 -52 -4 -66q0 -16 4 -21.5t18 -11.5l53 -26q-7 -75 -30 -149q-72 22 -109 40.5t-52 43t-15 63.5q0 44 16.5 128t36.5 159l41 9q74 -8 194 -33q81 -17 115 -51t39 -105q4 -41 4 -195q0 -208 -5 -326l-85 -17
h-37v112z" />
    <glyph glyph-name="uni05E4" unicode="&#x5e4;" horiz-adv-x="546" 
d="M43 162h331q1 71 -5 155q-2 30 -7 44.5t-17 21.5t-39 12q-78 13 -124 18l1 -20q1 -25 5 -32t19 -14l41 -17q-4 -28 -12.5 -66t-18.5 -69q-68 19 -100 33.5t-45 33.5t-16 54q-2 28 5 89t22 163l47 12q122 -11 220 -27q63 -11 93.5 -34.5t42.5 -72t12 -142.5
q0 -72 -5 -162.5t-11 -141.5h-447z" />
    <glyph glyph-name="uni05E5" unicode="&#x5e5;" horiz-adv-x="518" 
d="M459 333q-26 -61 -92 -187q58 -107 108 -195l-83 -100h-36q-79 141 -286 502l-62 108q38 64 80 113l32 5q33 -47 187 -326q39 106 39 128q0 8 -4 13.5t-15 15.5l-63 47q38 77 72 121h29q18 -10 52 -32q68 -44 68 -110q0 -42 -26 -103z" />
    <glyph glyph-name="uni05E6" unicode="&#x5e6;" horiz-adv-x="542" 
d="M492 364q-24 -65 -73 -169l48 -64q-7 -71 -17 -131h-414l13 167l242 -2q-127 116 -203 196q-29 32 -66 114q29 60 63 99l41 6l158 -205l59 -82q25 86 25 94t-4 13t-16 13l-63 43q38 85 69 124h23l53 -32q40 -24 58.5 -51.5t18.5 -62.5q0 -32 -15 -70z" />
    <glyph glyph-name="uni05E7" unicode="&#x5e7;" horiz-adv-x="576" 
d="M278 131v42q75 77 103 108.5t37 50.5q1 33 -6 43t-30 10h-266q-16 0 -71 17q7 92 27 174l68 12l18 -20q9 -11 16.5 -13.5t27.5 -2.5l220 -1q58 0 90 -35t32 -98q0 -97 -53.5 -200t-165.5 -220h-43q-4 57 -4 133zM51 -108q0 212 7 403l97 11h29q13 -153 13 -313
q0 -55 -2 -117l-111 -23h-33v39z" />
    <glyph glyph-name="uni05E8" unicode="&#x5e8;" horiz-adv-x="494" 
d="M309 70q0 167 -3 231q-1 49 -16 66.5t-53 17.5h-141q-16 0 -71 17q7 92 27 174l68 12l18 -20q9 -11 16.5 -13.5t27.5 -2.5h86q69 0 106.5 -18.5t53 -63.5t16.5 -128q0 -71 -4 -169t-10 -165l-77 -20h-43q0 48 -1 82z" />
    <glyph glyph-name="uni05E9" unicode="&#x5e9;" horiz-adv-x="690" 
d="M243 284l35 81q12 27 12 36q0 7 -4.5 11.5t-17.5 14.5l-35 27q34 72 63 121l24 3q11 -5 29.5 -17t33.5 -24q19 -15 29 -34.5t10 -40.5q0 -35 -26 -96t-56 -115q-44 -12 -97 -14v47zM60 369q-1 18 -5 27t-16 28l-17 26q22 66 54 122l23 4q21 -9 47 -28q35 -26 46.5 -54
t9.5 -86l-6 -244q86 4 131 12q74 11 117 32t62.5 56.5t19.5 90.5q0 28 -5 37.5t-22 16.5l-49 21q29 110 44 147h23l41 -12q50 -15 72.5 -44.5t22.5 -80.5q0 -63 -25 -176t-47 -165q-31 -29 -91 -52.5t-142 -37.5q-112 -20 -197 -20h-57z" />
    <glyph glyph-name="uni05EA" unicode="&#x5ea;" horiz-adv-x="627" 
d="M440 297q-2 41 -6 58.5t-15.5 23.5t-38.5 6h-140q37 -192 37 -226q0 -16 -5 -74l-10 -85h-227l9 167h104q-19 84 -59 219q-9 2 -59 16q7 92 27 174l68 12l18 -20q9 -11 16.5 -13.5t27.5 -2.5h230q62 0 96.5 -20.5t49 -67t14.5 -129.5q0 -188 -11 -326l-83 -21h-40
q0 232 -3 309z" />
    <glyph glyph-name="uni05F3" unicode="&#x5f3;" horiz-adv-x="270" 
d="M89.5 456.5q8.5 20.5 8.5 32.5q0 9 -4.5 17.5t-16.5 19.5l-52 46q51 74 103 126q38 -28 55 -44q28 -23 40 -41.5t12 -39.5q0 -49 -112 -208l-79 -7q37 78 45.5 98.5z" />
    <glyph glyph-name="uni05F4" unicode="&#x5f4;" horiz-adv-x="466" 
d="M90.5 456.5q8.5 20.5 8.5 32.5q0 9 -5 17.5t-17 19.5l-52 46q48 69 103 126q35 -24 56 -44q22 -19 33.5 -34t15.5 -31q46 64 91 109q38 -28 55 -44q28 -23 40 -41.5t12 -39.5q0 -49 -112 -208l-79 -7q37 78 45.5 98.5t8.5 32.5q0 9 -4.5 17.5t-16.5 19.5l-39 34
q-12 -56 -111 -195l-78 -7q37 78 45.5 98.5z" />
    <glyph glyph-name="Wgrave" unicode="&#x1e80;" horiz-adv-x="1092" 
d="M59 557l-34 47l4 70h287l6 -95l-72 -19l124 -387l99 308l-44 129l4 64h266l6 -95l-66 -19l123 -387l115 354q3 8 3 14q0 13 -13 17l-68 28l6 88h262l5 -85l-41 -56l-210 -537l-175 -17l-105 306l-108 -289l-185 -17zM361 867v41h180l95 -173h-86z" />
    <glyph glyph-name="wgrave" unicode="&#x1e81;" horiz-adv-x="812" 
d="M20 386q-11 27 -15 35t-15 22l-17 22l5 58h253l10 -85l-55 -13l68 -243l99 333l103 14l114 -356l64 230q2 6 2 9q0 9 -9 12l-48 20l10 79h190l10 -78l-172 -450l-144 -11l-83 278l-91 -267l-144 -11zM209 715v41h180l95 -173h-86z" />
    <glyph glyph-name="Wacute" unicode="&#x1e82;" horiz-adv-x="1092" 
d="M59 557l-34 47l4 70h287l6 -95l-72 -19l124 -387l99 308l-44 129l4 64h266l6 -95l-66 -19l123 -387l115 354q3 8 3 14q0 13 -13 17l-68 28l6 88h262l5 -85l-41 -56l-210 -537l-175 -17l-105 306l-108 -289l-185 -17zM593 908h180v-41l-188 -132h-87z" />
    <glyph glyph-name="wacute" unicode="&#x1e83;" horiz-adv-x="812" 
d="M20 386q-11 27 -15 35t-15 22l-17 22l5 58h253l10 -85l-55 -13l68 -243l99 333l103 14l114 -356l64 230q2 6 2 9q0 9 -9 12l-48 20l10 79h190l10 -78l-172 -450l-144 -11l-83 278l-91 -267l-144 -11zM441 756h180v-41l-188 -132h-87z" />
    <glyph glyph-name="Wdieresis" unicode="&#x1e84;" horiz-adv-x="1092" 
d="M59 557l-34 47l4 70h287l6 -95l-72 -19l124 -387l99 308l-44 129l4 64h266l6 -95l-66 -19l123 -387l115 354q3 8 3 14q0 13 -13 17l-68 28l6 88h262l5 -85l-41 -56l-210 -537l-175 -17l-105 306l-108 -289l-185 -17zM360 882l141 38l34 -125l-141 -38zM597 882l140 38
l34 -125l-140 -38z" />
    <glyph glyph-name="wdieresis" unicode="&#x1e85;" horiz-adv-x="812" 
d="M20 386q-11 27 -15 35t-15 22l-17 22l5 58h253l10 -85l-55 -13l68 -243l99 333l103 14l114 -356l64 230q2 6 2 9q0 9 -9 12l-48 20l10 79h190l10 -78l-172 -450l-144 -11l-83 278l-91 -267l-144 -11zM208 730l141 38l34 -125l-141 -38zM445 730l140 38l34 -125l-140 -38z
" />
    <glyph glyph-name="Ygrave" unicode="&#x1ef2;" horiz-adv-x="673" 
d="M160 98l86 24v132l-183 293l-46 57l4 70h293l10 -95l-65 -18l105 -178l87 147q4 7 4 14q0 11 -12 16l-58 26l7 88h252l7 -94l-40 -24l-184 -270v-124q0 -24 3.5 -31t17.5 -14l62 -37l-4 -80h-341zM154 867v41h180l95 -173h-86z" />
    <glyph glyph-name="ygrave" unicode="&#x1ef3;" horiz-adv-x="537" 
d="M51 -105l111 109l-145 382q-11 27 -15 35t-15 22l-17 22l5 58h256l10 -85l-58 -14l82 -251l92 230q2 6 2 9q0 9 -8 12l-47 20l9 79h190l9 -81l-128 -279q-69 -151 -114 -237t-91 -155q-72 48 -128 124zM66 715v41h180l95 -173h-86z" />
    <glyph glyph-name="endash" unicode="&#x2013;" horiz-adv-x="774" 
d="M78 344h618v-104h-618v104z" />
    <glyph glyph-name="emdash" unicode="&#x2014;" horiz-adv-x="1098" 
d="M108 344h882v-104h-882v104z" />
    <glyph glyph-name="quoteleft" unicode="&#x2018;" horiz-adv-x="280" 
d="M86 401q-27 25 -39 43t-12 39q0 49 112 208l79 7q-37 -78 -45.5 -98.5t-8.5 -32.5q0 -10 4.5 -18t16.5 -19l52 -46q-50 -75 -103 -126q-38 28 -56 43z" />
    <glyph glyph-name="quoteright" unicode="&#x2019;" horiz-adv-x="280" 
d="M100.5 456.5q8.5 20.5 8.5 32.5q0 9 -5 17.5t-17 19.5l-52 46q48 69 103 126q42 -31 56 -44q27 -23 39 -41.5t12 -39.5q0 -49 -112 -208l-78 -7q37 78 45.5 98.5z" />
    <glyph glyph-name="quotesinglbase" unicode="&#x201a;" horiz-adv-x="280" 
d="M100.5 -74.5q8.5 20.5 8.5 32.5q0 10 -4.5 18t-17.5 19l-52 46q51 74 103 126q42 -31 56 -44q27 -23 39 -41.5t12 -39.5q0 -49 -112 -208l-78 -7q37 78 45.5 98.5z" />
    <glyph glyph-name="quotedblleft" unicode="&#x201c;" horiz-adv-x="475" 
d="M86 401q-28 24 -39.5 42t-11.5 40q0 49 112 208l78 7q-37 -78 -45.5 -98.5t-8.5 -32.5q0 -10 4.5 -18t16.5 -19l39 -35q12 57 111 196l79 7q-37 -78 -45.5 -98.5t-8.5 -32.5q0 -10 4.5 -18t16.5 -19l52 -46q-55 -79 -103 -126q-38 28 -56 43q-23 21 -34.5 35.5
t-14.5 30.5q-43 -62 -90 -109q-27 18 -56 43z" />
    <glyph glyph-name="quotedblright" unicode="&#x201d;" horiz-adv-x="476" 
d="M100.5 456.5q8.5 20.5 8.5 32.5q0 9 -5 17.5t-17 19.5l-52 46q48 69 103 126q35 -24 56 -44q22 -19 33.5 -34t15.5 -31q46 64 91 109q38 -28 55 -44q28 -23 40 -41.5t12 -39.5q0 -49 -112 -208l-79 -7q37 78 45.5 98.5t8.5 32.5q0 9 -4.5 17.5t-16.5 19.5l-39 34
q-12 -56 -111 -195l-78 -7q37 78 45.5 98.5z" />
    <glyph glyph-name="quotedblbase" unicode="&#x201e;" horiz-adv-x="475" 
d="M99.5 -75.5q8.5 20.5 8.5 32.5q0 10 -4.5 18t-17.5 19l-51 46q49 73 102 126q34 -23 57 -44q22 -19 33 -34t15 -31q46 64 91 109q38 -28 55 -44q28 -23 40 -41.5t12 -39.5q0 -49 -112 -208l-78 -7q37 78 45.5 98.5t8.5 32.5q0 10 -5 17.5t-17 19.5l-39 35
q-12 -57 -111 -196l-78 -7q37 78 45.5 98.5z" />
    <glyph glyph-name="dagger" unicode="&#x2020;" horiz-adv-x="557" 
d="M234 356l-154 -5v86l154 -5v191h89v-191l154 5v-86l-154 5v-426h-89v426z" />
    <glyph glyph-name="daggerdbl" unicode="&#x2021;" horiz-adv-x="557" 
d="M234 121l-154 -5v86l154 -5v159l-154 -5v86l154 -5v191h89v-191l154 5v-86l-154 5v-159l154 5v-86l-154 5v-191h-89v191z" />
    <glyph glyph-name="bullet" unicode="&#x2022;" horiz-adv-x="382" 
d="M122.5 214.5q-31.5 18.5 -50 50t-18.5 68.5t18.5 68.5t50 50t68.5 18.5t68.5 -18.5t50 -50t18.5 -68.5t-18.5 -68.5t-50 -50t-68.5 -18.5t-68.5 18.5z" />
    <glyph glyph-name="ellipsis" unicode="&#x2026;" horiz-adv-x="862" 
d="M48 103l144 38l37 -132l-143 -38zM341 103l144 38l37 -132l-143 -38zM633 103l144 38l37 -132l-143 -38z" />
    <glyph glyph-name="perthousand" unicode="&#x2030;" horiz-adv-x="903" 
d="M55 68l527 496v-106l-527 -495v105zM92 340q-29 31 -29 90q0 52 37 85t93 33q55 0 84.5 -31.5t29.5 -89.5q0 -51 -37 -84.5t-94 -33.5q-55 0 -84 31zM213 379q6 18 6 45q0 57 -39 57q-11 0 -25 -3q-4 -14 -4 -41q0 -62 38 -62q15 0 24 4zM359.5 9.5
q-29.5 31.5 -29.5 90.5q0 51 37.5 83.5t94.5 32.5q55 0 84 -30.5t29 -88.5q0 -52 -37 -85.5t-93 -33.5t-85.5 31.5zM634 9.5q-29 31.5 -29 90.5q0 51 36.5 83.5t94.5 32.5q54 0 83 -30.5t29 -88.5q0 -52 -36.5 -85.5t-93.5 -33.5q-55 0 -84 31.5zM483 49q3 9 3 41
q0 61 -37 61q-16 0 -25 -4q-5 -18 -5 -44q0 -57 39 -57q10 0 25 3zM757 49q3 9 3 41q0 61 -38 61q-13 0 -24 -4q-5 -18 -5 -44q0 -57 39 -57q8 0 25 3z" />
    <glyph glyph-name="guilsinglleft" unicode="&#x2039;" horiz-adv-x="282" 
d="M20 277l147 215l76 -13l-91 -202l83 -205l-80 -13z" />
    <glyph glyph-name="guilsinglright" unicode="&#x203a;" horiz-adv-x="282" 
d="M47 72l83 205l-91 202l77 13l147 -215l-136 -218z" />
    <glyph glyph-name="fraction" unicode="&#x2044;" horiz-adv-x="425" 
d="M367 702h58l-365 -789h-60z" />
    <glyph glyph-name="uni20AA" unicode="&#x20aa;" horiz-adv-x="1067" 
d="M608 284l35 81q12 27 12 36q0 6 -5 11.5t-17 14.5l-35 27q34 72 63 121l24 3q11 -5 29.5 -17t33.5 -24q19 -15 29 -34.5t10 -40.5q0 -35 -26 -96t-56 -115q-44 -12 -97 -14v47zM429 42.5q0 29.5 -1 59.5q-2 164 -4 199q-2 34 -9.5 51.5t-24 24.5t-47.5 7h-131l1 -376
l-103 -18h-38q2 117 6 211q1 37 2 73t1 67q0 25 -3 33.5t-16 21.5l-22 20q4 30 13 62.5t28 85.5l32 9l41 -16q10 -4 22.5 -5t63.5 -1h140q74 0 111.5 -20t52 -70t14.5 -147q0 -72 -3 -150q87 4 141 12q76 11 119.5 33t61.5 57.5t18 89.5q0 28 -5 37t-22 16l-49 21
q29 110 44 147h23l41 -12q51 -15 73 -45t22 -81q0 -62 -25 -175t-47 -165q-65 -60 -233 -90q-112 -20 -197 -20h-90q-1 24 -1 53.5z" />
    <glyph glyph-name="Euro" unicode="&#x20ac;" horiz-adv-x="634" 
d="M592 49q-42 -29 -105 -47.5t-123 -18.5q-101 0 -164.5 51.5t-83.5 146.5l-71 3v53h64q-1 9 -1 29t1 29h-64v53l71 3q20 98 87.5 151t176.5 53q93 0 192 -22l-42 -147q-54 16 -114 24t-112 6q-9 -23 -15 -58l135 5l-11 -68h-129v-8q0 -27 3 -50h118l-11 -66l-90 3
q28 -59 101 -59q33 0 75.5 9.5t86.5 26.5z" />
    <glyph glyph-name="uni20BA" unicode="&#x20ba;" horiz-adv-x="634" 
d="M579 266q0 -80 -40 -143.5t-111.5 -99.5t-162.5 -36h-124v208l-96 -43v58l96 48v52l-96 -50v57l96 55v179l139 62h29v-144l110 64v-78l-110 -57v-56l110 55v-78l-110 -49v-159q39 2 71 13q8 24 12.5 60.5t4.5 74.5z" />
    <glyph glyph-name="uni20BD" unicode="&#x20bd;" horiz-adv-x="672" 
d="M59 67l64 15v54h-64v55h64v43h-64l1 55h63v125q0 20 -3.5 26t-19.5 12l-45 18l6 67q144 15 255 15q100 0 163 -13.5t95.5 -47t32.5 -93.5q0 -84 -64 -124t-194 -40h-46v-43h226v-55h-226v-22q0 -17 3 -22.5t16 -13.5l40 -22l-4 -56h-296zM369 291q27 2 47 9q10 31 10 81
q0 55 -16.5 75.5t-57.5 20.5q-15 0 -22 -1l-27 -1v-186q39 0 66 2z" />
    <glyph glyph-name="uni2113" unicode="&#x2113;" horiz-adv-x="527" 
d="M469 128l12 -102q-85 -39 -168 -39q-87 0 -129 44t-42 132v5q-49 -33 -97 -59v153q47 25 97 58v96q0 120 41 188.5t94 93.5t96 25q49 0 84 -34t35 -94q0 -69 -49 -145.5t-133 -152.5v-98q0 -48 14 -64.5t53 -16.5q35 0 92 10zM310 452q62 60 74 100q0 58 -33 58
q-19 0 -41 -15v-143z" />
    <glyph glyph-name="trademark" unicode="&#x2122;" horiz-adv-x="905" 
d="M129 381l44 13v220l-42 -4l-38 -45l-38 3q0 40 3 83l1 23h319l1 -23q3 -43 3 -83l-38 -3l-38 45l-41 4v-201q0 -10 1.5 -13.5t8.5 -8.5l31 -19l-2 -40h-172zM496 546l-11 -141v-2q0 -8 8 -12l32 -13l-5 -46h-128l-5 45l24 14l28 197q1 4 1 9t-2.5 8t-9.5 7l-25 14l4 48
h148l70 -221l74 221h137l2 -53l-32 -9l27 -199q2 -9 4.5 -14.5t12.5 -19.5l10 -14l-2 -33h-154l-5 46l42 11l-18 160l-64 -219l-87 -8z" />
    <glyph glyph-name="uni2126" unicode="&#x2126;" horiz-adv-x="707" 
d="M67 113l103 -16v10q-103 61 -103 195q0 84 39.5 151t109.5 104.5t158 37.5q83 0 143.5 -34t92 -95.5t31.5 -141.5q0 -143 -108 -220v-7l108 16v-113h-225l-12 123q64 56 64 173q0 82 -33.5 126t-100.5 44q-33 0 -76 -11q-17 -42 -17 -119q0 -74 15.5 -121.5t56.5 -78.5
l-15 -136h-231v113z" />
    <glyph glyph-name="estimated" unicode="&#x212e;" horiz-adv-x="614" 
d="M121.5 62q-66.5 74 -66.5 204q0 90 32 154.5t91.5 98.5t138.5 34q115 0 178.5 -71t63.5 -201q0 -26 -3 -55h-324v-98q58 -29 135 -29q61 0 143 24l23 -68q-38 -30 -99.5 -48.5t-123.5 -18.5q-122 0 -188.5 74zM388 306v131q-43 15 -92 15q-30 0 -64 -6v-142z" />
    <glyph glyph-name="partialdiff" unicode="&#x2202;" horiz-adv-x="585" 
d="M172 9q-59 30 -93 83.5t-34 121.5q0 91 57.5 145.5t152.5 54.5q26 0 39 -2l81 -39q-22 87 -86.5 139.5t-166.5 79.5l19 92q110 -2 200.5 -50t144.5 -140t54 -221q0 -133 -60 -213.5t-178 -80.5q-71 0 -130 30zM338.5 142q24.5 36 33.5 106q3 21 3 33q-13 4 -35 7t-36 3
q-57 0 -78.5 -42t-28.5 -102q-3 -28 -2 -31q11 -3 30.5 -6.5t35.5 -3.5q53 0 77.5 36z" />
    <glyph glyph-name="uni2206" unicode="&#x2206;" horiz-adv-x="802" 
d="M348 672h116l268 -672h-662zM533 116l-155 413l-158 -413h313z" />
    <glyph glyph-name="product" unicode="&#x220f;" horiz-adv-x="856" 
d="M58 105l63 16l10 383q1 27 -3 35.5t-21 15.5l-52 24l4 95h736l5 -105l-71 -17l10 -390q1 -24 4 -31.5t17 -14.5l41 -23l-4 -93h-304l-5 103l70 18l10 420h-275l10 -379q1 -24 4 -31.5t17 -14.5l52 -30l-4 -86h-309z" />
    <glyph glyph-name="summation" unicode="&#x2211;" horiz-adv-x="663" 
d="M55 102l206 233l-206 237l11 102h514q7 -106 7 -205l-74 -4l-72 87l-150 4l134 -221l-134 -217l166 4l76 88l75 -5q-4 -88 -16 -205h-526z" />
    <glyph glyph-name="minus" unicode="&#x2212;" horiz-adv-x="613" 
d="M80 321h453v-111h-453v111z" />
    <glyph glyph-name="uni2215" unicode="&#x2215;" horiz-adv-x="491" 
d="M367 549h124l-365 -549h-126z" />
    <glyph glyph-name="uni2219" unicode="&#x2219;" horiz-adv-x="337" 
d="M114 240q-23 23 -23 55t23 54.5t54 22.5q32 0 54.5 -22.5t22.5 -54.5t-23 -55t-54 -23t-54 23z" />
    <glyph glyph-name="radical" unicode="&#x221a;" horiz-adv-x="729" 
d="M133 134h-85l-3 72q30 9 116.5 27.5t114.5 20.5l104 -342h7l141 844h179l-235 -965l-200 -18z" />
    <glyph glyph-name="infinity" unicode="&#x221e;" horiz-adv-x="805" 
d="M121 111.5q-51 55.5 -51 149.5q0 87 45.5 136.5t123.5 49.5q113 0 163 -105q34 58 66.5 81.5t81.5 23.5q83 0 134 -55.5t51 -148.5q0 -88 -45 -137.5t-125 -49.5q-113 0 -163 105q-33 -58 -65.5 -81.5t-81.5 -23.5q-83 0 -134 55.5zM292 210q19 13 54 56q-31 49 -86 49
q-35 0 -56.5 -19t-21.5 -56q0 -23 2 -36q18 -7 53 -7q36 0 55 13zM602.5 206q21.5 19 21.5 57q0 22 -2 37q-20 7 -53 7q-36 0 -55.5 -13.5t-54.5 -56.5q17 -24 37 -37t49 -13q36 0 57.5 19z" />
    <glyph glyph-name="integral" unicode="&#x222b;" horiz-adv-x="377" 
d="M-38 -201v139q43 -20 77.5 -32t73.5 -19v697q0 95 41 141.5t136 46.5q60 0 125 -28v-139q-86 44 -153 52v-696q0 -95 -41 -141.5t-136 -46.5q-59 0 -123 26z" />
    <glyph glyph-name="approxequal" unicode="&#x2248;" horiz-adv-x="627" 
d="M344.5 301.5q-29.5 10.5 -72.5 30.5q-7 3 -32 14t-36 11l-95 -56l-34 50q3 9 23 36.5t53 51t75 23.5q22 0 51.5 -10.5t72.5 -30.5q7 -3 32 -14t36 -11l94 56l34 -49q-3 -9 -22.5 -36.5t-52.5 -51.5t-75 -24q-22 0 -51.5 10.5zM350 100q-29 11 -74 31q-7 3 -32 14t-35 11
l-95 -57l-34 50q3 9 23 36.5t53 51.5t75 24q21 0 50.5 -10.5t72.5 -30.5q21 -10 40.5 -18t28.5 -8l94 57l35 -50q-3 -9 -23 -36.5t-53.5 -51.5t-74.5 -24q-22 0 -51 11z" />
    <glyph glyph-name="notequal" unicode="&#x2260;" horiz-adv-x="611" 
d="M364 312l-41 -92h208v-110h-256l-49 -110h-71l49 110h-124v110h172l41 92h-213v112h262l44 99h71l-44 -99h118v-112h-167z" />
    <glyph glyph-name="lessequal" unicode="&#x2264;" horiz-adv-x="649" 
d="M100 317v76l449 184v-125l-313 -96l313 -97v-126zM100 89l449 -1v-88h-449v89z" />
    <glyph glyph-name="greaterequal" unicode="&#x2265;" horiz-adv-x="649" 
d="M100 259l313 97l-313 96v125l449 -184v-76l-449 -184v126zM100 88l449 1v-89h-449v88z" />
    <glyph glyph-name="lozenge" unicode="&#x25ca;" horiz-adv-x="666" 
d="M70 338l207 352h121l198 -354l-207 -353h-120zM455 276l-155 277l-89 -155l156 -278z" />
    <glyph glyph-name="uniFB2A" unicode="&#xfb2a;" horiz-adv-x="704" 
d="M541 677l81 46l45 -73l-79 -46zM248 284l36 81q12 27 12 36q0 7 -4.5 12t-18.5 14l-35 27q30 64 64 121l24 3q23 -10 65 -41q19 -15 29 -34.5t10 -40.5q0 -35 -26 -95t-57 -116q-46 -13 -99 -14v47zM61 369q-1 18 -5 27t-16 28l-18 26q25 70 56 122l23 4q23 -10 48 -28
q36 -26 47.5 -54t9.5 -86l-6 -244q87 4 134 12q111 16 157 56.5t46 122.5q0 27 -5.5 37t-22.5 17l-50 21q27 102 45 147h23l42 -12q51 -15 74 -44.5t23 -80.5q0 -63 -25.5 -175.5t-47.5 -165.5q-32 -29 -93 -52.5t-145 -37.5q-115 -20 -201 -20h-58z" />
    <glyph glyph-name="uniFB2B" unicode="&#xfb2b;" horiz-adv-x="704" 
d="M72 678l81 46l45 -73l-79 -46zM248 284l36 81q12 27 12 36q0 7 -4.5 12t-18.5 14l-35 27q30 64 64 121l24 3q23 -10 65 -41q19 -15 29 -34.5t10 -40.5q0 -35 -26 -95t-57 -116q-46 -13 -99 -14v47zM61 369q-1 18 -5 27t-16 28l-18 26q25 70 56 122l23 4q23 -10 48 -28
q36 -26 47.5 -54t9.5 -86l-6 -244q87 4 134 12q111 16 157 56.5t46 122.5q0 27 -5.5 37t-22.5 17l-50 21q27 102 45 147h23l42 -12q51 -15 74 -44.5t23 -80.5q0 -63 -25.5 -175.5t-47.5 -165.5q-32 -29 -93 -52.5t-145 -37.5q-115 -20 -201 -20h-58z" />
    <glyph glyph-name="uniFB2C" unicode="&#xfb2c;" horiz-adv-x="704" 
d="M541 677l81 46l45 -73l-79 -46zM248 284l36 81q12 27 12 36q0 7 -4.5 12t-18.5 14l-35 27q30 64 64 121l24 3q23 -10 65 -41q19 -15 29 -34.5t10 -40.5q0 -35 -26 -95t-57 -116q-46 -13 -99 -14v47zM61 369q-1 18 -5 27t-16 28l-18 26q25 70 56 122l23 4q23 -10 48 -28
q36 -26 47.5 -54t9.5 -86l-6 -244q87 4 134 12q111 16 157 56.5t46 122.5q0 27 -5.5 37t-22.5 17l-50 21q27 102 45 147h23l42 -12q51 -15 74 -44.5t23 -80.5q0 -63 -25.5 -175.5t-47.5 -165.5q-32 -29 -93 -52.5t-145 -37.5q-115 -20 -201 -20h-58zM385 312l81 46l45 -74
l-79 -46z" />
    <glyph glyph-name="uniFB2D" unicode="&#xfb2d;" horiz-adv-x="704" 
d="M72 678l81 46l45 -73l-79 -46zM248 284l36 81q12 27 12 36q0 7 -4.5 12t-18.5 14l-35 27q30 64 64 121l24 3q23 -10 65 -41q19 -15 29 -34.5t10 -40.5q0 -35 -26 -95t-57 -116q-46 -13 -99 -14v47zM61 369q-1 18 -5 27t-16 28l-18 26q25 70 56 122l23 4q23 -10 48 -28
q36 -26 47.5 -54t9.5 -86l-6 -244q87 4 134 12q111 16 157 56.5t46 122.5q0 27 -5.5 37t-22.5 17l-50 21q27 102 45 147h23l42 -12q51 -15 74 -44.5t23 -80.5q0 -63 -25.5 -175.5t-47.5 -165.5q-32 -29 -93 -52.5t-145 -37.5q-115 -20 -201 -20h-58zM385 312l81 46l45 -74
l-79 -46z" />
    <glyph glyph-name="uniFB2E" unicode="&#xfb2e;" horiz-adv-x="626" 
d="M198 289l7 -279l-108 -17h-47v57q8 156 25 278q5 32 5 42q0 12 -4 20.5t-16 24.5l-21 29q32 85 59 127l42 6l109 -111q57 -59 174 -179q21 79 21 95q0 8 -4.5 13t-16.5 13l-66 43q1 11 27.5 59t40.5 67h30q18 -9 50 -27q44 -24 63.5 -52.5t19.5 -65.5q0 -55 -79 -233
l68 -68q-27 -78 -57 -142h-39zM193 -66h226v-61l-226 -8v69z" />
    <glyph glyph-name="uniFB2F" unicode="&#xfb2f;" horiz-adv-x="626" 
d="M198 289l7 -279l-108 -17h-47v57q8 156 25 278q5 32 5 42q0 12 -4 20.5t-16 24.5l-21 29q32 85 59 127l42 6l109 -111q57 -59 174 -179q21 79 21 95q0 8 -4.5 13t-16.5 13l-66 43q1 11 27.5 59t40.5 67h30q18 -9 50 -27q44 -24 63.5 -52.5t19.5 -65.5q0 -55 -79 -233
l68 -68q-27 -78 -57 -142h-39zM279 -132l-86 -3v69h226v-61l-85 -3l6 -112h-68z" />
    <glyph glyph-name="uniFB30" unicode="&#xfb30;" horiz-adv-x="626" 
d="M198 289l7 -279l-108 -17h-47v57q8 156 25 278q5 32 5 42q0 12 -4 20.5t-16 24.5l-21 29q32 85 59 127l42 6l109 -111q57 -59 174 -179q21 79 21 95q0 8 -4.5 13t-16.5 13l-66 43q1 11 27.5 59t40.5 67h30q18 -9 50 -27q44 -24 63.5 -52.5t19.5 -65.5q0 -55 -79 -233
l68 -68q-27 -78 -57 -142h-39zM219 102l81 46l45 -74l-79 -46z" />
    <glyph glyph-name="uniFB31" unicode="&#xfb31;" horiz-adv-x="526" 
d="M38 167h276v70q0 27 -1 51q-2 36 -6.5 55t-19.5 30.5t-46 11.5h-124q-16 0 -72 17q7 92 27 174l70 12l18 -20q9 -11 16.5 -13.5t28.5 -2.5h69q67 0 103.5 -19t52 -63t15.5 -126q0 -63 -8 -177h71l-9 -167h-470zM110 285l81 46l45 -74l-79 -46z" />
    <glyph glyph-name="uniFB32" unicode="&#xfb32;" horiz-adv-x="372" 
d="M17 164l181 38l-10 75q-7 41 -11.5 57t-13 24t-30.5 19l-87 40q20 73 51 155l26 8q77 -29 113 -46q32 -16 48.5 -33.5t24.5 -46t12 -80.5q10 -116 18 -356l-84 -29h-29q-8 57 -11 80q-68 -40 -169 -87h-36q2 92 7 182zM24 296l81 46l45 -74l-79 -46z" />
    <glyph glyph-name="uniFB33" unicode="&#xfb33;" horiz-adv-x="538" 
d="M274 56q0 146 5 329h-188q-17 0 -73 17q6 77 28 174l69 12l19 -20q9 -11 16.5 -13.5t27.5 -2.5h342l-26 -167h-83l10 -377l-107 -20h-40v68zM107 275l81 46l45 -74l-79 -46z" />
    <glyph glyph-name="uniFB34" unicode="&#xfb34;" horiz-adv-x="626" 
d="M437 42q0 173 -6 259q-2 34 -9.5 52t-24 25t-47.5 7h-232q-16 0 -72 17q7 92 27 174l70 12l18 -20q9 -11 16.5 -13.5t28.5 -2.5h184q74 0 112.5 -20.5t53.5 -70t15 -144.5q0 -67 -3 -156t-8 -153l-80 -20h-42q0 32 -1 54zM67 273l104 19l42 1l-1 -285l-107 -20h-43z
M264 241l81 46l45 -74l-79 -46z" />
    <glyph glyph-name="uniFB35" unicode="&#xfb35;" horiz-adv-x="330" 
d="M138 287q0 40 -2 53.5t-9.5 20.5t-30.5 19l-80 37q19 98 40 152l30 12q85 -32 120 -52q43 -22 59.5 -56.5t16.5 -99.5q0 -52 -14 -365l-91 -21h-39v300zM-18 255l81 46l45 -74l-79 -46z" />
    <glyph glyph-name="uniFB36" unicode="&#xfb36;" horiz-adv-x="386" 
d="M133 45q-4 39 -7 55q-19 170 -19 251v29q-63 10 -91 22q2 90 29 174l69 12l19 -20q9 -11 16.5 -13.5t27.5 -2.5h12q48 0 143 5l35 2q0 -15 -8 -72.5t-17 -101.5q-27 -4 -81 -8q-11 0 -29 -2q3 -31 22 -119q2 -12 12.5 -62t16.5 -95q1 -10 1 -30l-1 -57q-11 -5 -42 -12
t-68 -12h-32zM275 309l81 46l45 -74l-79 -46z" />
    <glyph glyph-name="uniFB38" unicode="&#xfb38;" horiz-adv-x="589" 
d="M66 364q-2 22 -5.5 31t-17.5 26l-23 27q24 74 58 127l28 4q24 -10 52 -31q32 -23 43 -51t10 -88l-7 -244q27 2 61.5 8t54.5 12q43 12 65 28t31 42.5t9 73.5q0 38 -6.5 50.5t-28.5 16.5l-114 21q15 92 35 161h31q43 -6 106 -20q54 -12 78.5 -44.5t24.5 -92.5
q0 -63 -23.5 -178t-45.5 -162q-52 -31 -143.5 -57t-187.5 -37h-50zM244 313l81 46l45 -74l-79 -46z" />
    <glyph glyph-name="uniFB39" unicode="&#xfb39;" horiz-adv-x="302" 
d="M65 180l36 138q7 22 7 37q0 9 -6.5 16.5t-27.5 20.5l-64 42q26 70 66 142l23 7l25 -14l51 -27q51 -30 71.5 -57.5t20.5 -66.5t-16 -84q-17 -57 -51 -140l-106 -25zM-65 325l81 46l45 -74l-79 -46z" />
    <glyph glyph-name="uniFB3A" unicode="&#xfb3a;" horiz-adv-x="494" 
d="M305 289q0 45 -4.5 64t-17 25.5t-41.5 6.5h-137q-17 0 -72 17q7 92 27 174l70 12l18 -20q9 -11 16.5 -13.5t28.5 -2.5h58q79 0 118 -15.5t54.5 -55t16.5 -120.5l1 -71q0 -189 -12 -417l-79 -20h-44zM122 287l81 46l45 -74l-79 -46z" />
    <glyph glyph-name="uniFB3B" unicode="&#xfb3b;" horiz-adv-x="514" 
d="M43 167h295q0 43 -7 133q-3 35 -11.5 53t-27 25t-54.5 7h-118q-16 0 -72 17q7 92 27 174l70 12l18 -20q9 -10 17 -13t28 -3h92q71 0 106.5 -27.5t47 -80t11.5 -142.5q0 -114 -9 -200q-5 -55 -12 -102h-416zM127 287l81 46l45 -74l-79 -46z" />
    <glyph glyph-name="uniFB3C" unicode="&#xfb3c;" horiz-adv-x="478" 
d="M64 85q0 51 5 88q100 52 164 93.5t84 65.5q1 24 -1.5 35t-10 15t-25.5 4q-151 0 -177 3q-41 4 -58.5 28.5t-22.5 81.5q-2 36 -2 71q0 95 5 155q30 11 70 19.5t58 8.5q4 -24 11 -110l3 -41q2 -22 5.5 -31t12.5 -12t30 -4l40 -1q28 0 78 -2q56 -3 85.5 -38t29.5 -100
q0 -206 -347 -423h-32q-5 53 -5 94zM74 319l81 46l45 -74l-79 -46z" />
    <glyph glyph-name="uniFB3E" unicode="&#xfb3e;" horiz-adv-x="613" 
d="M41 38q9 65 40 228l14 75q3 18 3 27t-4.5 13t-19.5 13l-35 21q8 85 30 157l24 7l46 -17q40 -15 54 -18.5t29 -3.5q14 0 74 8q77 9 93 9q57 0 96.5 -21.5t56.5 -62.5q13 -32 17 -77t4 -116q0 -85 -3 -153l-11 -127h-277l7 167h162q0 63 -8 135q-3 39 -10.5 58t-24 27
t-50.5 8q-48 0 -119 -6q-6 -58 -10.5 -110.5t-8.5 -90.5l-16 -177q-59 -15 -104 -18h-48zM265 289l81 46l45 -74l-79 -46z" />
    <glyph glyph-name="uniFB40" unicode="&#xfb40;" horiz-adv-x="365" 
d="M24 167h165q-4 69 -7 108q-4 40 -7.5 56.5t-11.5 25.5t-29 20l-90 46q10 36 27.5 79.5t21.5 52.5q2 4 3.5 9.5t4.5 10.5l26 5q74 -31 111 -52q32 -18 47 -36t21.5 -46.5t8.5 -81.5q1 -25 1 -92q0 -173 -6 -272h-295zM16 291l81 46l45 -74l-79 -46z" />
    <glyph glyph-name="uniFB41" unicode="&#xfb41;" horiz-adv-x="593" 
d="M70 315q-2 36 -4.5 51t-7 23.5t-16.5 19.5l-22 22q2 18 13.5 57t27.5 82l31 6l41 -16q10 -4 22 -5t62 -1l118 1q51 0 72 -1q81 -2 116 -38.5t35 -120.5q0 -67 -19 -154.5t-48 -150.5q-108 -76 -330 -102l-60 -1q-20 153 -31 328zM329 187q59 16 82.5 47.5t23.5 89.5
q0 36 -9.5 48t-40.5 15q-15 2 -96 2t-96 -1l9 -221q85 8 127 20zM244 301l80 46l44 -74l-78 -46z" />
    <glyph glyph-name="uniFB43" unicode="&#xfb43;" horiz-adv-x="543" 
d="M362 -35q-2 247 -4 341q-1 43 -19 60.5t-68 26.5l-97 18q-4 -52 -4 -66q0 -16 4 -21.5t19 -11.5l54 -26q-7 -78 -31 -149q-74 22 -111.5 40.5t-52.5 43t-15 63.5q0 31 11 88.5t43 198.5l42 9q78 -9 197 -33q56 -11 89 -29.5t49 -48.5t20 -78q4 -41 4 -195q0 -208 -5 -326
l-87 -17h-38v112zM238 333l67 38l37 -62l-65 -38z" />
    <glyph glyph-name="uniFB44" unicode="&#xfb44;" horiz-adv-x="557" 
d="M44 162h337q1 71 -5 155q-2 30 -7 44.5t-17.5 21.5t-39.5 12q-76 13 -126 18l1 -20q1 -25 5 -32t19 -14l42 -17q-4 -29 -13 -67t-19 -68q-69 19 -102 33.5t-46 33.5t-16 54q-4 48 28 252l48 12q125 -11 224 -27q64 -11 95 -34.5t43.5 -72t12.5 -142.5q0 -72 -5 -162.5
t-11 -141.5h-456zM256 245l67 38l37 -62l-65 -38z" />
    <glyph glyph-name="uniFB46" unicode="&#xfb46;" horiz-adv-x="553" 
d="M502 364q-20 -55 -74 -169l48 -64q-7 -71 -17 -131h-422l13 167l247 -2q-121 108 -207 196q-28 29 -68 114q31 63 65 99l42 6l161 -205l60 -81q25 84 25 93q0 8 -4 13t-16 13l-64 43q37 83 70 124h24l54 -32q41 -24 59.5 -51.5t18.5 -62.5q0 -32 -15 -70zM87 181l-47 74
l81 46l45 -74z" />
    <glyph glyph-name="uniFB47" unicode="&#xfb47;" horiz-adv-x="588" 
d="M284 131v42q77 79 105 109.5t37 49.5q1 33 -6 43t-30 10h-272q-16 0 -72 17q7 92 27 174l70 12l18 -20q9 -11 16.5 -13.5t28.5 -2.5l224 -1q59 0 92 -35t33 -98q0 -97 -55 -200t-169 -220h-43q-4 57 -4 133zM224 312l81 46l45 -74l-79 -46zM52 -108q0 212 7 403l99 11h30
q13 -153 13 -313q0 -55 -2 -117l-113 -23h-34v39z" />
    <glyph glyph-name="uniFB48" unicode="&#xfb48;" horiz-adv-x="504" 
d="M315 70q0 167 -3 231q-1 49 -16 66.5t-54 17.5h-144q-17 0 -73 17q9 96 28 174l69 12l19 -20q9 -11 16.5 -13.5t28.5 -2.5h87q71 0 109 -18.5t54 -63.5t17 -128q0 -71 -4 -169t-10 -165l-79 -20h-44q0 48 -1 82zM105 254l81 46l45 -74l-79 -46z" />
    <glyph glyph-name="uniFB49" unicode="&#xfb49;" horiz-adv-x="704" 
d="M248 284l36 81q12 27 12 36q0 7 -4.5 12t-18.5 14l-35 27q30 64 64 121l24 3q23 -10 65 -41q19 -15 29 -34.5t10 -40.5q0 -35 -26 -95t-57 -116q-46 -13 -99 -14v47zM61 369q-1 18 -5 27t-16 28l-18 26q25 70 56 122l23 4q23 -10 48 -28q36 -26 47.5 -54t9.5 -86l-6 -244
q87 4 134 12q111 16 157 56.5t46 122.5q0 27 -5.5 37t-22.5 17l-50 21q27 102 45 147h23l42 -12q51 -15 74 -44.5t23 -80.5q0 -63 -25.5 -175.5t-47.5 -165.5q-32 -29 -93 -52.5t-145 -37.5q-115 -20 -201 -20h-58zM385 312l81 46l45 -74l-79 -46z" />
    <glyph glyph-name="uniFB4A" unicode="&#xfb4a;" horiz-adv-x="640" 
d="M449 297q-2 41 -6 58.5t-16 23.5t-39 6h-143q38 -197 38 -226q0 -16 -3 -43l-3 -31l-10 -85h-231l9 167h106q-16 70 -60 219q-11 2 -60 16q7 92 27 174l69 12l19 -20q9 -11 16.5 -13.5t28.5 -2.5h234q63 0 98.5 -20.5t50.5 -67t15 -129.5q0 -78 -3.5 -169t-8.5 -157
l-84 -21h-41q0 232 -3 309zM297 263l81 46l45 -74l-79 -46z" />
    <glyph glyph-name="uniFB4B" unicode="&#xfb4b;" horiz-adv-x="330" 
d="M129 675l81 46l45 -73l-79 -46zM138 287q0 40 -2 53.5t-9.5 20.5t-30.5 19l-80 37q19 98 40 152l30 12q85 -32 120 -52q43 -22 59.5 -56.5t16.5 -99.5q0 -52 -14 -365l-91 -21h-39v300z" />
    <glyph glyph-name="i.loclTRK" horiz-adv-x="347" 
d="M25 92l70 21v243q0 22 -3.5 28.5t-17.5 14.5l-44 24l5 75q83 16 128.5 23.5t83.5 8.5q13 -43 16 -64v-320q0 -21 3 -28t17 -15l49 -28l-4 -75h-300zM74 724l141 38l34 -125l-141 -38z" />
    <glyph glyph-name="zero.osf" horiz-adv-x="601" 
d="M97 52q-62 76 -62 224q0 87 36.5 156t101.5 107.5t148 38.5q121 0 183 -77t62 -226q0 -87 -36.5 -155t-101.5 -106t-149 -38q-120 0 -182 76zM336 108.5q14 3.5 36 11.5q7 26 11.5 67t4.5 81q0 86 -24.5 132.5t-70.5 46.5q-34 0 -65 -10q-7 -16 -11 -54t-4 -88
q0 -90 25 -140t70 -50q14 0 28 3.5z" />
    <glyph glyph-name="one.osf" horiz-adv-x="414" 
d="M407 151l-9 -151h-378l9 151h117l4 195q1 21 -3 27.5t-25 17.5l-87 45l13 87l203 53l46 -8l4 -417h106z" />
    <glyph glyph-name="two.osf" horiz-adv-x="455" 
d="M17 123q12 8 18 13q183 129 223 167q6 33 6 48q-1 35 -21.5 51.5t-65.5 16.5q-54 0 -131 -10l-5 33l15 115q86 21 157 21q93 0 150.5 -41.5t57.5 -117.5q0 -74 -48 -137t-160 -149l169 32h43l-11 -165h-392z" />
    <glyph glyph-name="three.osf" horiz-adv-x="468" 
d="M67 -14q-39 10 -72 27l59 128h43q57 -21 122 -21q45 0 78 15q0 43 -22 64t-69 25l-50 3q-45 2 -66 4q8 38 30 105q75 9 109 16q2 22 2 29q0 28 -13 38t-46 10q-67 0 -125 -11l-5 35l10 98q86 27 151 27q84 0 137.5 -34t53.5 -89q0 -28 -14 -56t-45 -63q51 -16 74.5 -46
t23.5 -81q0 -64 -38.5 -117.5t-104.5 -84.5t-145 -31q-39 0 -78 10z" />
    <glyph glyph-name="four.osf" horiz-adv-x="582" 
d="M304 107h-254l-25 111l237 362l192 -19l7 -307h91l-24 -147h-67v-99l-123 -24h-34v123zM304 254v191l-110 -191h110z" />
    <glyph glyph-name="five.osf" horiz-adv-x="485" 
d="M24 12l56 130h36q72 -33 129 -33q53 0 75 18q-2 44 -22 65t-65 25q-59 6 -167 11q-6 167 -7 246q0 43 9 91h226q16 0 21.5 2.5t15.5 14.5l17 21l69 -17q-5 -87 -15 -151q-13 -7 -40.5 -12.5t-45.5 -5.5h-134l-7 -52l22 -1q68 -4 111 -10.5t75 -23.5q70 -40 70 -120
q0 -65 -37.5 -118.5t-102 -84.5t-142.5 -31q-93 0 -147 36z" />
    <glyph glyph-name="six.osf" horiz-adv-x="511" 
d="M88 33.5q-60 57.5 -60 153.5q0 59 19.5 107t75.5 131q71 103 106 142l175 19v-44l-161 -178l58 13q84 -9 133 -54.5t49 -115.5q0 -64 -31 -117t-84.5 -83.5t-118.5 -30.5q-101 0 -161 57.5zM325 107l2 29q0 64 -23.5 93.5t-73.5 29.5q-32 0 -48 -5q-1 -79 23.5 -115.5
t78.5 -36.5q31 0 41 5z" />
    <glyph glyph-name="seven.osf" horiz-adv-x="439" 
d="M55 25l215 379h-184q-24 0 -71 17q6 94 28 173l47 11l24 -27q8 -9 16 -11t36 -2h231l10 -119l-179 -459l-171 -5z" />
    <glyph glyph-name="eight.osf" horiz-adv-x="536" 
d="M88 17.5q-60 41.5 -60 120.5q0 97 91 149q-36 27 -50.5 54.5t-14.5 68.5q0 49 27.5 87.5t76.5 59.5t112 21q101 0 154 -40.5t53 -117.5q0 -39 -14.5 -71.5t-41.5 -55.5q46 -26 66.5 -59t20.5 -82q0 -52 -30.5 -92t-86 -62t-127.5 -22q-116 0 -176 41.5zM321 411
q0 31 -15.5 46t-49.5 16q-18 0 -30 -2q-7 -16 -7 -41q0 -18 6.5 -29t25 -22.5t57.5 -28.5q13 26 13 61zM322 87q5 11 9 25.5t4 24.5q0 14 -7.5 24.5t-26.5 20.5q-14 7 -49 23l-37 16q-9 -18 -15 -38t-6 -35q0 -37 31 -52q23 -11 71 -11q20 0 26 2z" />
    <glyph glyph-name="nine.osf" horiz-adv-x="512" 
d="M107 12l161 178l-58 -13q-84 9 -133 54.5t-49 115.5q0 64 31 117t84.5 83.5t118.5 30.5q101 0 161 -57.5t60 -153.5q0 -59 -19.5 -107t-75.5 -131q-71 -103 -106 -142l-175 -19v44zM329 300q1 79 -23.5 115.5t-78.5 36.5q-31 0 -41 -5l-2 -29q0 -64 23.5 -93.5
t73.5 -29.5q32 0 48 5z" />
    <glyph glyph-name="question.ss01" horiz-adv-x="452" 
d="M137 211q-6 23 -10 40.5t-4 31.5q0 41 21.5 72.5t64.5 75.5q33 33 46 50q0 33 -21 47t-68 14q-45 0 -116 -10l-5 39l12 101q75 19 146 19q96 0 150 -40t54 -104q0 -45 -23 -78.5t-66 -75.5q-26 -25 -37 -38.5t-11 -26.5q0 -9 7 -37q6 -22 8 -34q-67 -36 -142 -67z
M116 107l149 39l37 -138l-148 -40z" />
    <glyph glyph-name="questiondown.ss01" horiz-adv-x="452" 
d="M150 651l148 40l38 -139l-149 -39zM99 8q-54 40 -54 104q0 45 23 78.5t66 75.5q26 25 37 38.5t11 26.5q0 9 -7 37q-6 22 -8 34q67 36 142 67l6 -21q6 -23 10 -40.5t4 -31.5q0 -41 -21.5 -72.5t-64.5 -75.5q-33 -33 -46 -50q0 -33 21 -47t68 -14q45 0 116 10l5 -39
l-12 -101q-75 -19 -146 -19q-96 0 -150 40z" />
    </font>
</defs>
</svg>
